  0
SECTION
  2
HEADER
  9
$ACADVER
  1
AC1015
  9
$ACADMAINTVER
 70
     6
  9
$DWGCODEPAGE
  3
ANSI_936
  9
$INSBASE
 10
0.0
 20
0.0
 30
0.0
  9
$EXTMIN
 10
-45.0
 20
-21.2132034356
 30
0.0
  9
$EXTMAX
 10
45.0
 20
22.627416998
 30
0.0
  9
$LIMMIN
 10
0.0
 20
0.0
  9
$LIMMAX
 10
420.0
 20
297.0
  9
$ORTHOMODE
 70
     0
  9
$REGENMODE
 70
     1
  9
$FILLMODE
 70
     1
  9
$QTEXTMODE
 70
     0
  9
$MIRRTEXT
 70
     1
  9
$LTSCALE
 40
1.0
  9
$ATTMODE
 70
     1
  9
$TEXTSIZE
 40
3.5
  9
$TRACEWID
 40
1.0
  9
$TEXTSTYLE
  7
Standard
  9
$CLAYER
  8
0
  9
$CELTYPE
  6
ByLayer
  9
$CECOLOR
 62
   256
  9
$CELTSCALE
 40
1.0
  9
$DISPSILH
 70
     0
  9
$DIMSCALE
 40
1.0
  9
$DIMASZ
 40
3.556
  9
$DIMEXO
 40
1.0
  9
$DIMDLI
 40
3.75
  9
$DIMRND
 40
0.0
  9
$DIMDLE
 40
0.0
  9
$DIMEXE
 40
1.0
  9
$DIMTP
 40
0.0
  9
$DIMTM
 40
0.0
  9
$DIMTXT
 40
3.5
  9
$DIMCEN
 40
2.5
  9
$DIMTSZ
 40
0.0
  9
$DIMTOL
 70
     0
  9
$DIMLIM
 70
     0
  9
$DIMTIH
 70
     1
  9
$DIMTOH
 70
     1
  9
$DIMSE1
 70
     0
  9
$DIMSE2
 70
     0
  9
$DIMTAD
 70
     1
  9
$DIMZIN
 70
     1
  9
$DIMBLK
  1

  9
$DIMASO
 70
     1
  9
$DIMSHO
 70
     1
  9
$DIMPOST
  1

  9
$DIMAPOST
  1

  9
$DIMALT
 70
     0
  9
$DIMALTD
 70
     3
  9
$DIMALTF
 40
0.0393700787
  9
$DIMLFAC
 40
1.0
  9
$DIMTOFL
 70
     1
  9
$DIMTVP
 40
0.0
  9
$DIMTIX
 70
     0
  9
$DIMSOXD
 70
     0
  9
$DIMSAH
 70
     0
  9
$DIMBLK1
  1

  9
$DIMBLK2
  1

  9
$DIMSTYLE
  2
ISO-25
  9
$DIMCLRD
 70
     0
  9
$DIMCLRE
 70
     0
  9
$DIMCLRT
 70
     0
  9
$DIMTFAC
 40
1.0
  9
$DIMGAP
 40
1.524
  9
$DIMJUST
 70
     0
  9
$DIMSD1
 70
     0
  9
$DIMSD2
 70
     0
  9
$DIMTOLJ
 70
     0
  9
$DIMTZIN
 70
     1
  9
$DIMALTZ
 70
     0
  9
$DIMALTTZ
 70
     0
  9
$DIMUPT
 70
     0
  9
$DIMDEC
 70
     2
  9
$DIMTDEC
 70
     2
  9
$DIMALTU
 70
     2
  9
$DIMALTTD
 70
     3
  9
$DIMTXSTY
  7
Standard
  9
$DIMAUNIT
 70
     0
  9
$DIMADEC
 70
     2
  9
$DIMALTRND
 40
0.0
  9
$DIMAZIN
 70
     0
  9
$DIMDSEP
 70
    44
  9
$DIMATFIT
 70
     3
  9
$DIMFRAC
 70
     0
  9
$DIMLDRBLK
  1

  9
$DIMLUNIT
 70
     2
  9
$DIMLWD
 70
    -2
  9
$DIMLWE
 70
    -2
  9
$DIMTMOVE
 70
     0
  9
$LUNITS
 70
     2
  9
$LUPREC
 70
     2
  9
$SKETCHINC
 40
1.0
  9
$FILLETRAD
 40
10.0
  9
$AUNITS
 70
     0
  9
$AUPREC
 70
     2
  9
$MENU
  1
.
  9
$ELEVATION
 40
0.0
  9
$PELEVATION
 40
0.0
  9
$THICKNESS
 40
0.0
  9
$LIMCHECK
 70
     0
  9
$CHAMFERA
 40
0.0
  9
$CHAMFERB
 40
0.0
  9
$CHAMFERC
 40
0.0
  9
$CHAMFERD
 40
0.0
  9
$SKPOLY
 70
     0
  9
$TDCREATE
 40
2460156.525380197
  9
$TDUCREATE
 40
2460156.192046863
  9
$TDUPDATE
 40
2460156.526354942
  9
$TDUUPDATE
 40
2460156.193021609
  9
$TDINDWG
 40
0.0000000116
  9
$TDUSRTIMER
 40
0.0000000116
  9
$USRTIMER
 70
     1
  9
$ANGBASE
 50
0.0
  9
$ANGDIR
 70
     0
  9
$PDMODE
 70
     0
  9
$PDSIZE
 40
-1.0
  9
$PLINEWID
 40
0.0
  9
$SPLFRAME
 70
     0
  9
$SPLINETYPE
 70
     6
  9
$SPLINESEGS
 70
     8
  9
$HANDSEED
  5
159
  9
$SURFTAB1
 70
     6
  9
$SURFTAB2
 70
     6
  9
$SURFTYPE
 70
     6
  9
$SURFU
 70
     6
  9
$SURFV
 70
     6
  9
$UCSBASE
  2

  9
$UCSNAME
  2

  9
$UCSORG
 10
0.0
 20
0.0
 30
0.0
  9
$UCSXDIR
 10
1.0
 20
0.0
 30
0.0
  9
$UCSYDIR
 10
0.0
 20
1.0
 30
0.0
  9
$UCSORTHOREF
  2

  9
$UCSORTHOVIEW
 70
     0
  9
$UCSORGTOP
 10
0.0
 20
0.0
 30
0.0
  9
$UCSORGBOTTOM
 10
0.0
 20
0.0
 30
0.0
  9
$UCSORGLEFT
 10
0.0
 20
0.0
 30
0.0
  9
$UCSORGRIGHT
 10
0.0
 20
0.0
 30
0.0
  9
$UCSORGFRONT
 10
0.0
 20
0.0
 30
0.0
  9
$UCSORGBACK
 10
0.0
 20
0.0
 30
0.0
  9
$PUCSBASE
  2

  9
$PUCSNAME
  2

  9
$PUCSORG
 10
0.0
 20
0.0
 30
0.0
  9
$PUCSXDIR
 10
1.0
 20
0.0
 30
0.0
  9
$PUCSYDIR
 10
0.0
 20
1.0
 30
0.0
  9
$PUCSORTHOREF
  2

  9
$PUCSORTHOVIEW
 70
     0
  9
$PUCSORGTOP
 10
0.0
 20
0.0
 30
0.0
  9
$PUCSORGBOTTOM
 10
0.0
 20
0.0
 30
0.0
  9
$PUCSORGLEFT
 10
0.0
 20
0.0
 30
0.0
  9
$PUCSORGRIGHT
 10
0.0
 20
0.0
 30
0.0
  9
$PUCSORGFRONT
 10
0.0
 20
0.0
 30
0.0
  9
$PUCSORGBACK
 10
0.0
 20
0.0
 30
0.0
  9
$USERI1
 70
     0
  9
$USERI2
 70
     0
  9
$USERI3
 70
     0
  9
$USERI4
 70
     0
  9
$USERI5
 70
     0
  9
$USERR1
 40
0.0
  9
$USERR2
 40
0.0
  9
$USERR3
 40
0.0
  9
$USERR4
 40
0.0
  9
$USERR5
 40
0.0
  9
$WORLDVIEW
 70
     1
  9
$SHADEDGE
 70
     3
  9
$SHADEDIF
 70
    70
  9
$TILEMODE
 70
     1
  9
$MAXACTVP
 70
    64
  9
$PINSBASE
 10
0.0
 20
0.0
 30
0.0
  9
$PLIMCHECK
 70
     0
  9
$PEXTMIN
 10
-45.0
 20
0.0
 30
0.0
  9
$PEXTMAX
 10
45.0
 20
2.0
 30
0.0
  9
$PLIMMIN
 10
-52.0038910506
 20
-2.626459144
  9
$PLIMMAX
 10
52.0038910506
 20
70.9143968872
  9
$UNITMODE
 70
     0
  9
$VISRETAIN
 70
     1
  9
$PLINEGEN
 70
     0
  9
$PSLTSCALE
 70
     1
  9
$TREEDEPTH
 70
  3020
  9
$CMLSTYLE
  2
Standard
  9
$CMLJUST
 70
     0
  9
$CMLSCALE
 40
20.0
  9
$PROXYGRAPHICS
 70
     1
  9
$MEASUREMENT
 70
     1
  9
$CELWEIGHT
370
    -1
  9
$ENDCAPS
280
     0
  9
$JOINSTYLE
280
     0
  9
$LWDISPLAY
290
     1
  9
$INSUNITS
 70
     4
  9
$HYPERLINKBASE
  1

  9
$STYLESHEET
  1

  9
$XEDIT
290
     1
  9
$CEPSNTYPE
380
     0
  9
$PSTYLEMODE
290
     1
  9
$FINGERPRINTGUID
  2
{537560b8-f92b-4900-b0d0-e5a92bee34c3}
  9
$VERSIONGUID
  2
{FAEB1C32-E019-11D5-929B-00C0DF256EC4}
  9
$EXTNAMES
290
     1
  9
$PSVPSCALE
 40
0.0
  9
$OLESTARTUP
290
     0
  0
ENDSEC
  0
SECTION
  2
CLASSES
  0
CLASS
  1
ACDBDICTIONARYWDFLT
  2
AcDbDictionaryWithDefault
  3
ObjectDBX Classes
 90
        0
280
     0
281
     0
  0
CLASS
  1
VISUALSTYLE
  2
AcDbVisualStyle
  3
ObjectDBX Classes
 90
     4095
280
     0
281
     0
  0
CLASS
  1
MATERIAL
  2
AcDbMaterial
  3
ObjectDBX Classes
 90
     1153
280
     0
281
     0
  0
CLASS
  1
SCALE
  2
AcDbScale
  3
ObjectDBX Classes
 90
     1153
280
     0
281
     0
  0
CLASS
  1
TABLESTYLE
  2
AcDbTableStyle
  3
ObjectDBX Classes
 90
     4095
280
     0
281
     0
  0
CLASS
  1
MLEADERSTYLE
  2
AcDbMLeaderStyle
  3
ACDB_MLEADERSTYLE_CLASS
 90
     4095
280
     0
281
     0
  0
CLASS
  1
SUN
  2
AcDbSun
  3
SCENEOE
 90
     1153
280
     0
281
     0
  0
CLASS
  1
ACDBPLACEHOLDER
  2
AcDbPlaceHolder
  3
ObjectDBX Classes
 90
        0
280
     0
281
     0
  0
CLASS
  1
LAYOUT
  2
AcDbLayout
  3
ObjectDBX Classes
 90
        0
280
     0
281
     0
  0
ENDSEC
  0
SECTION
  2
TABLES
  0
TABLE
  2
VPORT
  5
8
330
0
100
AcDbSymbolTable
 70
     1
  0
VPORT
  5
29
330
8
100
AcDbSymbolTableRecord
100
AcDbViewportTableRecord
  2
*Active
 70
     0
 10
0.0
 20
0.0
 11
1.0
 21
1.0
 12
0.0
 22
0.7071067812
 13
0.0
 23
0.0
 14
10.0
 24
10.0
 15
10.0
 25
10.0
 16
0.0
 26
0.0
 36
1.0
 17
0.0
 27
0.0
 37
0.0
 40
44.7174328422
 41
2.0528906551
 42
50.0
 43
0.0
 44
0.0
 50
0.0
 51
0.0
 71
     0
 72
   100
 73
     1
 74
     3
 75
     0
 76
     0
 77
     0
 78
     0
281
     0
 65
     1
110
0.0
120
0.0
130
0.0
111
1.0
121
0.0
131
0.0
112
0.0
122
1.0
132
0.0
 79
     0
146
0.0
  0
ENDTAB
  0
TABLE
  2
LTYPE
  5
5
330
0
100
AcDbSymbolTable
 70
     6
  0
LTYPE
  5
14
330
5
100
AcDbSymbolTableRecord
100
AcDbLinetypeTableRecord
  2
ByBlock
 70
     0
  3

 72
    65
 73
     0
 40
0.0
  0
LTYPE
  5
15
330
5
100
AcDbSymbolTableRecord
100
AcDbLinetypeTableRecord
  2
ByLayer
 70
     0
  3

 72
    65
 73
     0
 40
0.0
  0
LTYPE
  5
16
330
5
100
AcDbSymbolTableRecord
100
AcDbLinetypeTableRecord
  2
Continuous
 70
     0
  3
Solid line
 72
    65
 73
     0
 40
0.0
  0
LTYPE
  5
6E
330
5
100
AcDbSymbolTableRecord
100
AcDbLinetypeTableRecord
  2
HIDDEN
 70
     0
  3
Hidden __ __ __ __ __ __ __ __ __ __ __ __ __ __
 72
    65
 73
     2
 40
1.905
 49
1.27
 74
     0
 49
-0.635
 74
     0
  0
LTYPE
  5
6F
330
5
100
AcDbSymbolTableRecord
100
AcDbLinetypeTableRecord
  2
PHANTOM
 70
     0
  3
Phantom ______  __  __  ______  __  __  ______
 72
    65
 73
     6
 40
12.7
 49
6.35
 74
     0
 49
-1.27
 74
     0
 49
1.27
 74
     0
 49
-1.27
 74
     0
 49
1.27
 74
     0
 49
-1.27
 74
     0
  0
LTYPE
  5
70
330
5
100
AcDbSymbolTableRecord
100
AcDbLinetypeTableRecord
  2
CENTER
 70
     0
  3
Center ____ _ ____ _ ____ _ ____ _ ____ _ ____
 72
    65
 73
     4
 40
10.16
 49
6.35
 74
     0
 49
-1.27
 74
     0
 49
1.27
 74
     0
 49
-1.27
 74
     0
  0
LTYPE
  5
71
330
5
100
AcDbSymbolTableRecord
100
AcDbLinetypeTableRecord
  2
CENTERX2
 70
     0
  3
Center (2x) ________  __  ________  __  _____
 72
    65
 73
     4
 40
20.32
 49
12.7
 74
     0
 49
-2.54
 74
     0
 49
2.54
 74
     0
 49
-2.54
 74
     0
  0
LTYPE
  5
72
330
5
100
AcDbSymbolTableRecord
100
AcDbLinetypeTableRecord
  2
DOT2
 70
     0
  3
Dot (.5x) ........................................
 72
    65
 73
     2
 40
0.635
 49
0.0
 74
     0
 49
-0.635
 74
     0
  0
ENDTAB
  0
TABLE
  2
LAYER
  5
2
330
0
100
AcDbSymbolTable
 70
     1
  0
LAYER
  5
10
330
2
100
AcDbSymbolTableRecord
100
AcDbLayerTableRecord
  2
0
 70
     0
 62
     7
  6
Continuous
370
    -3
390
F
  0
ENDTAB
  0
TABLE
  2
STYLE
  5
3
330
0
100
AcDbSymbolTable
 70
     1
  0
STYLE
  5
11
330
3
100
AcDbSymbolTableRecord
100
AcDbTextStyleTableRecord
  2
Standard
 70
     0
 40
0.0
 41
1.0
 50
0.0
 71
     0
 42
3.5
  3
txt
  4

  0
ENDTAB
  0
TABLE
  2
VIEW
  5
6
330
0
100
AcDbSymbolTable
 70
     0
  0
ENDTAB
  0
TABLE
  2
UCS
  5
7
330
0
100
AcDbSymbolTable
 70
     0
  0
ENDTAB
  0
TABLE
  2
APPID
  5
9
330
0
100
AcDbSymbolTable
 70
     1
  0
APPID
  5
12
330
9
100
AcDbSymbolTableRecord
100
AcDbRegAppTableRecord
  2
ACAD
 70
     0
  0
ENDTAB
  0
TABLE
  2
DIMSTYLE
  5
A
330
0
100
AcDbSymbolTable
 70
     1
100
AcDbDimStyleTable
  0
DIMSTYLE
105
27
330
A
100
AcDbSymbolTableRecord
100
AcDbDimStyleTableRecord
  2
ISO-25
 70
     0
 41
2.5
 42
0.625
 43
3.75
 44
1.25
 73
     0
 74
     0
 77
     1
 78
     8
140
2.5
141
2.5
143
0.0393700787
147
0.625
171
     3
172
     1
178
     0
271
     2
272
     2
274
     3
278
    44
283
     0
284
     8
340
11
  0
ENDTAB
  0
TABLE
  2
BLOCK_RECORD
  5
1
330
0
100
AcDbSymbolTable
 70
     9
  0
BLOCK_RECORD
  5
1F
330
1
100
AcDbSymbolTableRecord
100
AcDbBlockTableRecord
  2
*Model_Space
340
22
  0
BLOCK_RECORD
  5
1B
330
1
100
AcDbSymbolTableRecord
100
AcDbBlockTableRecord
  2
*Paper_Space
340
1E
  0
BLOCK_RECORD
  5
23
330
1
100
AcDbSymbolTableRecord
100
AcDbBlockTableRecord
  2
*Paper_Space0
340
26
  0
BLOCK_RECORD
  5
9F
330
1
100
AcDbSymbolTableRecord
100
AcDbBlockTableRecord
  2
*Paper_Space1
340
A0
  0
BLOCK_RECORD
  5
AB
330
1
100
AcDbSymbolTableRecord
100
AcDbBlockTableRecord
  2
*Paper_Space2
340
AC
  0
BLOCK_RECORD
  5
B7
330
1
100
AcDbSymbolTableRecord
100
AcDbBlockTableRecord
  2
*Paper_Space3
340
B8
  0
BLOCK_RECORD
  5
C3
330
1
100
AcDbSymbolTableRecord
100
AcDbBlockTableRecord
  2
*Paper_Space4
340
C4
  0
BLOCK_RECORD
  5
CF
330
1
100
AcDbSymbolTableRecord
100
AcDbBlockTableRecord
  2
*Paper_Space5
340
D0
  0
BLOCK_RECORD
  5
DF
330
1
100
AcDbSymbolTableRecord
100
AcDbBlockTableRecord
  2
*Paper_Space6
340
E0
  0
BLOCK_RECORD
  5
101
330
1
100
AcDbSymbolTableRecord
100
AcDbBlockTableRecord
  2
*Paper_Space7
340
102
  0
BLOCK_RECORD
  5
123
330
1
100
AcDbSymbolTableRecord
100
AcDbBlockTableRecord
  2
*Paper_Space8
340
124
  0
ENDTAB
  0
ENDSEC
  0
SECTION
  2
BLOCKS
  0
BLOCK
  5
20
330
1F
100
AcDbEntity
  8
0
100
AcDbBlockBegin
  2
*Model_Space
 70
     0
 10
0.0
 20
0.0
 30
0.0
  3
*Model_Space
  1

  0
ENDBLK
  5
21
330
1F
100
AcDbEntity
  8
0
100
AcDbBlockEnd
  0
BLOCK
  5
1C
330
1B
100
AcDbEntity
 67
     1
  8
0
100
AcDbBlockBegin
  2
*Paper_Space
 70
     0
 10
0.0
 20
0.0
 30
0.0
  3
*Paper_Space
  1

  0
ENDBLK
  5
1D
330
1B
100
AcDbEntity
 67
     1
  8
0
100
AcDbBlockEnd
  0
BLOCK
  5
24
330
23
100
AcDbEntity
  8
0
100
AcDbBlockBegin
  2
*Paper_Space0
 70
     0
 10
0.0
 20
0.0
 30
0.0
  3
*Paper_Space0
  1

  0
CIRCLE
  5
93
330
23
100
AcDbEntity
  8
0
  6
Continuous
 62
     7
370
    25
100
AcDbCircle
 10
-38.5
 20
22.5
 30
0.0
 40
2.999999999999996
  0
CIRCLE
  5
94
330
23
100
AcDbEntity
  8
0
  6
Continuous
 62
     7
370
    25
100
AcDbCircle
 10
38.5
 20
-22.5
 30
0.0
 40
3.000000000000004
  0
CIRCLE
  5
95
330
23
100
AcDbEntity
  8
0
  6
Continuous
 62
     7
370
    25
100
AcDbCircle
 10
-38.5
 20
-22.5
 30
0.0
 40
3.000000000000004
  0
CIRCLE
  5
96
330
23
100
AcDbEntity
  8
0
  6
Continuous
 62
     7
370
    25
100
AcDbCircle
 10
38.5
 20
22.5
 30
0.0
 40
2.999999999999996
  0
LINE
  5
9B
330
23
100
AcDbEntity
  8
0
  6
Continuous
 62
     7
370
    25
100
AcDbLine
 10
-45.0
 20
-30.0
 30
0.0
 11
45.0
 21
-30.0
 31
0.0
  0
LINE
  5
9C
330
23
100
AcDbEntity
  8
0
  6
Continuous
 62
     7
370
    25
100
AcDbLine
 10
-45.0
 20
30.0
 30
0.0
 11
-45.0
 21
-30.0
 31
0.0
  0
LINE
  5
9D
330
23
100
AcDbEntity
  8
0
  6
Continuous
 62
     7
370
    25
100
AcDbLine
 10
45.0
 20
30.0
 30
0.0
 11
-45.0
 21
30.0
 31
0.0
  0
LINE
  5
9E
330
23
100
AcDbEntity
  8
0
  6
Continuous
 62
     7
370
    25
100
AcDbLine
 10
45.0
 20
-30.0
 30
0.0
 11
45.0
 21
30.0
 31
0.0
  0
VIEWPORT
  5
147
330
23
100
AcDbEntity
  8
0
100
AcDbViewport
 10
0.0
 20
0.0
 30
0.0
 40
205.6
 41
156.0
 68
     1
 69
     1
 12
0.0
 22
0.7071067812
 13
0.0
 23
0.0
 14
10.0
 24
10.0
 15
10.0
 25
10.0
 16
0.0
 26
0.0
 36
1.0
 17
0.0
 27
0.0
 37
0.0
 42
50.0
 43
0.0
 44
0.0
 45
69.6536964981
 50
0.0
 51
0.0
 72
   100
 90
   557152
  1

281
     0
 71
     1
 74
     0
110
0.0
120
0.0
130
0.0
111
1.0
121
0.0
131
0.0
112
0.0
122
1.0
132
0.0
 79
     0
146
0.0
  0
ENDBLK
  5
25
330
23
100
AcDbEntity
  8
0
100
AcDbBlockEnd
  0
BLOCK
  5
A1
330
9F
100
AcDbEntity
  8
0
100
AcDbBlockBegin
  2
*Paper_Space1
 70
     0
 10
0.0
 20
0.0
 30
0.0
  3
*Paper_Space1
  1

  0
LINE
  5
A7
330
9F
100
AcDbEntity
  8
0
  6
Continuous
 62
     7
370
    25
100
AcDbLine
 10
-45.0
 20
2.0
 30
0.0
 11
-45.0
 21
0.0
 31
0.0
  0
LINE
  5
A8
330
9F
100
AcDbEntity
  8
0
  6
Continuous
 62
     7
370
    25
100
AcDbLine
 10
-45.0
 20
2.0
 30
0.0
 11
45.0
 21
2.0
 31
0.0
  0
LINE
  5
A9
330
9F
100
AcDbEntity
  8
0
  6
Continuous
 62
     7
370
    25
100
AcDbLine
 10
-45.0
 20
0.0
 30
0.0
 11
45.0
 21
0.0
 31
0.0
  0
LINE
  5
AA
330
9F
100
AcDbEntity
  8
0
  6
Continuous
 62
     7
370
    25
100
AcDbLine
 10
45.0
 20
2.0
 30
0.0
 11
45.0
 21
0.0
 31
0.0
  0
VIEWPORT
  5
149
330
9F
100
AcDbEntity
  8
0
100
AcDbViewport
 10
0.0
 20
0.0
 30
0.0
 40
205.6
 41
156.0
 68
     1
 69
     1
 12
0.0
 22
0.7071067812
 13
0.0
 23
0.0
 14
10.0
 24
10.0
 15
10.0
 25
10.0
 16
0.0
 26
0.0
 36
1.0
 17
0.0
 27
0.0
 37
0.0
 42
50.0
 43
0.0
 44
0.0
 45
69.6536964981
 50
0.0
 51
0.0
 72
   100
 90
   557152
  1

281
     0
 71
     1
 74
     0
110
0.0
120
0.0
130
0.0
111
1.0
121
0.0
131
0.0
112
0.0
122
1.0
132
0.0
 79
     0
146
0.0
  0
ENDBLK
  5
A2
330
9F
100
AcDbEntity
  8
0
100
AcDbBlockEnd
  0
BLOCK
  5
AD
330
AB
100
AcDbEntity
  8
0
100
AcDbBlockBegin
  2
*Paper_Space2
 70
     0
 10
0.0
 20
0.0
 30
0.0
  3
*Paper_Space2
  1

  0
LINE
  5
B3
330
AB
100
AcDbEntity
  8
0
  6
Continuous
 62
     7
370
    25
100
AcDbLine
 10
-45.0
 20
2.0
 30
0.0
 11
45.0
 21
2.0
 31
0.0
  0
LINE
  5
B4
330
AB
100
AcDbEntity
  8
0
  6
Continuous
 62
     7
370
    25
100
AcDbLine
 10
45.0
 20
2.0
 30
0.0
 11
45.0
 21
0.0
 31
0.0
  0
LINE
  5
B5
330
AB
100
AcDbEntity
  8
0
  6
Continuous
 62
     7
370
    25
100
AcDbLine
 10
-45.0
 20
0.0
 30
0.0
 11
45.0
 21
0.0
 31
0.0
  0
LINE
  5
B6
330
AB
100
AcDbEntity
  8
0
  6
Continuous
 62
     7
370
    25
100
AcDbLine
 10
-45.0
 20
2.0
 30
0.0
 11
-45.0
 21
0.0
 31
0.0
  0
VIEWPORT
  5
14B
330
AB
100
AcDbEntity
  8
0
100
AcDbViewport
 10
0.0
 20
0.0
 30
0.0
 40
205.6
 41
156.0
 68
     1
 69
     1
 12
0.0
 22
0.7071067812
 13
0.0
 23
0.0
 14
10.0
 24
10.0
 15
10.0
 25
10.0
 16
0.0
 26
0.0
 36
1.0
 17
0.0
 27
0.0
 37
0.0
 42
50.0
 43
0.0
 44
0.0
 45
69.6536964981
 50
0.0
 51
0.0
 72
   100
 90
   557152
  1

281
     0
 71
     1
 74
     0
110
0.0
120
0.0
130
0.0
111
1.0
121
0.0
131
0.0
112
0.0
122
1.0
132
0.0
 79
     0
146
0.0
  0
ENDBLK
  5
AE
330
AB
100
AcDbEntity
  8
0
100
AcDbBlockEnd
  0
BLOCK
  5
B9
330
B7
100
AcDbEntity
  8
0
100
AcDbBlockBegin
  2
*Paper_Space3
 70
     0
 10
0.0
 20
0.0
 30
0.0
  3
*Paper_Space3
  1

  0
LINE
  5
BF
330
B7
100
AcDbEntity
  8
0
  6
Continuous
 62
     7
370
    25
100
AcDbLine
 10
-30.0
 20
2.0
 30
0.0
 11
30.0
 21
2.0
 31
0.0
  0
LINE
  5
C0
330
B7
100
AcDbEntity
  8
0
  6
Continuous
 62
     7
370
    25
100
AcDbLine
 10
30.0
 20
2.0
 30
0.0
 11
30.0
 21
0.0
 31
0.0
  0
LINE
  5
C1
330
B7
100
AcDbEntity
  8
0
  6
Continuous
 62
     7
370
    25
100
AcDbLine
 10
-30.0
 20
2.0
 30
0.0
 11
-30.0
 21
0.0
 31
0.0
  0
LINE
  5
C2
330
B7
100
AcDbEntity
  8
0
  6
Continuous
 62
     7
370
    25
100
AcDbLine
 10
-30.0
 20
0.0
 30
0.0
 11
30.0
 21
0.0
 31
0.0
  0
VIEWPORT
  5
14D
330
B7
100
AcDbEntity
  8
0
100
AcDbViewport
 10
0.0
 20
0.0
 30
0.0
 40
205.6
 41
156.0
 68
     1
 69
     1
 12
0.0
 22
0.7071067812
 13
0.0
 23
0.0
 14
10.0
 24
10.0
 15
10.0
 25
10.0
 16
0.0
 26
0.0
 36
1.0
 17
0.0
 27
0.0
 37
0.0
 42
50.0
 43
0.0
 44
0.0
 45
69.6536964981
 50
0.0
 51
0.0
 72
   100
 90
   557152
  1

281
     0
 71
     1
 74
     0
110
0.0
120
0.0
130
0.0
111
1.0
121
0.0
131
0.0
112
0.0
122
1.0
132
0.0
 79
     0
146
0.0
  0
ENDBLK
  5
BA
330
B7
100
AcDbEntity
  8
0
100
AcDbBlockEnd
  0
BLOCK
  5
C5
330
C3
100
AcDbEntity
  8
0
100
AcDbBlockBegin
  2
*Paper_Space4
 70
     0
 10
0.0
 20
0.0
 30
0.0
  3
*Paper_Space4
  1

  0
LINE
  5
CB
330
C3
100
AcDbEntity
  8
0
  6
Continuous
 62
     7
370
    25
100
AcDbLine
 10
-30.0
 20
2.0
 30
0.0
 11
-30.0
 21
0.0
 31
0.0
  0
LINE
  5
CC
330
C3
100
AcDbEntity
  8
0
  6
Continuous
 62
     7
370
    25
100
AcDbLine
 10
-30.0
 20
2.0
 30
0.0
 11
30.0
 21
2.0
 31
0.0
  0
LINE
  5
CD
330
C3
100
AcDbEntity
  8
0
  6
Continuous
 62
     7
370
    25
100
AcDbLine
 10
30.0
 20
2.0
 30
0.0
 11
30.0
 21
0.0
 31
0.0
  0
LINE
  5
CE
330
C3
100
AcDbEntity
  8
0
  6
Continuous
 62
     7
370
    25
100
AcDbLine
 10
-30.0
 20
0.0
 30
0.0
 11
30.0
 21
0.0
 31
0.0
  0
VIEWPORT
  5
14F
330
C3
100
AcDbEntity
  8
0
100
AcDbViewport
 10
0.0
 20
0.0
 30
0.0
 40
205.6
 41
156.0
 68
     1
 69
     1
 12
0.0
 22
0.7071067812
 13
0.0
 23
0.0
 14
10.0
 24
10.0
 15
10.0
 25
10.0
 16
0.0
 26
0.0
 36
1.0
 17
0.0
 27
0.0
 37
0.0
 42
50.0
 43
0.0
 44
0.0
 45
69.6536964981
 50
0.0
 51
0.0
 72
   100
 90
   557152
  1

281
     0
 71
     1
 74
     0
110
0.0
120
0.0
130
0.0
111
1.0
121
0.0
131
0.0
112
0.0
122
1.0
132
0.0
 79
     0
146
0.0
  0
ENDBLK
  5
C6
330
C3
100
AcDbEntity
  8
0
100
AcDbBlockEnd
  0
BLOCK
  5
D1
330
CF
100
AcDbEntity
  8
0
100
AcDbBlockBegin
  2
*Paper_Space5
 70
     0
 10
0.0
 20
0.0
 30
0.0
  3
*Paper_Space5
  1

  0
CIRCLE
  5
D3
330
CF
100
AcDbEntity
  8
0
  6
Continuous
 62
     7
370
    25
100
AcDbCircle
 10
-38.5
 20
-22.5
 30
0.0
 40
2.999999999999996
  0
CIRCLE
  5
D4
330
CF
100
AcDbEntity
  8
0
  6
Continuous
 62
     7
370
    25
100
AcDbCircle
 10
38.5
 20
22.5
 30
0.0
 40
3.000000000000004
  0
CIRCLE
  5
D5
330
CF
100
AcDbEntity
  8
0
  6
Continuous
 62
     7
370
    25
100
AcDbCircle
 10
-38.5
 20
22.5
 30
0.0
 40
3.000000000000004
  0
CIRCLE
  5
D6
330
CF
100
AcDbEntity
  8
0
  6
Continuous
 62
     7
370
    25
100
AcDbCircle
 10
38.5
 20
-22.5
 30
0.0
 40
2.999999999999996
  0
LINE
  5
DB
330
CF
100
AcDbEntity
  8
0
  6
Continuous
 62
     7
370
    25
100
AcDbLine
 10
-45.0
 20
30.0
 30
0.0
 11
45.0
 21
30.0
 31
0.0
  0
LINE
  5
DC
330
CF
100
AcDbEntity
  8
0
  6
Continuous
 62
     7
370
    25
100
AcDbLine
 10
-45.0
 20
-30.0
 30
0.0
 11
-45.0
 21
30.0
 31
0.0
  0
LINE
  5
DD
330
CF
100
AcDbEntity
  8
0
  6
Continuous
 62
     7
370
    25
100
AcDbLine
 10
45.0
 20
-30.0
 30
0.0
 11
-45.0
 21
-30.0
 31
0.0
  0
LINE
  5
DE
330
CF
100
AcDbEntity
  8
0
  6
Continuous
 62
     7
370
    25
100
AcDbLine
 10
45.0
 20
30.0
 30
0.0
 11
45.0
 21
-30.0
 31
0.0
  0
VIEWPORT
  5
151
330
CF
100
AcDbEntity
  8
0
100
AcDbViewport
 10
0.0
 20
0.0
 30
0.0
 40
205.6
 41
156.0
 68
     1
 69
     1
 12
0.0
 22
0.7071067812
 13
0.0
 23
0.0
 14
10.0
 24
10.0
 15
10.0
 25
10.0
 16
0.0
 26
0.0
 36
1.0
 17
0.0
 27
0.0
 37
0.0
 42
50.0
 43
0.0
 44
0.0
 45
69.6536964981
 50
0.0
 51
0.0
 72
   100
 90
   557152
  1

281
     0
 71
     1
 74
     0
110
0.0
120
0.0
130
0.0
111
1.0
121
0.0
131
0.0
112
0.0
122
1.0
132
0.0
 79
     0
146
0.0
  0
ENDBLK
  5
D2
330
CF
100
AcDbEntity
  8
0
100
AcDbBlockEnd
  0
BLOCK
  5
E1
330
DF
100
AcDbEntity
  8
0
100
AcDbBlockBegin
  2
*Paper_Space6
 70
     0
 10
0.0
 20
0.0
 30
0.0
  3
*Paper_Space6
  1

  0
LWPOLYLINE
  5
EC
330
DF
100
AcDbEntity
  8
0
  6
Continuous
 62
     7
370
    25
100
AcDbPolyline
 90
       41
 70
   128
 43
0.0
 10
-13.4350288425
 20
25.3089168666
 10
-13.0770642559
 20
25.1324223252
 10
-12.6756799982
 20
24.990427681
 10
-12.2407594821
 20
24.8864293133
 10
-11.7830118941
 20
24.8229880072
 10
-11.313708499
 20
24.8016658981
 10
-10.8444051039
 20
24.8229880072
 10
-10.3866575159
 20
24.8864293133
 10
-9.9517369998
 20
24.990427681
 10
-9.5503527421
 20
25.1324223252
 10
-9.1923881554
 20
25.3089168666
 10
-8.8866575159
 20
25.5155654239
 10
-8.6406889264
 20
25.7472796237
 10
-8.4605389501
 20
25.9983538933
 10
-8.3506434772
 20
26.2626059511
 10
-8.313708499
 20
26.5335290344
 10
-8.3506434772
 20
26.8044521176
 10
-8.4605389501
 20
27.0687041754
 10
-8.6406889264
 20
27.3197784451
 10
-8.8866575159
 20
27.5514926448
 10
-9.1923881554
 20
27.7581412021
 10
-9.5503527421
 20
27.9346357435
 10
-9.9517369998
 20
28.0766303878
 10
-10.3866575159
 20
28.1806287554
 10
-10.8444051039
 20
28.2440700616
 10
-11.313708499
 20
28.2653921706
 10
-11.7830118941
 20
28.2440700616
 10
-12.2407594821
 20
28.1806287554
 10
-12.6756799982
 20
28.0766303878
 10
-13.0770642559
 20
27.9346357435
 10
-13.4350288425
 20
27.7581412021
 10
-13.7407594821
 20
27.5514926448
 10
-13.9867280715
 20
27.3197784451
 10
-14.1668780479
 20
27.0687041754
 10
-14.2767735208
 20
26.8044521176
 10
-14.313708499
 20
26.5335290344
 10
-14.2767735208
 20
26.2626059511
 10
-14.1668780479
 20
25.9983538933
 10
-13.9867280715
 20
25.7472796237
 10
-13.7407594821
 20
25.5155654239
 10
-13.4350288425
 20
25.3089168666
  0
LWPOLYLINE
  5
ED
330
DF
100
AcDbEntity
  8
0
  6
Continuous
 62
     7
370
    25
100
AcDbPolyline
 90
       41
 70
   128
 43
0.0
 10
9.1923881554
 20
-24.4919779546
 10
9.5503527421
 20
-24.668472496
 10
9.9517369998
 20
-24.8104671402
 10
10.3866575159
 20
-24.9144655079
 10
10.8444051039
 20
-24.977906814
 10
11.313708499
 20
-24.9992289231
 10
11.7830118941
 20
-24.977906814
 10
12.2407594821
 20
-24.9144655079
 10
12.6756799982
 20
-24.8104671402
 10
13.0770642559
 20
-24.668472496
 10
13.4350288425
 20
-24.4919779546
 10
13.7407594821
 20
-24.2853293973
 10
13.9867280716
 20
-24.0536151975
 10
14.1668780479
 20
-23.8025409279
 10
14.2767735208
 20
-23.5382888701
 10
14.313708499
 20
-23.2673657868
 10
14.2767735208
 20
-22.9964427036
 10
14.1668780479
 20
-22.7321906458
 10
13.9867280716
 20
-22.4811163761
 10
13.7407594821
 20
-22.2494021763
 10
13.4350288425
 20
-22.0427536191
 10
13.0770642559
 20
-21.8662590777
 10
12.6756799982
 20
-21.7242644334
 10
12.2407594821
 20
-21.6202660658
 10
11.7830118941
 20
-21.5568247596
 10
11.313708499
 20
-21.5355026506
 10
10.8444051039
 20
-21.5568247596
 10
10.3866575159
 20
-21.6202660658
 10
9.9517369998
 20
-21.7242644334
 10
9.5503527421
 20
-21.8662590777
 10
9.1923881554
 20
-22.0427536191
 10
8.8866575159
 20
-22.2494021763
 10
8.6406889264
 20
-22.4811163761
 10
8.4605389501
 20
-22.7321906458
 10
8.3506434772
 20
-22.9964427036
 10
8.313708499
 20
-23.2673657868
 10
8.3506434772
 20
-23.5382888701
 10
8.4605389501
 20
-23.8025409279
 10
8.6406889264
 20
-24.0536151975
 10
8.8866575159
 20
-24.2853293973
 10
9.1923881554
 20
-24.4919779546
  0
LWPOLYLINE
  5
EE
330
DF
100
AcDbEntity
  8
0
  6
Continuous
 62
     7
370
    25
100
AcDbPolyline
 90
       41
 70
   128
 43
0.0
 10
-45.2548339959
 20
6.9397343506
 10
-44.8968694093
 20
6.7632398092
 10
-44.4954851516
 20
6.6212451649
 10
-44.0605646355
 20
6.5172467973
 10
-43.6028170475
 20
6.4538054912
 10
-43.1335136524
 20
6.4324833821
 10
-42.6642102573
 20
6.4538054912
 10
-42.2064626693
 20
6.5172467973
 10
-41.7715421532
 20
6.6212451649
 10
-41.3701578955
 20
6.7632398092
 10
-41.0121933088
 20
6.9397343506
 10
-40.7064626693
 20
7.1463829079
 10
-40.4604940798
 20
7.3780971076
 10
-40.2803441035
 20
7.6291713773
 10
-40.1704486306
 20
7.8934234351
 10
-40.1335136524
 20
8.1643465184
 10
-40.1704486306
 20
8.4352696016
 10
-40.2803441035
 20
8.6995216594
 10
-40.4604940798
 20
8.9505959291
 10
-40.7064626693
 20
9.1823101288
 10
-41.0121933088
 20
9.3889586861
 10
-41.3701578955
 20
9.5654532275
 10
-41.7715421532
 20
9.7074478718
 10
-42.2064626693
 20
9.8114462394
 10
-42.6642102573
 20
9.8748875455
 10
-43.1335136524
 20
9.8962096546
 10
-43.6028170475
 20
9.8748875455
 10
-44.0605646355
 20
9.8114462394
 10
-44.4954851516
 20
9.7074478718
 10
-44.8968694093
 20
9.5654532275
 10
-45.2548339959
 20
9.3889586861
 10
-45.5605646355
 20
9.1823101288
 10
-45.8065332249
 20
8.9505959291
 10
-45.9866832013
 20
8.6995216594
 10
-46.0965786742
 20
8.4352696016
 10
-46.1335136524
 20
8.1643465184
 10
-46.0965786742
 20
7.8934234351
 10
-45.9866832013
 20
7.6291713773
 10
-45.8065332249
 20
7.3780971076
 10
-45.5605646355
 20
7.1463829079
 10
-45.2548339959
 20
6.9397343506
  0
LWPOLYLINE
  5
EF
330
DF
100
AcDbEntity
  8
0
  6
Continuous
 62
     7
370
    25
100
AcDbPolyline
 90
       41
 70
   128
 43
0.0
 10
41.0121933088
 20
-6.1227954385
 10
41.3701578955
 20
-6.29928998
 10
41.7715421532
 20
-6.4412846242
 10
42.2064626693
 20
-6.5452829919
 10
42.6642102573
 20
-6.608724298
 10
43.1335136524
 20
-6.6300464071
 10
43.6028170475
 20
-6.608724298
 10
44.0605646355
 20
-6.5452829919
 10
44.4954851516
 20
-6.4412846242
 10
44.8968694093
 20
-6.29928998
 10
45.2548339959
 20
-6.1227954385
 10
45.5605646355
 20
-5.9161468813
 10
45.8065332249
 20
-5.6844326815
 10
45.9866832013
 20
-5.4333584118
 10
46.0965786742
 20
-5.1691063541
 10
46.1335136524
 20
-4.8981832708
 10
46.0965786742
 20
-4.6272601876
 10
45.9866832013
 20
-4.3630081298
 10
45.8065332249
 20
-4.1119338601
 10
45.5605646355
 20
-3.8802196603
 10
45.2548339959
 20
-3.6735711031
 10
44.8968694093
 20
-3.4970765616
 10
44.4954851516
 20
-3.3550819174
 10
44.0605646355
 20
-3.2510835497
 10
43.6028170475
 20
-3.1876422436
 10
43.1335136524
 20
-3.1663201346
 10
42.6642102573
 20
-3.1876422436
 10
42.2064626693
 20
-3.2510835497
 10
41.7715421532
 20
-3.3550819174
 10
41.3701578955
 20
-3.4970765616
 10
41.0121933088
 20
-3.6735711031
 10
40.7064626693
 20
-3.8802196603
 10
40.4604940798
 20
-4.1119338601
 10
40.2803441035
 20
-4.3630081298
 10
40.1704486306
 20
-4.6272601876
 10
40.1335136524
 20
-4.8981832708
 10
40.1704486306
 20
-5.1691063541
 10
40.2803441035
 20
-5.4333584118
 10
40.4604940798
 20
-5.6844326815
 10
40.7064626693
 20
-5.9161468813
 10
41.0121933088
 20
-6.1227954385
  0
LINE
  5
F4
330
DF
100
AcDbEntity
  8
0
  6
Continuous
 62
     7
370
    25
100
AcDbLine
 10
10.6066017178
 20
-28.9822225696
 30
0.0
 11
10.6066017178
 21
-30.6153041934
 31
0.0
  0
LINE
  5
F5
330
DF
100
AcDbEntity
  8
0
  6
Continuous
 62
     7
370
    25
100
AcDbLine
 10
10.6066017178
 20
-28.9822225696
 30
0.0
 11
53.033008589
 21
-4.4899792149
 31
0.0
  0
LINE
  5
F6
330
DF
100
AcDbEntity
  8
0
  6
Continuous
 62
     7
370
    25
100
AcDbLine
 10
53.033008589
 20
-4.4899792149
 30
0.0
 11
53.033008589
 21
-6.1230608387
 31
0.0
  0
LINE
  5
F7
330
DF
100
AcDbEntity
  8
0
  6
Continuous
 62
     7
370
    25
100
AcDbLine
 10
10.6066017178
 20
-30.6153041934
 30
0.0
 11
53.033008589
 21
-6.1230608387
 31
0.0
  0
LINE
  5
F8
330
DF
100
AcDbEntity
  8
0
  6
Continuous
 62
     7
370
    25
100
AcDbLine
 10
-53.033008589
 20
7.7561424624
 30
0.0
 11
-53.033008589
 21
6.1230608387
 31
0.0
  0
LINE
  5
F9
330
DF
100
AcDbEntity
  8
0
  6
Continuous
 62
     7
370
    25
100
AcDbLine
 10
-53.033008589
 20
7.7561424624
 30
0.0
 11
10.6066017178
 21
-28.9822225696
 31
0.0
  0
LINE
  5
FA
330
DF
100
AcDbEntity
  8
0
  6
Continuous
 62
     7
370
    25
100
AcDbLine
 10
-53.033008589
 20
6.1230608387
 30
0.0
 11
10.6066017178
 21
-30.6153041934
 31
0.0
  0
LINE
  5
FB
330
DF
100
AcDbEntity
  8
0
  6
Continuous
 62
     7
370
    25
100
AcDbLine
 10
-10.6066017178
 20
32.2483858171
 30
0.0
 11
-53.033008589
 21
7.7561424624
 31
0.0
  0
LINE
  5
FC
330
DF
100
AcDbEntity
  8
0
  6
Continuous
 62
     7
370
    25
100
AcDbLine
 10
53.033008589
 20
-4.4899792149
 30
0.0
 11
-10.6066017178
 21
32.2483858171
 31
0.0
  0
ARC
  5
FD
330
DF
100
AcDbEntity
  8
0
  6
Continuous
 62
     7
370
    25
100
AcDbCircle
 10
11.313708499
 20
-27.2291038953
 30
0.0
 40
4.109941096483928
100
AcDbArc
 50
49.9306431598
 51
130.0693568402
  0
ARC
  5
FE
330
DF
100
AcDbEntity
  8
0
  6
Continuous
 62
     7
370
    25
100
AcDbCircle
 10
43.1335136524
 20
-8.8599213793
 30
0.0
 40
4.10994109648391
100
AcDbArc
 50
49.9306431598
 51
130.0693568402
  0
ARC
  5
FF
330
DF
100
AcDbEntity
  8
0
  6
Continuous
 62
     7
370
    25
100
AcDbCircle
 10
-43.1335136524
 20
4.2026084098
 30
0.0
 40
4.109941096483959
100
AcDbArc
 50
49.9306431598
 51
130.0693568402
  0
ARC
  5
100
330
DF
100
AcDbEntity
  8
0
  6
Continuous
 62
     7
370
    25
100
AcDbCircle
 10
-11.313708499
 20
22.5717909258
 30
0.0
 40
4.109941096483878
100
AcDbArc
 50
49.9306431598
 51
130.0693568402
  0
VIEWPORT
  5
153
330
DF
100
AcDbEntity
  8
0
100
AcDbViewport
 10
0.0
 20
0.0
 30
0.0
 40
205.6
 41
156.0
 68
     1
 69
     1
 12
0.0
 22
0.7071067812
 13
0.0
 23
0.0
 14
10.0
 24
10.0
 15
10.0
 25
10.0
 16
0.0
 26
0.0
 36
1.0
 17
0.0
 27
0.0
 37
0.0
 42
50.0
 43
0.0
 44
0.0
 45
69.6536964981
 50
0.0
 51
0.0
 72
   100
 90
   557152
  1

281
     0
 71
     1
 74
     0
110
0.0
120
0.0
130
0.0
111
1.0
121
0.0
131
0.0
112
0.0
122
1.0
132
0.0
 79
     0
146
0.0
  0
ENDBLK
  5
E2
330
DF
100
AcDbEntity
  8
0
100
AcDbBlockEnd
  0
BLOCK
  5
103
330
101
100
AcDbEntity
  8
0
100
AcDbBlockBegin
  2
*Paper_Space7
 70
     0
 10
0.0
 20
0.0
 30
0.0
  3
*Paper_Space7
  1

  0
LWPOLYLINE
  5
10E
330
101
100
AcDbEntity
  8
0
  6
Continuous
 62
     7
370
    25
100
AcDbPolyline
 90
       41
 70
   128
 43
0.0
 10
-24.9495376004
 20
19.8508471794
 10
-24.5172397892
 20
19.7548668642
 10
-24.0611118168
 20
19.6948983334
 10
-23.5923850676
 20
19.6724182112
 10
-23.1226011498
 20
19.6879800329
 10
-22.6633277027
 20
19.7412006147
 10
-22.2258735627
 20
19.8307694894
 10
-21.8210103026
 20
19.9544811739
 10
-21.4587069995
 20
20.1092894759
 10
-21.1478847632
 20
20.2913825015
 10
-20.8961970686
 20
20.4962765158
 10
-20.7098413022
 20
20.7189263483
 10
-20.5934061613
 20
20.9538496211
 10
-20.5497586655
 20
21.1952617437
 10
-20.5799735612
 20
21.4372183483
 10
-20.6833068571
 20
21.6737616603
 10
-20.8572141448
 20
21.8990671985
 10
-21.0974132495
 20
22.1075871926
 10
-21.3979896722
 20
22.2941871883
 10
-21.7515422237
 20
22.4542724746
 10
-22.1493652669
 20
22.5839012202
 10
-22.5816630781
 20
22.6798815354
 10
-23.0377910505
 20
22.7398500663
 10
-23.5065177997
 20
22.7623301884
 10
-23.9763017175
 20
22.7467683668
 10
-24.4355751646
 20
22.6935477849
 10
-24.8730293046
 20
22.6039789103
 10
-25.2778925647
 20
22.4802672258
 10
-25.6401958678
 20
22.3254589237
 10
-25.9510181041
 20
22.1433658982
 10
-26.2027057987
 20
21.9384718839
 10
-26.3890615651
 20
21.7158220514
 10
-26.505496706
 20
21.4808987786
 10
-26.5491442018
 20
21.239486656
 10
-26.5189293061
 20
20.9975300514
 10
-26.4155960102
 20
20.7609867393
 10
-26.2416887225
 20
20.5356812012
 10
-26.0014896178
 20
20.3271612071
 10
-25.7009131951
 20
20.1405612114
 10
-25.3473606436
 20
19.9804759251
 10
-24.9495376004
 20
19.8508471794
  0
LWPOLYLINE
  5
10F
330
101
100
AcDbEntity
  8
0
  6
Continuous
 62
     7
370
    25
100
AcDbPolyline
 90
       41
 70
   128
 43
0.0
 10
22.1493652669
 20
-19.1552320174
 10
22.5816630781
 20
-19.2512123326
 10
23.0377910505
 20
-19.3111808635
 10
23.5065177997
 20
-19.3336609856
 10
23.9763017175
 20
-19.318099164
 10
24.4355751646
 20
-19.2648785821
 10
24.8730293046
 20
-19.1753097075
 10
25.2778925647
 20
-19.051598023
 10
25.6401958678
 20
-18.8967897209
 10
25.9510181041
 20
-18.7146966954
 10
26.2027057987
 20
-18.5098026811
 10
26.3890615651
 20
-18.2871528486
 10
26.505496706
 20
-18.0522295757
 10
26.5491442018
 20
-17.8108174532
 10
26.5189293061
 20
-17.5688608486
 10
26.4155960102
 20
-17.3323175365
 10
26.2416887225
 20
-17.1070119984
 10
26.0014896178
 20
-16.8984920043
 10
25.7009131951
 20
-16.7118920085
 10
25.3473606436
 20
-16.5518067223
 10
24.9495376004
 20
-16.4221779766
 10
24.5172397892
 20
-16.3261976614
 10
24.0611118168
 20
-16.2662291306
 10
23.5923850676
 20
-16.2437490084
 10
23.1226011498
 20
-16.2593108301
 10
22.6633277027
 20
-16.3125314119
 10
22.2258735627
 20
-16.4021002866
 10
21.8210103026
 20
-16.5258119711
 10
21.4587069995
 20
-16.6806202731
 10
21.1478847632
 20
-16.8627132987
 10
20.8961970686
 20
-17.067607313
 10
20.7098413022
 20
-17.2902571455
 10
20.5934061613
 20
-17.5251804183
 10
20.5497586655
 20
-17.7665925409
 10
20.5799735612
 20
-18.0085491455
 10
20.6833068571
 20
-18.2450924575
 10
20.8572141448
 20
-18.4703979957
 10
21.0974132495
 20
-18.6789179897
 10
21.3979896722
 20
-18.8655179855
 10
21.7515422237
 20
-19.0256032717
 10
22.1493652669
 20
-19.1552320174
  0
LWPOLYLINE
  5
110
330
101
100
AcDbEntity
  8
0
  6
Continuous
 62
     7
370
    25
100
AcDbPolyline
 90
       41
 70
   128
 43
0.0
 10
-45.9508301023
 20
-0.6470581268
 10
-45.5185322911
 20
-0.743038442
 10
-45.0624043186
 20
-0.8030069728
 10
-44.5936775694
 20
-0.825487095
 10
-44.1238936517
 20
-0.8099252733
 10
-43.6646202046
 20
-0.7567046915
 10
-43.2271660646
 20
-0.6671358168
 10
-42.8223028045
 20
-0.5434241323
 10
-42.4599995014
 20
-0.3886158302
 10
-42.149177265
 20
-0.2065228047
 10
-41.8974895705
 20
-0.0016287904
 10
-41.711133804
 20
0.2210210421
 10
-41.5946986631
 20
0.4559443149
 10
-41.5510511674
 20
0.6973564375
 10
-41.581266063
 20
0.9393130421
 10
-41.684599359
 20
1.1758563542
 10
-41.8585066466
 20
1.4011618923
 10
-42.0987057514
 20
1.6096818864
 10
-42.399282174
 20
1.7962818821
 10
-42.7528347255
 20
1.9563671684
 10
-43.1506577687
 20
2.0859959141
 10
-43.5829555799
 20
2.1819762293
 10
-44.0390835524
 20
2.2419447601
 10
-44.5078103016
 20
2.2644248823
 10
-44.9775942193
 20
2.2488630606
 10
-45.4368676665
 20
2.1956424787
 10
-45.8743218064
 20
2.1060736041
 10
-46.2791850665
 20
1.9823619196
 10
-46.6414883696
 20
1.8275536175
 10
-46.952310606
 20
1.645460592
 10
-47.2039983005
 20
1.4405665777
 10
-47.390354067
 20
1.2179167452
 10
-47.5067892079
 20
0.9829934724
 10
-47.5504367036
 20
0.7415813498
 10
-47.520221808
 20
0.4996247452
 10
-47.416888512
 20
0.2630814331
 10
-47.2429812244
 20
0.037775895
 10
-47.0027821197
 20
-0.1707440991
 10
-46.702205697
 20
-0.3573440948
 10
-46.3486531455
 20
-0.5174293811
 10
-45.9508301023
 20
-0.6470581268
  0
LWPOLYLINE
  5
111
330
101
100
AcDbEntity
  8
0
  6
Continuous
 62
     7
370
    25
100
AcDbPolyline
 90
       41
 70
   128
 43
0.0
 10
43.1506577687
 20
1.3426732888
 10
43.5829555799
 20
1.2466929736
 10
44.0390835524
 20
1.1867244427
 10
44.5078103016
 20
1.1642443206
 10
44.9775942193
 20
1.1798061422
 10
45.4368676665
 20
1.2330267241
 10
45.8743218064
 20
1.3225955987
 10
46.2791850665
 20
1.4463072832
 10
46.6414883696
 20
1.6011155853
 10
46.952310606
 20
1.7832086108
 10
47.2039983005
 20
1.9881026251
 10
47.390354067
 20
2.2107524576
 10
47.5067892079
 20
2.4456757304
 10
47.5504367036
 20
2.687087853
 10
47.520221808
 20
2.9290444576
 10
47.416888512
 20
3.1655877697
 10
47.2429812244
 20
3.3908933078
 10
47.0027821197
 20
3.5994133019
 10
46.702205697
 20
3.7860132977
 10
46.3486531455
 20
3.9460985839
 10
45.9508301023
 20
4.0757273296
 10
45.5185322911
 20
4.1717076448
 10
45.0624043186
 20
4.2316761756
 10
44.5936775694
 20
4.2541562978
 10
44.1238936517
 20
4.2385944761
 10
43.6646202046
 20
4.1853738943
 10
43.2271660646
 20
4.0958050196
 10
42.8223028045
 20
3.9720933351
 10
42.4599995014
 20
3.8172850331
 10
42.149177265
 20
3.6351920075
 10
41.8974895705
 20
3.4302979932
 10
41.711133804
 20
3.2076481607
 10
41.5946986631
 20
2.9727248879
 10
41.5510511674
 20
2.7313127653
 10
41.581266063
 20
2.4893561607
 10
41.684599359
 20
2.2528128487
 10
41.8585066466
 20
2.0275073105
 10
42.0987057514
 20
1.8189873164
 10
42.399282174
 20
1.6323873207
 10
42.7528347255
 20
1.4723020344
 10
43.1506577687
 20
1.3426732888
  0
LINE
  5
116
330
101
100
AcDbEntity
  8
0
  6
Continuous
 62
     7
370
    25
100
AcDbLine
 10
25.7979538076
 20
-22.7674008635
 30
0.0
 11
25.7979538076
 21
-24.4817354649
 31
0.0
  0
LINE
  5
117
330
101
100
AcDbEntity
  8
0
  6
Continuous
 62
     7
370
    25
100
AcDbLine
 10
25.7979538076
 20
-22.7674008635
 30
0.0
 11
53.7996771434
 21
4.5631395448
 31
0.0
  0
LINE
  5
118
330
101
100
AcDbEntity
  8
0
  6
Continuous
 62
     7
370
    25
100
AcDbLine
 10
53.7996771434
 20
4.5631395448
 30
0.0
 11
53.7996771434
 21
2.8488049434
 31
0.0
  0
LINE
  5
119
330
101
100
AcDbEntity
  8
0
  6
Continuous
 62
     7
370
    25
100
AcDbLine
 10
25.7979538076
 20
-24.4817354649
 30
0.0
 11
53.7996771434
 21
2.8488049434
 31
0.0
  0
LINE
  5
11A
330
101
100
AcDbEntity
  8
0
  6
Continuous
 62
     7
370
    25
100
AcDbLine
 10
-53.7996771434
 20
-1.1344703419
 30
0.0
 11
-53.7996771434
 21
-2.8488049434
 31
0.0
  0
LINE
  5
11B
330
101
100
AcDbEntity
  8
0
  6
Continuous
 62
     7
370
    25
100
AcDbLine
 10
-53.7996771434
 20
-1.1344703419
 30
0.0
 11
25.7979538076
 21
-22.7674008635
 31
0.0
  0
LINE
  5
11C
330
101
100
AcDbEntity
  8
0
  6
Continuous
 62
     7
370
    25
100
AcDbLine
 10
-53.7996771434
 20
-2.8488049434
 30
0.0
 11
25.7979538076
 21
-24.4817354649
 31
0.0
  0
LINE
  5
11D
330
101
100
AcDbEntity
  8
0
  6
Continuous
 62
     7
370
    25
100
AcDbLine
 10
-25.7979538076
 20
26.1960700663
 30
0.0
 11
-53.7996771434
 21
-1.1344703419
 31
0.0
  0
LINE
  5
11E
330
101
100
AcDbEntity
  8
0
  6
Continuous
 62
     7
370
    25
100
AcDbLine
 10
53.7996771434
 20
4.5631395448
 30
0.0
 11
-25.7979538076
 21
26.1960700663
 31
0.0
  0
ARC
  5
11F
330
101
100
AcDbEntity
  8
0
  6
Continuous
 62
     7
370
    25
100
AcDbCircle
 10
23.5494514337
 20
-22.5573496527
 30
0.0
 40
4.640024666197632
100
AcDbArc
 50
57.4568251565
 51
122.5431748435
  0
ARC
  5
120
330
101
100
AcDbEntity
  8
0
  6
Continuous
 62
     7
370
    25
100
AcDbCircle
 10
-44.5507439355
 20
-4.049175762
 30
0.0
 40
4.640024666197685
100
AcDbArc
 50
57.4568251565
 51
122.5431748435
  0
ARC
  5
121
330
101
100
AcDbEntity
  8
0
  6
Continuous
 62
     7
370
    25
100
AcDbCircle
 10
44.5507439355
 20
-2.0594443465
 30
0.0
 40
4.640024666197784
100
AcDbArc
 50
57.4568251565
 51
122.5431748435
  0
ARC
  5
122
330
101
100
AcDbEntity
  8
0
  6
Continuous
 62
     7
370
    25
100
AcDbCircle
 10
-23.5494514337
 20
16.4487295442
 30
0.0
 40
4.640024666197705
100
AcDbArc
 50
57.4568251565
 51
122.5431748435
  0
VIEWPORT
  5
155
330
101
100
AcDbEntity
  8
0
100
AcDbViewport
 10
0.0
 20
0.0
 30
0.0
 40
205.6
 41
156.0
 68
     1
 69
     1
 12
0.0
 22
0.7071067812
 13
0.0
 23
0.0
 14
10.0
 24
10.0
 15
10.0
 25
10.0
 16
0.0
 26
0.0
 36
1.0
 17
0.0
 27
0.0
 37
0.0
 42
50.0
 43
0.0
 44
0.0
 45
69.6536964981
 50
0.0
 51
0.0
 72
   100
 90
   557152
  1

281
     0
 71
     1
 74
     0
110
0.0
120
0.0
130
0.0
111
1.0
121
0.0
131
0.0
112
0.0
122
1.0
132
0.0
 79
     0
146
0.0
  0
ENDBLK
  5
104
330
101
100
AcDbEntity
  8
0
100
AcDbBlockEnd
  0
BLOCK
  5
125
330
123
100
AcDbEntity
  8
0
100
AcDbBlockBegin
  2
*Paper_Space8
 70
     0
 10
0.0
 20
0.0
 30
0.0
  3
*Paper_Space8
  1

  0
LWPOLYLINE
  5
130
330
123
100
AcDbEntity
  8
0
  6
Continuous
 62
     7
370
    25
100
AcDbPolyline
 90
       41
 70
   128
 43
0.0
 10
-29.1191612339
 20
12.503079846
 10
-28.6671096184
 20
12.4592884133
 10
-28.2000720403
 20
12.4396082767
 10
-27.7295485149
 20
12.4445240265
 10
-27.267124893
 20
12.4739146206
 10
-26.8241875788
 20
12.527056365
 10
-26.411643159
 20
12.6026407335
 10
-26.0396498464
 20
12.6988065883
 10
-25.717367351
 20
12.8131860068
 10
-25.4527313372
 20
12.9429625881
 10
-25.2522580222
 20
13.084940802
 10
-25.1208837242
 20
13.2356246739
 10
-25.0618433144
 20
13.3913038665
 10
-25.0765905638
 20
13.5481450416
 10
-25.164762346
 20
13.7022862489
 10
-25.3241875792
 20
13.8499320202
 10
-25.550940685
 20
13.9874468268
 10
-25.8394382494
 20
14.1114445976
 10
-26.1825765049
 20
14.2188720961
 10
-26.5719062488
 20
14.3070841006
 10
-26.9978408908
 20
14.373908539
 10
-27.4498925064
 20
14.4176999716
 10
-27.9169300844
 20
14.4373801082
 10
-28.3874536098
 20
14.4324643584
 10
-28.8498772317
 20
14.4030737644
 10
-29.2928145459
 20
14.34993202
 10
-29.7053589657
 20
14.2743476514
 10
-30.0773522783
 20
14.1781817966
 10
-30.3996347738
 20
14.0638023782
 10
-30.6642707875
 20
13.9340257969
 10
-30.8647441025
 20
13.7920475829
 10
-30.9961184005
 20
13.6413637111
 10
-31.0551588103
 20
13.4856845184
 10
-31.0404115609
 20
13.3288433434
 10
-30.9522397787
 20
13.1747021361
 10
-30.7928145455
 20
13.0270563647
 10
-30.5660614397
 20
12.8895415582
 10
-30.2775638753
 20
12.7655437873
 10
-29.9344256198
 20
12.6581162889
 10
-29.5450958759
 20
12.5699042843
 10
-29.1191612339
 20
12.503079846
  0
LWPOLYLINE
  5
131
330
123
100
AcDbEntity
  8
0
  6
Continuous
 62
     7
370
    25
100
AcDbPolyline
 90
       41
 70
   128
 43
0.0
 10
26.9978408908
 20
-10.6026723725
 10
27.4498925064
 20
-10.6464638052
 10
27.9169300844
 20
-10.6661439418
 10
28.3874536098
 20
-10.661228192
 10
28.8498772317
 20
-10.6318375979
 10
29.2928145459
 20
-10.5786958535
 10
29.7053589657
 20
-10.503111485
 10
30.0773522783
 20
-10.4069456302
 10
30.3996347738
 20
-10.2925662117
 10
30.6642707875
 20
-10.1627896304
 10
30.8647441025
 20
-10.0208114165
 10
30.9961184005
 20
-9.8701275447
 10
31.0551588103
 20
-9.714448352
 10
31.0404115609
 20
-9.5576071769
 10
30.9522397787
 20
-9.4034659697
 10
30.7928145455
 20
-9.2558201983
 10
30.5660614397
 20
-9.1183053917
 10
30.2775638753
 20
-8.9943076209
 10
29.9344256198
 20
-8.8868801224
 10
29.5450958759
 20
-8.7986681179
 10
29.1191612339
 20
-8.7318436795
 10
28.6671096184
 20
-8.6880522469
 10
28.2000720403
 20
-8.6683721103
 10
27.7295485149
 20
-8.6732878601
 10
27.267124893
 20
-8.7026784541
 10
26.8241875788
 20
-8.7558201985
 10
26.411643159
 20
-8.8314045671
 10
26.0396498464
 20
-8.9275704219
 10
25.717367351
 20
-9.0419498404
 10
25.4527313372
 20
-9.1717264216
 10
25.2522580222
 20
-9.3137046356
 10
25.1208837242
 20
-9.4643885074
 10
25.0618433144
 20
-9.6200677001
 10
25.0765905638
 20
-9.7769088751
 10
25.164762346
 20
-9.9310500824
 10
25.3241875792
 20
-10.0786958538
 10
25.550940685
 20
-10.2162106603
 10
25.8394382494
 20
-10.3402084312
 10
26.1825765049
 20
-10.4476359297
 10
26.5719062488
 20
-10.5358479342
 10
26.9978408908
 20
-10.6026723725
  0
LWPOLYLINE
  5
132
330
123
100
AcDbEntity
  8
0
  6
Continuous
 62
     7
370
    25
100
AcDbPolyline
 90
       41
 70
   128
 43
0.0
 10
-45.0290638069
 20
-1.5281353516
 10
-44.5770121914
 20
-1.5719267842
 10
-44.1099746134
 20
-1.5916069208
 10
-43.639451088
 20
-1.586691171
 10
-43.1770274661
 20
-1.5573005769
 10
-42.7340901519
 20
-1.5041588326
 10
-42.3215457321
 20
-1.428574464
 10
-41.9495524195
 20
-1.3324086092
 10
-41.627269924
 20
-1.2180291907
 10
-41.3626339103
 20
-1.0882526094
 10
-41.1621605952
 20
-0.9462743955
 10
-41.0307862972
 20
-0.7955905237
 10
-40.9717458875
 20
-0.639911331
 10
-40.9864931368
 20
-0.4830701559
 10
-41.074664919
 20
-0.3289289487
 10
-41.2340901522
 20
-0.1812831773
 10
-41.460843258
 20
-0.0437683707
 10
-41.7493408224
 20
0.0802294001
 10
-42.0924790779
 20
0.1876568986
 10
-42.4818088219
 20
0.2758689031
 10
-42.9077434639
 20
0.3426933415
 10
-43.3597950794
 20
0.3864847741
 10
-43.8268326574
 20
0.4061649107
 10
-44.2973561828
 20
0.4012491609
 10
-44.7597798047
 20
0.3718585668
 10
-45.2027171189
 20
0.3187168225
 10
-45.6152615387
 20
0.2431324539
 10
-45.9872548513
 20
0.1469665991
 10
-46.3095373468
 20
0.0325871806
 10
-46.5741733605
 20
-0.0971894007
 10
-46.7746466756
 20
-0.2391676146
 10
-46.9060209736
 20
-0.3898514864
 10
-46.9650613833
 20
-0.5455306791
 10
-46.950314134
 20
-0.7023718542
 10
-46.8621423518
 20
-0.8565130614
 10
-46.7027171186
 20
-1.0041588328
 10
-46.4759640128
 20
-1.1416736394
 10
-46.1874664484
 20
-1.2656714102
 10
-45.8443281929
 20
-1.3730989087
 10
-45.4549984489
 20
-1.4613109132
 10
-45.0290638069
 20
-1.5281353516
  0
LWPOLYLINE
  5
133
330
123
100
AcDbEntity
  8
0
  6
Continuous
 62
     7
370
    25
100
AcDbPolyline
 90
       41
 70
   128
 43
0.0
 10
42.9077434639
 20
3.428542825
 10
43.3597950794
 20
3.3847513923
 10
43.8268326574
 20
3.3650712558
 10
44.2973561828
 20
3.3699870055
 10
44.7597798047
 20
3.3993775996
 10
45.2027171189
 20
3.452519344
 10
45.6152615387
 20
3.5281037126
 10
45.9872548513
 20
3.6242695673
 10
46.3095373468
 20
3.7386489858
 10
46.5741733605
 20
3.8684255671
 10
46.7746466756
 20
4.0104037811
 10
46.9060209736
 20
4.1610876529
 10
46.9650613833
 20
4.3167668455
 10
46.950314134
 20
4.4736080206
 10
46.8621423518
 20
4.6277492279
 10
46.7027171186
 20
4.7753949992
 10
46.4759640128
 20
4.9129098058
 10
46.1874664484
 20
5.0369075766
 10
45.8443281929
 20
5.1443350751
 10
45.4549984489
 20
5.2325470797
 10
45.0290638069
 20
5.299371518
 10
44.5770121914
 20
5.3431629506
 10
44.1099746134
 20
5.3628430872
 10
43.639451088
 20
5.3579273374
 10
43.1770274661
 20
5.3285367434
 10
42.7340901519
 20
5.275394999
 10
42.3215457321
 20
5.1998106304
 10
41.9495524195
 20
5.1036447756
 10
41.627269924
 20
4.9892653572
 10
41.3626339103
 20
4.8594887759
 10
41.1621605952
 20
4.7175105619
 10
41.0307862972
 20
4.5668266901
 10
40.9717458875
 20
4.4111474975
 10
40.9864931368
 20
4.2543063224
 10
41.074664919
 20
4.1001651151
 10
41.2340901522
 20
3.9525193437
 10
41.460843258
 20
3.8150045372
 10
41.7493408224
 20
3.6910067663
 10
42.0924790779
 20
3.5835792679
 10
42.4818088219
 20
3.4953672633
 10
42.9077434639
 20
3.428542825
  0
LINE
  5
138
330
123
100
AcDbEntity
  8
0
  6
Continuous
 62
     7
370
    25
100
AcDbLine
 10
31.4870438872
 20
-12.7718262382
 30
0.0
 11
31.4870438872
 21
-14.6574443214
 31
0.0
  0
LINE
  5
139
330
123
100
AcDbEntity
  8
0
  6
Continuous
 62
     7
370
    25
100
AcDbLine
 10
31.4870438872
 20
-12.7718262382
 30
0.0
 11
52.700247318
 21
5.9364606918
 31
0.0
  0
LINE
  5
13A
330
123
100
AcDbEntity
  8
0
  6
Continuous
 62
     7
370
    25
100
AcDbLine
 10
52.700247318
 20
5.9364606918
 30
0.0
 11
52.700247318
 21
4.0508426086
 31
0.0
  0
LINE
  5
13B
330
123
100
AcDbEntity
  8
0
  6
Continuous
 62
     7
370
    25
100
AcDbLine
 10
31.4870438872
 20
-14.6574443214
 30
0.0
 11
52.700247318
 21
4.0508426086
 31
0.0
  0
LINE
  5
13C
330
123
100
AcDbEntity
  8
0
  6
Continuous
 62
     7
370
    25
100
AcDbLine
 10
-52.700247318
 20
-2.1652245254
 30
0.0
 11
-52.700247318
 21
-4.0508426086
 31
0.0
  0
LINE
  5
13D
330
123
100
AcDbEntity
  8
0
  6
Continuous
 62
     7
370
    25
100
AcDbLine
 10
-52.700247318
 20
-2.1652245254
 30
0.0
 11
31.4870438872
 21
-12.7718262382
 31
0.0
  0
LINE
  5
13E
330
123
100
AcDbEntity
  8
0
  6
Continuous
 62
     7
370
    25
100
AcDbLine
 10
-52.700247318
 20
-4.0508426086
 30
0.0
 11
31.4870438872
 21
-14.6574443214
 31
0.0
  0
LINE
  5
13F
330
123
100
AcDbEntity
  8
0
  6
Continuous
 62
     7
370
    25
100
AcDbLine
 10
-31.4870438872
 20
16.5430624047
 30
0.0
 11
-52.700247318
 21
-2.1652245254
 31
0.0
  0
LINE
  5
140
330
123
100
AcDbEntity
  8
0
  6
Continuous
 62
     7
370
    25
100
AcDbLine
 10
52.700247318
 20
5.9364606918
 30
0.0
 11
-31.4870438872
 21
16.5430624047
 31
0.0
  0
ARC
  5
141
330
123
100
AcDbEntity
  8
0
  6
Continuous
 62
     7
370
    25
100
AcDbCircle
 10
28.0585010624
 20
-19.2411196358
 30
0.0
 40
8.688789813916351
100
AcDbArc
 50
83.3911362127
 51
96.6088637873
  0
ARC
  5
142
330
123
100
AcDbEntity
  8
0
  6
Continuous
 62
     7
370
    25
100
AcDbCircle
 10
-43.9684036354
 20
-10.1665826148
 30
0.0
 40
8.68878981391594
100
AcDbArc
 50
83.3911362126
 51
96.6088637874
  0
ARC
  5
143
330
123
100
AcDbEntity
  8
0
  6
Continuous
 62
     7
370
    25
100
AcDbCircle
 10
43.9684036354
 20
-5.2099044383
 30
0.0
 40
8.688789813916248
100
AcDbArc
 50
83.3911362126
 51
96.6088637874
  0
ARC
  5
144
330
123
100
AcDbEntity
  8
0
  6
Continuous
 62
     7
370
    25
100
AcDbCircle
 10
-28.0585010624
 20
3.8646325827
 30
0.0
 40
8.68878981391614
100
AcDbArc
 50
83.3911362126
 51
96.6088637874
  0
VIEWPORT
  5
157
330
123
100
AcDbEntity
  8
0
100
AcDbViewport
 10
0.0
 20
0.0
 30
0.0
 40
205.6
 41
156.0
 68
     1
 69
     1
 12
0.0
 22
0.7071067812
 13
0.0
 23
0.0
 14
10.0
 24
10.0
 15
10.0
 25
10.0
 16
0.0
 26
0.0
 36
1.0
 17
0.0
 27
0.0
 37
0.0
 42
50.0
 43
0.0
 44
0.0
 45
69.6536964981
 50
0.0
 51
0.0
 72
   100
 90
   557152
  1

281
     0
 71
     1
 74
     0
110
0.0
120
0.0
130
0.0
111
1.0
121
0.0
131
0.0
112
0.0
122
1.0
132
0.0
 79
     0
146
0.0
  0
ENDBLK
  5
126
330
123
100
AcDbEntity
  8
0
100
AcDbBlockEnd
  0
ENDSEC
  0
SECTION
  2
ENTITIES
  0
LWPOLYLINE
  5
78
330
1F
100
AcDbEntity
  8
0
  6
Continuous
 62
     7
370
    25
100
AcDbPolyline
 90
       41
 70
   128
 43
0.0
 10
-38.5
 20
15.2027957955
 10
-38.0306966049
 20
15.2289127691
 10
-37.5729490169
 20
15.3066206032
 10
-37.1380285008
 20
15.4340058731
 10
-36.7366442431
 20
15.6079319306
 10
-36.3786796564
 20
15.8241161391
 10
-36.0729490169
 20
16.0772353257
 10
-35.8269804274
 20
16.3610568562
 10
-35.6468304511
 20
16.6685921024
 10
-35.5369349782
 20
16.9922685259
 10
-35.5
 20
17.3241161391
 10
-35.5369349782
 20
17.6559637522
 10
-35.6468304511
 20
17.9796401757
 10
-35.8269804274
 20
18.287175422
 10
-36.0729490169
 20
18.5709969524
 10
-36.3786796564
 20
18.8241161391
 10
-36.7366442431
 20
19.0403003475
 10
-37.1380285008
 20
19.2142264051
 10
-37.5729490169
 20
19.341611675
 10
-38.0306966049
 20
19.4193195091
 10
-38.5
 20
19.4454364826
 10
-38.9693033951
 20
19.4193195091
 10
-39.4270509831
 20
19.341611675
 10
-39.8619714992
 20
19.2142264051
 10
-40.2633557569
 20
19.0403003475
 10
-40.6213203436
 20
18.8241161391
 10
-40.9270509831
 20
18.5709969524
 10
-41.1730195726
 20
18.287175422
 10
-41.3531695489
 20
17.9796401757
 10
-41.4630650218
 20
17.6559637522
 10
-41.5
 20
17.3241161391
 10
-41.4630650218
 20
16.9922685259
 10
-41.3531695489
 20
16.6685921024
 10
-41.1730195726
 20
16.3610568562
 10
-40.9270509831
 20
16.0772353257
 10
-40.6213203436
 20
15.8241161391
 10
-40.2633557569
 20
15.6079319306
 10
-39.8619714992
 20
15.4340058731
 10
-39.4270509831
 20
15.3066206032
 10
-38.9693033951
 20
15.2289127691
 10
-38.5
 20
15.2027957955
  0
LWPOLYLINE
  5
79
330
1F
100
AcDbEntity
  8
0
  6
Continuous
 62
     7
370
    25
100
AcDbPolyline
 90
       41
 70
   128
 43
0.0
 10
38.5
 20
-16.6170093579
 10
38.9693033951
 20
-16.5908923843
 10
39.4270509831
 20
-16.5131845502
 10
39.8619714992
 20
-16.3857992803
 10
40.2633557569
 20
-16.2118732228
 10
40.6213203436
 20
-15.9956890143
 10
40.9270509831
 20
-15.7425698277
 10
41.1730195726
 20
-15.4587482972
 10
41.3531695489
 20
-15.151213051
 10
41.4630650218
 20
-14.8275366274
 10
41.5
 20
-14.4956890143
 10
41.4630650218
 20
-14.1638414012
 10
41.3531695489
 20
-13.8401649777
 10
41.1730195726
 20
-13.5326297314
 10
40.9270509831
 20
-13.248808201
 10
40.6213203436
 20
-12.9956890143
 10
40.2633557569
 20
-12.7795048059
 10
39.8619714992
 20
-12.6055787483
 10
39.4270509831
 20
-12.4781934784
 10
38.9693033951
 20
-12.4004856443
 10
38.5
 20
-12.3743686708
 10
38.0306966049
 20
-12.4004856443
 10
37.5729490169
 20
-12.4781934784
 10
37.1380285008
 20
-12.6055787483
 10
36.7366442431
 20
-12.7795048059
 10
36.3786796564
 20
-12.9956890143
 10
36.0729490169
 20
-13.248808201
 10
35.8269804274
 20
-13.5326297314
 10
35.6468304511
 20
-13.8401649777
 10
35.5369349782
 20
-14.1638414012
 10
35.5
 20
-14.4956890143
 10
35.5369349782
 20
-14.8275366274
 10
35.6468304511
 20
-15.151213051
 10
35.8269804274
 20
-15.4587482972
 10
36.0729490169
 20
-15.7425698277
 10
36.3786796564
 20
-15.9956890143
 10
36.7366442431
 20
-16.2118732228
 10
37.1380285008
 20
-16.3857992803
 10
37.5729490169
 20
-16.5131845502
 10
38.0306966049
 20
-16.5908923843
 10
38.5
 20
-16.6170093579
  0
LWPOLYLINE
  5
7A
330
1F
100
AcDbEntity
  8
0
  6
Continuous
 62
     7
370
    25
100
AcDbPolyline
 90
       41
 70
   128
 43
0.0
 10
-38.5
 20
-16.6170093579
 10
-38.0306966049
 20
-16.5908923843
 10
-37.5729490169
 20
-16.5131845502
 10
-37.1380285008
 20
-16.3857992803
 10
-36.7366442431
 20
-16.2118732228
 10
-36.3786796564
 20
-15.9956890143
 10
-36.0729490169
 20
-15.7425698277
 10
-35.8269804274
 20
-15.4587482972
 10
-35.6468304511
 20
-15.151213051
 10
-35.5369349782
 20
-14.8275366274
 10
-35.5
 20
-14.4956890143
 10
-35.5369349782
 20
-14.1638414012
 10
-35.6468304511
 20
-13.8401649777
 10
-35.8269804274
 20
-13.5326297314
 10
-36.0729490169
 20
-13.248808201
 10
-36.3786796564
 20
-12.9956890143
 10
-36.7366442431
 20
-12.7795048059
 10
-37.1380285008
 20
-12.6055787483
 10
-37.5729490169
 20
-12.4781934784
 10
-38.0306966049
 20
-12.4004856443
 10
-38.5
 20
-12.3743686708
 10
-38.9693033951
 20
-12.4004856443
 10
-39.4270509831
 20
-12.4781934784
 10
-39.8619714992
 20
-12.6055787483
 10
-40.2633557569
 20
-12.7795048059
 10
-40.6213203436
 20
-12.9956890143
 10
-40.9270509831
 20
-13.248808201
 10
-41.1730195726
 20
-13.5326297314
 10
-41.3531695489
 20
-13.8401649777
 10
-41.4630650218
 20
-14.1638414012
 10
-41.5
 20
-14.4956890143
 10
-41.4630650218
 20
-14.8275366274
 10
-41.3531695489
 20
-15.151213051
 10
-41.1730195726
 20
-15.4587482972
 10
-40.9270509831
 20
-15.7425698277
 10
-40.6213203436
 20
-15.9956890143
 10
-40.2633557569
 20
-16.2118732228
 10
-39.8619714992
 20
-16.3857992803
 10
-39.4270509831
 20
-16.5131845502
 10
-38.9693033951
 20
-16.5908923843
 10
-38.5
 20
-16.6170093579
  0
LWPOLYLINE
  5
7B
330
1F
100
AcDbEntity
  8
0
  6
Continuous
 62
     7
370
    25
100
AcDbPolyline
 90
       41
 70
   128
 43
0.0
 10
38.5
 20
15.2027957955
 10
38.9693033951
 20
15.2289127691
 10
39.4270509831
 20
15.3066206032
 10
39.8619714992
 20
15.4340058731
 10
40.2633557569
 20
15.6079319306
 10
40.6213203436
 20
15.8241161391
 10
40.9270509831
 20
16.0772353257
 10
41.1730195726
 20
16.3610568562
 10
41.3531695489
 20
16.6685921024
 10
41.4630650218
 20
16.9922685259
 10
41.5
 20
17.3241161391
 10
41.4630650218
 20
17.6559637522
 10
41.3531695489
 20
17.9796401757
 10
41.1730195726
 20
18.287175422
 10
40.9270509831
 20
18.5709969524
 10
40.6213203436
 20
18.8241161391
 10
40.2633557569
 20
19.0403003475
 10
39.8619714992
 20
19.2142264051
 10
39.4270509831
 20
19.341611675
 10
38.9693033951
 20
19.4193195091
 10
38.5
 20
19.4454364826
 10
38.0306966049
 20
19.4193195091
 10
37.5729490169
 20
19.341611675
 10
37.1380285008
 20
19.2142264051
 10
36.7366442431
 20
19.0403003475
 10
36.3786796564
 20
18.8241161391
 10
36.0729490169
 20
18.5709969524
 10
35.8269804274
 20
18.287175422
 10
35.6468304511
 20
17.9796401757
 10
35.5369349782
 20
17.6559637522
 10
35.5
 20
17.3241161391
 10
35.5369349782
 20
16.9922685259
 10
35.6468304511
 20
16.6685921024
 10
35.8269804274
 20
16.3610568562
 10
36.0729490169
 20
16.0772353257
 10
36.3786796564
 20
15.8241161391
 10
36.7366442431
 20
15.6079319306
 10
37.1380285008
 20
15.4340058731
 10
37.5729490169
 20
15.3066206032
 10
38.0306966049
 20
15.2289127691
 10
38.5
 20
15.2027957955
  0
LINE
  5
82
330
1F
100
AcDbEntity
  8
0
  6
Continuous
 62
     7
370
    25
100
AcDbLine
 10
-45.0
 20
22.627416998
 30
0.0
 11
-45.0
 21
-21.2132034356
 31
0.0
  0
LINE
  5
83
330
1F
100
AcDbEntity
  8
0
  6
Continuous
 62
     7
370
    25
100
AcDbLine
 10
-45.0
 20
-19.7989898732
 30
0.0
 11
45.0
 21
-19.7989898732
 31
0.0
  0
LINE
  5
84
330
1F
100
AcDbEntity
  8
0
  6
Continuous
 62
     7
370
    25
100
AcDbLine
 10
-45.0
 20
-21.2132034356
 30
0.0
 11
45.0
 21
-21.2132034356
 31
0.0
  0
LINE
  5
85
330
1F
100
AcDbEntity
  8
0
  6
Continuous
 62
     7
370
    25
100
AcDbLine
 10
45.0
 20
-21.2132034356
 30
0.0
 11
45.0
 21
22.627416998
 31
0.0
  0
LINE
  5
86
330
1F
100
AcDbEntity
  8
0
  6
Continuous
 62
     7
370
    25
100
AcDbLine
 10
45.0
 20
22.627416998
 30
0.0
 11
-45.0
 21
22.627416998
 31
0.0
  0
ARC
  5
87
330
1F
100
AcDbEntity
  8
0
  6
Continuous
 62
     7
370
    25
100
AcDbCircle
 10
38.5
 20
-17.1890707607
 30
0.0
 40
3.456195630652807
100
AcDbArc
 50
35.0786122737
 51
144.9213877263
  0
ARC
  5
88
330
1F
100
AcDbEntity
  8
0
  6
Continuous
 62
     7
370
    25
100
AcDbCircle
 10
-38.5
 20
-17.1890707607
 30
0.0
 40
3.456195630652878
100
AcDbArc
 50
35.0786122737
 51
144.9213877263
  0
ARC
  5
89
330
1F
100
AcDbEntity
  8
0
  6
Continuous
 62
     7
370
    25
100
AcDbCircle
 10
-38.5
 20
14.6307343927
 30
0.0
 40
3.456195630652773
100
AcDbArc
 50
35.0786122737
 51
144.9213877263
  0
ARC
  5
8A
330
1F
100
AcDbEntity
  8
0
  6
Continuous
 62
     7
370
    25
100
AcDbCircle
 10
38.5
 20
14.6307343927
 30
0.0
 40
3.456195630652773
100
AcDbArc
 50
35.0786122737
 51
144.9213877263
  0
LINE
  5
8F
330
1B
100
AcDbEntity
 67
     1
  8
0
  6
Continuous
 62
     7
370
    25
100
AcDbLine
 10
-45.0
 20
2.0
 30
0.0
 11
-45.0
 21
0.0
 31
0.0
  0
LINE
  5
90
330
1B
100
AcDbEntity
 67
     1
  8
0
  6
Continuous
 62
     7
370
    25
100
AcDbLine
 10
-45.0
 20
2.0
 30
0.0
 11
45.0
 21
2.0
 31
0.0
  0
LINE
  5
91
330
1B
100
AcDbEntity
 67
     1
  8
0
  6
Continuous
 62
     7
370
    25
100
AcDbLine
 10
-45.0
 20
0.0
 30
0.0
 11
45.0
 21
0.0
 31
0.0
  0
LINE
  5
92
330
1B
100
AcDbEntity
 67
     1
  8
0
  6
Continuous
 62
     7
370
    25
100
AcDbLine
 10
45.0
 20
2.0
 30
0.0
 11
45.0
 21
0.0
 31
0.0
  0
VIEWPORT
  5
145
330
1B
100
AcDbEntity
 67
     1
  8
0
100
AcDbViewport
 10
0.0
 20
0.0
 30
0.0
 40
205.6
 41
156.0
 68
     1
 69
     1
 12
0.0
 22
0.7071067812
 13
0.0
 23
0.0
 14
10.0
 24
10.0
 15
10.0
 25
10.0
 16
0.0
 26
0.0
 36
1.0
 17
0.0
 27
0.0
 37
0.0
 42
50.0
 43
0.0
 44
0.0
 45
69.6536964981
 50
0.0
 51
0.0
 72
   100
 90
   557152
  1

281
     0
 71
     1
 74
     0
110
0.0
120
0.0
130
0.0
111
1.0
121
0.0
131
0.0
112
0.0
122
1.0
132
0.0
 79
     0
146
0.0
  0
ENDSEC
  0
SECTION
  2
OBJECTS
  0
DICTIONARY
  5
C
330
0
100
AcDbDictionary
281
     1
  3
ACAD_GROUP
350
D
  3
ACAD_LAYOUT
350
1A
  3
ACAD_MLINESTYLE
350
17
  3
ACAD_PLOTSETTINGS
350
19
  3
ACAD_PLOTSTYLENAME
350
E
  3
ACAD_SCALELIST
350
47
  0
DICTIONARY
  5
D
102
{ACAD_REACTORS
330
C
102
}
330
C
100
AcDbDictionary
281
     1
  0
DICTIONARY
  5
1A
102
{ACAD_REACTORS
330
C
102
}
330
C
100
AcDbDictionary
281
     1
  3
_
350
E0
  3
_
350
AC
  3
_
350
1E
  3
_
350
26
  3
_
350
102
  3
_
350
D0
  3
_
350
C4
  3
_
350
A0
  3
_
350
B8
  3
_
350
124
  3
Model
350
22
  0
DICTIONARY
  5
17
102
{ACAD_REACTORS
330
C
102
}
330
C
100
AcDbDictionary
281
     1
  3
Standard
350
18
  0
DICTIONARY
  5
19
102
{ACAD_REACTORS
330
C
102
}
330
C
100
AcDbDictionary
281
     1
  0
ACDBDICTIONARYWDFLT
  5
E
102
{ACAD_REACTORS
330
C
102
}
330
C
100
AcDbDictionary
281
     1
  3
Normal
350
F
100
AcDbDictionaryWithDefault
340
F
  0
DICTIONARY
  5
47
102
{ACAD_REACTORS
330
C
102
}
330
C
100
AcDbDictionary
281
     1
  3
A0
350
48
  3
A1
350
49
  3
A2
350
4A
  3
A3
350
4B
  3
A4
350
4C
  3
A5
350
4D
  3
A6
350
4E
  3
A7
350
4F
  3
A8
350
50
  3
A9
350
51
  3
B0
350
52
  3
B1
350
53
  3
B2
350
54
  3
B3
350
55
  3
B4
350
56
  3
B5
350
57
  3
B6
350
58
  3
B7
350
59
  3
B8
350
5A
  3
B9
350
5B
  3
C0
350
5C
  3
C1
350
5D
  3
C2
350
5E
  3
C3
350
5F
  3
C4
350
60
  3
C5
350
61
  3
C6
350
62
  3
C7
350
63
  3
C8
350
64
  3
C9
350
65
  3
D0
350
66
  3
D1
350
67
  3
D2
350
68
  0
LAYOUT
  5
E0
102
{ACAD_REACTORS
330
1A
102
}
330
1A
100
AcDbPlotSettings
  1

  2
none_device
  4
ISO_A4_(210.00_x_297.00_MM)
  6

 40
7.5
 41
20.0
 42
7.5
 43
20.0
 44
210.0
 45
297.0
 46
0.0
 47
0.0
 48
0.0
 49
0.0
140
0.0
141
0.0
142
1.0
143
0.3501945525
 70
   688
 72
     1
 73
     1
 74
     1
  7

 75
     0
147
2.8555555556
148
45.0
149
0.0
100
AcDbLayout
  1
_
 70
     1
 71
     8
 10
0.0
 20
0.0
 11
0.0
 21
0.0
 12
0.0
 22
0.0
 32
0.0
 14
0.0
 24
0.0
 34
0.0
 15
0.0
 25
0.0
 35
0.0
146
0.0
 13
0.0
 23
0.0
 33
0.0
 16
1.0
 26
0.0
 36
0.0
 17
0.0
 27
1.0
 37
0.0
 76
     0
330
DF
331
153
  0
LAYOUT
  5
AC
102
{ACAD_REACTORS
330
1A
102
}
330
1A
100
AcDbPlotSettings
  1

  2
none_device
  4
ISO_A4_(210.00_x_297.00_MM)
  6

 40
7.5
 41
20.0
 42
7.5
 43
20.0
 44
210.0
 45
297.0
 46
0.0
 47
0.0
 48
0.0
 49
0.0
140
0.0
141
0.0
142
1.0
143
0.3501945525
 70
   688
 72
     1
 73
     1
 74
     1
  7

 75
     0
147
2.8555555556
148
45.0
149
0.0
100
AcDbLayout
  1
_
 70
     1
 71
     4
 10
0.0
 20
0.0
 11
0.0
 21
0.0
 12
0.0
 22
0.0
 32
0.0
 14
0.0
 24
0.0
 34
0.0
 15
0.0
 25
0.0
 35
0.0
146
0.0
 13
0.0
 23
0.0
 33
0.0
 16
1.0
 26
0.0
 36
0.0
 17
0.0
 27
1.0
 37
0.0
 76
     0
330
AB
331
14B
  0
LAYOUT
  5
1E
102
{ACAD_REACTORS
330
1A
102
}
330
1A
100
AcDbPlotSettings
  1

  2
none_device
  4
ISO_A4_(210.00_x_297.00_MM)
  6

 40
7.5
 41
20.0
 42
7.5
 43
20.0
 44
210.0
 45
297.0
 46
0.0
 47
0.0
 48
0.0
 49
0.0
140
0.0
141
0.0
142
1.0
143
0.3501945525
 70
   688
 72
     1
 73
     1
 74
     1
  7

 75
     0
147
2.8555555556
148
45.0
149
0.0
100
AcDbLayout
  1
_
 70
     1
 71
     1
 10
-52.0038910506
 20
-2.626459144
 11
52.0038910506
 21
70.9143968872
 12
0.0
 22
0.0
 32
0.0
 14
-45.0
 24
0.0
 34
0.0
 15
45.0
 25
2.0
 35
0.0
146
0.0
 13
0.0
 23
0.0
 33
0.0
 16
1.0
 26
0.0
 36
0.0
 17
0.0
 27
1.0
 37
0.0
 76
     0
330
1B
331
145
  0
LAYOUT
  5
26
102
{ACAD_REACTORS
330
1A
102
}
330
1A
100
AcDbPlotSettings
  1

  2
none_device
  4
ISO_A4_(210.00_x_297.00_MM)
  6

 40
7.5
 41
20.0
 42
7.5
 43
20.0
 44
210.0
 45
297.0
 46
0.0
 47
0.0
 48
0.0
 49
0.0
140
0.0
141
0.0
142
1.0
143
0.3501945525
 70
   688
 72
     1
 73
     1
 74
     1
  7

 75
     0
147
2.8555555556
148
45.0
149
0.0
100
AcDbLayout
  1
_
 70
     1
 71
     2
 10
0.0
 20
0.0
 11
0.0
 21
0.0
 12
0.0
 22
0.0
 32
0.0
 14
0.0
 24
0.0
 34
0.0
 15
0.0
 25
0.0
 35
0.0
146
0.0
 13
0.0
 23
0.0
 33
0.0
 16
1.0
 26
0.0
 36
0.0
 17
0.0
 27
1.0
 37
0.0
 76
     0
330
23
331
147
  0
LAYOUT
  5
102
102
{ACAD_REACTORS
330
1A
102
}
330
1A
100
AcDbPlotSettings
  1

  2
none_device
  4
ISO_A4_(210.00_x_297.00_MM)
  6

 40
7.5
 41
20.0
 42
7.5
 43
20.0
 44
210.0
 45
297.0
 46
0.0
 47
0.0
 48
0.0
 49
0.0
140
0.0
141
0.0
142
1.0
143
0.3501945525
 70
   688
 72
     1
 73
     1
 74
     1
  7

 75
     0
147
2.8555555556
148
45.0
149
0.0
100
AcDbLayout
  1
_
 70
     1
 71
     9
 10
0.0
 20
0.0
 11
0.0
 21
0.0
 12
0.0
 22
0.0
 32
0.0
 14
0.0
 24
0.0
 34
0.0
 15
0.0
 25
0.0
 35
0.0
146
0.0
 13
0.0
 23
0.0
 33
0.0
 16
1.0
 26
0.0
 36
0.0
 17
0.0
 27
1.0
 37
0.0
 76
     0
330
101
331
155
  0
LAYOUT
  5
D0
102
{ACAD_REACTORS
330
1A
102
}
330
1A
100
AcDbPlotSettings
  1

  2
none_device
  4
ISO_A4_(210.00_x_297.00_MM)
  6

 40
7.5
 41
20.0
 42
7.5
 43
20.0
 44
210.0
 45
297.0
 46
0.0
 47
0.0
 48
0.0
 49
0.0
140
0.0
141
0.0
142
1.0
143
0.3501945525
 70
   688
 72
     1
 73
     1
 74
     1
  7

 75
     0
147
2.8555555556
148
45.0
149
0.0
100
AcDbLayout
  1
_
 70
     1
 71
     7
 10
0.0
 20
0.0
 11
0.0
 21
0.0
 12
0.0
 22
0.0
 32
0.0
 14
0.0
 24
0.0
 34
0.0
 15
0.0
 25
0.0
 35
0.0
146
0.0
 13
0.0
 23
0.0
 33
0.0
 16
1.0
 26
0.0
 36
0.0
 17
0.0
 27
1.0
 37
0.0
 76
     0
330
CF
331
151
  0
LAYOUT
  5
C4
102
{ACAD_REACTORS
330
1A
102
}
330
1A
100
AcDbPlotSettings
  1

  2
none_device
  4
ISO_A4_(210.00_x_297.00_MM)
  6

 40
7.5
 41
20.0
 42
7.5
 43
20.0
 44
210.0
 45
297.0
 46
0.0
 47
0.0
 48
0.0
 49
0.0
140
0.0
141
0.0
142
1.0
143
0.3501945525
 70
   688
 72
     1
 73
     1
 74
     1
  7

 75
     0
147
2.8555555556
148
45.0
149
0.0
100
AcDbLayout
  1
_
 70
     1
 71
     6
 10
0.0
 20
0.0
 11
0.0
 21
0.0
 12
0.0
 22
0.0
 32
0.0
 14
0.0
 24
0.0
 34
0.0
 15
0.0
 25
0.0
 35
0.0
146
0.0
 13
0.0
 23
0.0
 33
0.0
 16
1.0
 26
0.0
 36
0.0
 17
0.0
 27
1.0
 37
0.0
 76
     0
330
C3
331
14F
  0
LAYOUT
  5
A0
102
{ACAD_REACTORS
330
1A
102
}
330
1A
100
AcDbPlotSettings
  1

  2
none_device
  4
ISO_A4_(210.00_x_297.00_MM)
  6

 40
7.5
 41
20.0
 42
7.5
 43
20.0
 44
210.0
 45
297.0
 46
0.0
 47
0.0
 48
0.0
 49
0.0
140
0.0
141
0.0
142
1.0
143
0.3501945525
 70
   688
 72
     1
 73
     1
 74
     1
  7

 75
     0
147
2.8555555556
148
45.0
149
0.0
100
AcDbLayout
  1
_
 70
     1
 71
     3
 10
0.0
 20
0.0
 11
0.0
 21
0.0
 12
0.0
 22
0.0
 32
0.0
 14
0.0
 24
0.0
 34
0.0
 15
0.0
 25
0.0
 35
0.0
146
0.0
 13
0.0
 23
0.0
 33
0.0
 16
1.0
 26
0.0
 36
0.0
 17
0.0
 27
1.0
 37
0.0
 76
     0
330
9F
331
149
  0
LAYOUT
  5
B8
102
{ACAD_REACTORS
330
1A
102
}
330
1A
100
AcDbPlotSettings
  1

  2
none_device
  4
ISO_A4_(210.00_x_297.00_MM)
  6

 40
7.5
 41
20.0
 42
7.5
 43
20.0
 44
210.0
 45
297.0
 46
0.0
 47
0.0
 48
0.0
 49
0.0
140
0.0
141
0.0
142
1.0
143
0.3501945525
 70
   688
 72
     1
 73
     1
 74
     1
  7

 75
     0
147
2.8555555556
148
45.0
149
0.0
100
AcDbLayout
  1
_
 70
     1
 71
     5
 10
0.0
 20
0.0
 11
0.0
 21
0.0
 12
0.0
 22
0.0
 32
0.0
 14
0.0
 24
0.0
 34
0.0
 15
0.0
 25
0.0
 35
0.0
146
0.0
 13
0.0
 23
0.0
 33
0.0
 16
1.0
 26
0.0
 36
0.0
 17
0.0
 27
1.0
 37
0.0
 76
     0
330
B7
331
14D
  0
LAYOUT
  5
124
102
{ACAD_REACTORS
330
1A
102
}
330
1A
100
AcDbPlotSettings
  1

  2
none_device
  4
ISO_A4_(210.00_x_297.00_MM)
  6

 40
7.5
 41
20.0
 42
7.5
 43
20.0
 44
210.0
 45
297.0
 46
0.0
 47
0.0
 48
0.0
 49
0.0
140
0.0
141
0.0
142
1.0
143
0.3501945525
 70
   688
 72
     1
 73
     1
 74
     1
  7

 75
     0
147
2.8555555556
148
45.0
149
0.0
100
AcDbLayout
  1
_
 70
     1
 71
    10
 10
0.0
 20
0.0
 11
0.0
 21
0.0
 12
0.0
 22
0.0
 32
0.0
 14
0.0
 24
0.0
 34
0.0
 15
0.0
 25
0.0
 35
0.0
146
0.0
 13
0.0
 23
0.0
 33
0.0
 16
1.0
 26
0.0
 36
0.0
 17
0.0
 27
1.0
 37
0.0
 76
     0
330
123
331
157
  0
LAYOUT
  5
22
102
{ACAD_REACTORS
330
1A
102
}
330
1A
100
AcDbPlotSettings
  1

  2
none_device
  4
ANSI_A_(11.00_x_8.50_Inches)
  6

 40
6.35
 41
19.05
 42
6.35000508
 43
19.05000254
 44
279.4
 45
215.9
 46
133.34999746
 47
86.7267767487
 48
0.0
 49
0.0
140
0.0
141
0.0
142
0.121
143
1.0
 70
  1696
 72
     0
 73
     0
 74
     0
  7

 75
     0
147
0.0179189148
148
-1300.4909072572
149
0.0
100
AcDbLayout
  1
Model
 70
     1
 71
     0
 10
0.0
 20
0.0
 11
420.0
 21
297.0
 12
0.0
 22
0.0
 32
0.0
 14
-45.0
 24
-21.2132034356
 34
0.0
 15
45.0
 25
22.627416998
 35
0.0
146
0.0
 13
0.0
 23
0.0
 33
0.0
 16
1.0
 26
0.0
 36
0.0
 17
0.0
 27
1.0
 37
0.0
 76
     0
330
1F
331
29
  0
MLINESTYLE
  5
18
102
{ACAD_REACTORS
330
17
102
}
330
17
100
AcDbMlineStyle
  2
Standard
 70
     0
  3

 62
   256
 51
90.0
 52
90.0
 71
     2
 49
0.5
 62
   256
  6
BYLAYER
 49
-0.5
 62
   256
  6
BYLAYER
  0
ACDBPLACEHOLDER
  5
F
102
{ACAD_REACTORS
330
E
102
}
330
E
  0
SCALE
  5
48
102
{ACAD_REACTORS
330
47
102
}
330
47
100
AcDbScale
 70
     0
300
1:1
140
1.0
141
1.0
290
     1
  0
SCALE
  5
49
102
{ACAD_REACTORS
330
47
102
}
330
47
100
AcDbScale
 70
     0
300
1:2
140
1.0
141
2.0
290
     0
  0
SCALE
  5
4A
102
{ACAD_REACTORS
330
47
102
}
330
47
100
AcDbScale
 70
     0
300
1:4
140
1.0
141
4.0
290
     0
  0
SCALE
  5
4B
102
{ACAD_REACTORS
330
47
102
}
330
47
100
AcDbScale
 70
     0
300
1:5
140
1.0
141
5.0
290
     0
  0
SCALE
  5
4C
102
{ACAD_REACTORS
330
47
102
}
330
47
100
AcDbScale
 70
     0
300
1:8
140
1.0
141
8.0
290
     0
  0
SCALE
  5
4D
102
{ACAD_REACTORS
330
47
102
}
330
47
100
AcDbScale
 70
     0
300
1:10
140
1.0
141
10.0
290
     0
  0
SCALE
  5
4E
102
{ACAD_REACTORS
330
47
102
}
330
47
100
AcDbScale
 70
     0
300
1:16
140
1.0
141
16.0
290
     0
  0
SCALE
  5
4F
102
{ACAD_REACTORS
330
47
102
}
330
47
100
AcDbScale
 70
     0
300
1:20
140
1.0
141
20.0
290
     0
  0
SCALE
  5
50
102
{ACAD_REACTORS
330
47
102
}
330
47
100
AcDbScale
 70
     0
300
1:30
140
1.0
141
30.0
290
     0
  0
SCALE
  5
51
102
{ACAD_REACTORS
330
47
102
}
330
47
100
AcDbScale
 70
     0
300
1:40
140
1.0
141
40.0
290
     0
  0
SCALE
  5
52
102
{ACAD_REACTORS
330
47
102
}
330
47
100
AcDbScale
 70
     0
300
1:50
140
1.0
141
50.0
290
     0
  0
SCALE
  5
53
102
{ACAD_REACTORS
330
47
102
}
330
47
100
AcDbScale
 70
     0
300
1:100
140
1.0
141
100.0
290
     0
  0
SCALE
  5
54
102
{ACAD_REACTORS
330
47
102
}
330
47
100
AcDbScale
 70
     0
300
2:1
140
2.0
141
1.0
290
     0
  0
SCALE
  5
55
102
{ACAD_REACTORS
330
47
102
}
330
47
100
AcDbScale
 70
     0
300
4:1
140
4.0
141
1.0
290
     0
  0
SCALE
  5
56
102
{ACAD_REACTORS
330
47
102
}
330
47
100
AcDbScale
 70
     0
300
8:1
140
8.0
141
1.0
290
     0
  0
SCALE
  5
57
102
{ACAD_REACTORS
330
47
102
}
330
47
100
AcDbScale
 70
     0
300
10:1
140
10.0
141
1.0
290
     0
  0
SCALE
  5
58
102
{ACAD_REACTORS
330
47
102
}
330
47
100
AcDbScale
 70
     0
300
100:1
140
100.0
141
1.0
290
     0
  0
SCALE
  5
59
102
{ACAD_REACTORS
330
47
102
}
330
47
100
AcDbScale
 70
     0
300
1/128" = 1'-0"
140
0.0078125
141
12.0
290
     0
  0
SCALE
  5
5A
102
{ACAD_REACTORS
330
47
102
}
330
47
100
AcDbScale
 70
     0
300
1/64" = 1'-0"
140
0.015625
141
12.0
290
     0
  0
SCALE
  5
5B
102
{ACAD_REACTORS
330
47
102
}
330
47
100
AcDbScale
 70
     0
300
1/32" = 1'-0"
140
0.03125
141
12.0
290
     0
  0
SCALE
  5
5C
102
{ACAD_REACTORS
330
47
102
}
330
47
100
AcDbScale
 70
     0
300
1/16" = 1'-0"
140
0.0625
141
12.0
290
     0
  0
SCALE
  5
5D
102
{ACAD_REACTORS
330
47
102
}
330
47
100
AcDbScale
 70
     0
300
3/32" = 1'-0"
140
0.09375
141
12.0
290
     0
  0
SCALE
  5
5E
102
{ACAD_REACTORS
330
47
102
}
330
47
100
AcDbScale
 70
     0
300
1/8" = 1'-0"
140
0.125
141
12.0
290
     0
  0
SCALE
  5
5F
102
{ACAD_REACTORS
330
47
102
}
330
47
100
AcDbScale
 70
     0
300
3/16" = 1'-0"
140
0.1875
141
12.0
290
     0
  0
SCALE
  5
60
102
{ACAD_REACTORS
330
47
102
}
330
47
100
AcDbScale
 70
     0
300
1/4" = 1'-0"
140
0.25
141
12.0
290
     0
  0
SCALE
  5
61
102
{ACAD_REACTORS
330
47
102
}
330
47
100
AcDbScale
 70
     0
300
3/8" = 1'-0"
140
0.375
141
12.0
290
     0
  0
SCALE
  5
62
102
{ACAD_REACTORS
330
47
102
}
330
47
100
AcDbScale
 70
     0
300
1/2" = 1'-0"
140
0.5
141
12.0
290
     0
  0
SCALE
  5
63
102
{ACAD_REACTORS
330
47
102
}
330
47
100
AcDbScale
 70
     0
300
3/4" = 1'-0"
140
0.75
141
12.0
290
     0
  0
SCALE
  5
64
102
{ACAD_REACTORS
330
47
102
}
330
47
100
AcDbScale
 70
     0
300
1" = 1'-0"
140
1.0
141
12.0
290
     0
  0
SCALE
  5
65
102
{ACAD_REACTORS
330
47
102
}
330
47
100
AcDbScale
 70
     0
300
1-1/2" = 1'-0"
140
1.5
141
12.0
290
     0
  0
SCALE
  5
66
102
{ACAD_REACTORS
330
47
102
}
330
47
100
AcDbScale
 70
     0
300
3" = 1'-0"
140
3.0
141
12.0
290
     0
  0
SCALE
  5
67
102
{ACAD_REACTORS
330
47
102
}
330
47
100
AcDbScale
 70
     0
300
6" = 1'-0"
140
6.0
141
12.0
290
     0
  0
SCALE
  5
68
102
{ACAD_REACTORS
330
47
102
}
330
47
100
AcDbScale
 70
     0
300
1'-0" = 1'-0"
140
12.0
141
12.0
290
     0
  0
ENDSEC
  0
EOF
