  0
SECTION
  2
HEADER
  9
$ACADVER
  1
AC1015
  9
$ACADMAINTVER
 70
     6
  9
$DWGCODEPAGE
  3
ANSI_936
  9
$INSBASE
 10
0.0
 20
0.0
 30
0.0
  9
$EXTMIN
 10
-35.0
 20
-35.0
 30
0.0
  9
$EXTMAX
 10
35.0
 20
35.0
 30
0.0
  9
$LIMMIN
 10
0.0
 20
0.0
  9
$LIMMAX
 10
420.0
 20
297.0
  9
$ORTHOMODE
 70
     0
  9
$REGENMODE
 70
     1
  9
$FILLMODE
 70
     1
  9
$QTEXTMODE
 70
     0
  9
$MIRRTEXT
 70
     1
  9
$LTSCALE
 40
1.0
  9
$ATTMODE
 70
     1
  9
$TEXTSIZE
 40
3.5
  9
$TRACEWID
 40
1.0
  9
$TEXTSTYLE
  7
Standard
  9
$CLAYER
  8
0
  9
$CELTYPE
  6
ByLayer
  9
$CECOLOR
 62
   256
  9
$CELTSCALE
 40
1.0
  9
$DISPSILH
 70
     0
  9
$DIMSCALE
 40
1.0
  9
$DIMASZ
 40
3.556
  9
$DIMEXO
 40
1.0
  9
$DIMDLI
 40
3.75
  9
$DIMRND
 40
0.0
  9
$DIMDLE
 40
0.0
  9
$DIMEXE
 40
1.0
  9
$DIMTP
 40
0.0
  9
$DIMTM
 40
0.0
  9
$DIMTXT
 40
3.5
  9
$DIMCEN
 40
2.5
  9
$DIMTSZ
 40
0.0
  9
$DIMTOL
 70
     0
  9
$DIMLIM
 70
     0
  9
$DIMTIH
 70
     1
  9
$DIMTOH
 70
     1
  9
$DIMSE1
 70
     0
  9
$DIMSE2
 70
     0
  9
$DIMTAD
 70
     1
  9
$DIMZIN
 70
     1
  9
$DIMBLK
  1

  9
$DIMASO
 70
     1
  9
$DIMSHO
 70
     1
  9
$DIMPOST
  1

  9
$DIMAPOST
  1

  9
$DIMALT
 70
     0
  9
$DIMALTD
 70
     3
  9
$DIMALTF
 40
0.0393700787
  9
$DIMLFAC
 40
1.0
  9
$DIMTOFL
 70
     1
  9
$DIMTVP
 40
0.0
  9
$DIMTIX
 70
     0
  9
$DIMSOXD
 70
     0
  9
$DIMSAH
 70
     0
  9
$DIMBLK1
  1

  9
$DIMBLK2
  1

  9
$DIMSTYLE
  2
ISO-25
  9
$DIMCLRD
 70
     0
  9
$DIMCLRE
 70
     0
  9
$DIMCLRT
 70
     0
  9
$DIMTFAC
 40
1.0
  9
$DIMGAP
 40
1.524
  9
$DIMJUST
 70
     0
  9
$DIMSD1
 70
     0
  9
$DIMSD2
 70
     0
  9
$DIMTOLJ
 70
     0
  9
$DIMTZIN
 70
     1
  9
$DIMALTZ
 70
     0
  9
$DIMALTTZ
 70
     0
  9
$DIMUPT
 70
     0
  9
$DIMDEC
 70
     2
  9
$DIMTDEC
 70
     2
  9
$DIMALTU
 70
     2
  9
$DIMALTTD
 70
     3
  9
$DIMTXSTY
  7
Standard
  9
$DIMAUNIT
 70
     0
  9
$DIMADEC
 70
     2
  9
$DIMALTRND
 40
0.0
  9
$DIMAZIN
 70
     0
  9
$DIMDSEP
 70
    44
  9
$DIMATFIT
 70
     3
  9
$DIMFRAC
 70
     0
  9
$DIMLDRBLK
  1

  9
$DIMLUNIT
 70
     2
  9
$DIMLWD
 70
    -2
  9
$DIMLWE
 70
    -2
  9
$DIMTMOVE
 70
     0
  9
$LUNITS
 70
     2
  9
$LUPREC
 70
     2
  9
$SKETCHINC
 40
1.0
  9
$FILLETRAD
 40
10.0
  9
$AUNITS
 70
     0
  9
$AUPREC
 70
     2
  9
$MENU
  1
.
  9
$ELEVATION
 40
0.0
  9
$PELEVATION
 40
0.0
  9
$THICKNESS
 40
0.0
  9
$LIMCHECK
 70
     0
  9
$CHAMFERA
 40
0.0
  9
$CHAMFERB
 40
0.0
  9
$CHAMFERC
 40
0.0
  9
$CHAMFERD
 40
0.0
  9
$SKPOLY
 70
     0
  9
$TDCREATE
 40
2460156.692436968
  9
$TDUCREATE
 40
2460156.359103634
  9
$TDUPDATE
 40
2460156.692568681
  9
$TDUUPDATE
 40
2460156.359235347
  9
$TDINDWG
 40
0.0000000116
  9
$TDUSRTIMER
 40
0.0000000116
  9
$USRTIMER
 70
     1
  9
$ANGBASE
 50
0.0
  9
$ANGDIR
 70
     0
  9
$PDMODE
 70
     0
  9
$PDSIZE
 40
-1.0
  9
$PLINEWID
 40
0.0
  9
$SPLFRAME
 70
     0
  9
$SPLINETYPE
 70
     6
  9
$SPLINESEGS
 70
     8
  9
$HANDSEED
  5
14D
  9
$SURFTAB1
 70
     6
  9
$SURFTAB2
 70
     6
  9
$SURFTYPE
 70
     6
  9
$SURFU
 70
     6
  9
$SURFV
 70
     6
  9
$UCSBASE
  2

  9
$UCSNAME
  2

  9
$UCSORG
 10
0.0
 20
0.0
 30
0.0
  9
$UCSXDIR
 10
1.0
 20
0.0
 30
0.0
  9
$UCSYDIR
 10
0.0
 20
1.0
 30
0.0
  9
$UCSORTHOREF
  2

  9
$UCSORTHOVIEW
 70
     0
  9
$UCSORGTOP
 10
0.0
 20
0.0
 30
0.0
  9
$UCSORGBOTTOM
 10
0.0
 20
0.0
 30
0.0
  9
$UCSORGLEFT
 10
0.0
 20
0.0
 30
0.0
  9
$UCSORGRIGHT
 10
0.0
 20
0.0
 30
0.0
  9
$UCSORGFRONT
 10
0.0
 20
0.0
 30
0.0
  9
$UCSORGBACK
 10
0.0
 20
0.0
 30
0.0
  9
$PUCSBASE
  2

  9
$PUCSNAME
  2

  9
$PUCSORG
 10
0.0
 20
0.0
 30
0.0
  9
$PUCSXDIR
 10
1.0
 20
0.0
 30
0.0
  9
$PUCSYDIR
 10
0.0
 20
1.0
 30
0.0
  9
$PUCSORTHOREF
  2

  9
$PUCSORTHOVIEW
 70
     0
  9
$PUCSORGTOP
 10
0.0
 20
0.0
 30
0.0
  9
$PUCSORGBOTTOM
 10
0.0
 20
0.0
 30
0.0
  9
$PUCSORGLEFT
 10
0.0
 20
0.0
 30
0.0
  9
$PUCSORGRIGHT
 10
0.0
 20
0.0
 30
0.0
  9
$PUCSORGFRONT
 10
0.0
 20
0.0
 30
0.0
  9
$PUCSORGBACK
 10
0.0
 20
0.0
 30
0.0
  9
$USERI1
 70
     0
  9
$USERI2
 70
     0
  9
$USERI3
 70
     0
  9
$USERI4
 70
     0
  9
$USERI5
 70
     0
  9
$USERR1
 40
0.0
  9
$USERR2
 40
0.0
  9
$USERR3
 40
0.0
  9
$USERR4
 40
0.0
  9
$USERR5
 40
0.0
  9
$WORLDVIEW
 70
     1
  9
$SHADEDGE
 70
     3
  9
$SHADEDIF
 70
    70
  9
$TILEMODE
 70
     1
  9
$MAXACTVP
 70
    64
  9
$PINSBASE
 10
0.0
 20
0.0
 30
0.0
  9
$PLIMCHECK
 70
     0
  9
$PEXTMIN
 10
-35.0
 20
0.0
 30
0.0
  9
$PEXTMAX
 10
35.0
 20
2.0
 30
0.0
  9
$PLIMMIN
 10
-40.4474708171
 20
-2.0428015564
  9
$PLIMMAX
 10
40.4474708171
 20
55.1556420233
  9
$UNITMODE
 70
     0
  9
$VISRETAIN
 70
     1
  9
$PLINEGEN
 70
     0
  9
$PSLTSCALE
 70
     1
  9
$TREEDEPTH
 70
  3020
  9
$CMLSTYLE
  2
Standard
  9
$CMLJUST
 70
     0
  9
$CMLSCALE
 40
20.0
  9
$PROXYGRAPHICS
 70
     1
  9
$MEASUREMENT
 70
     1
  9
$CELWEIGHT
370
    -1
  9
$ENDCAPS
280
     0
  9
$JOINSTYLE
280
     0
  9
$LWDISPLAY
290
     1
  9
$INSUNITS
 70
     4
  9
$HYPERLINKBASE
  1

  9
$STYLESHEET
  1

  9
$XEDIT
290
     1
  9
$CEPSNTYPE
380
     0
  9
$PSTYLEMODE
290
     1
  9
$FINGERPRINTGUID
  2
{419d2a98-1a6b-4750-ba77-46e1a4259786}
  9
$VERSIONGUID
  2
{FAEB1C32-E019-11D5-929B-00C0DF256EC4}
  9
$EXTNAMES
290
     1
  9
$PSVPSCALE
 40
0.0
  9
$OLESTARTUP
290
     0
  0
ENDSEC
  0
SECTION
  2
CLASSES
  0
CLASS
  1
ACDBDICTIONARYWDFLT
  2
AcDbDictionaryWithDefault
  3
ObjectDBX Classes
 90
        0
280
     0
281
     0
  0
CLASS
  1
VISUALSTYLE
  2
AcDbVisualStyle
  3
ObjectDBX Classes
 90
     4095
280
     0
281
     0
  0
CLASS
  1
MATERIAL
  2
AcDbMaterial
  3
ObjectDBX Classes
 90
     1153
280
     0
281
     0
  0
CLASS
  1
SCALE
  2
AcDbScale
  3
ObjectDBX Classes
 90
     1153
280
     0
281
     0
  0
CLASS
  1
TABLESTYLE
  2
AcDbTableStyle
  3
ObjectDBX Classes
 90
     4095
280
     0
281
     0
  0
CLASS
  1
MLEADERSTYLE
  2
AcDbMLeaderStyle
  3
ACDB_MLEADERSTYLE_CLASS
 90
     4095
280
     0
281
     0
  0
CLASS
  1
SUN
  2
AcDbSun
  3
SCENEOE
 90
     1153
280
     0
281
     0
  0
CLASS
  1
ACDBPLACEHOLDER
  2
AcDbPlaceHolder
  3
ObjectDBX Classes
 90
        0
280
     0
281
     0
  0
CLASS
  1
LAYOUT
  2
AcDbLayout
  3
ObjectDBX Classes
 90
        0
280
     0
281
     0
  0
ENDSEC
  0
SECTION
  2
TABLES
  0
TABLE
  2
VPORT
  5
8
330
0
100
AcDbSymbolTable
 70
     1
  0
VPORT
  5
29
330
8
100
AcDbSymbolTableRecord
100
AcDbViewportTableRecord
  2
*Active
 70
     0
 10
0.0
 20
0.0
 11
1.0
 21
1.0
 12
0.0
 22
0.0
 13
0.0
 23
0.0
 14
10.0
 24
10.0
 15
10.0
 25
10.0
 16
0.0
 26
0.0
 36
1.0
 17
0.0
 27
0.0
 37
0.0
 40
71.4
 41
1.0
 42
50.0
 43
0.0
 44
0.0
 50
0.0
 51
0.0
 71
     0
 72
   100
 73
     1
 74
     3
 75
     0
 76
     0
 77
     0
 78
     0
281
     0
 65
     1
110
0.0
120
0.0
130
0.0
111
1.0
121
0.0
131
0.0
112
0.0
122
1.0
132
0.0
 79
     0
146
0.0
  0
ENDTAB
  0
TABLE
  2
LTYPE
  5
5
330
0
100
AcDbSymbolTable
 70
     6
  0
LTYPE
  5
14
330
5
100
AcDbSymbolTableRecord
100
AcDbLinetypeTableRecord
  2
ByBlock
 70
     0
  3

 72
    65
 73
     0
 40
0.0
  0
LTYPE
  5
15
330
5
100
AcDbSymbolTableRecord
100
AcDbLinetypeTableRecord
  2
ByLayer
 70
     0
  3

 72
    65
 73
     0
 40
0.0
  0
LTYPE
  5
16
330
5
100
AcDbSymbolTableRecord
100
AcDbLinetypeTableRecord
  2
Continuous
 70
     0
  3
Solid line
 72
    65
 73
     0
 40
0.0
  0
LTYPE
  5
6E
330
5
100
AcDbSymbolTableRecord
100
AcDbLinetypeTableRecord
  2
HIDDEN
 70
     0
  3
Hidden __ __ __ __ __ __ __ __ __ __ __ __ __ __
 72
    65
 73
     2
 40
1.905
 49
1.27
 74
     0
 49
-0.635
 74
     0
  0
LTYPE
  5
6F
330
5
100
AcDbSymbolTableRecord
100
AcDbLinetypeTableRecord
  2
PHANTOM
 70
     0
  3
Phantom ______  __  __  ______  __  __  ______
 72
    65
 73
     6
 40
12.7
 49
6.35
 74
     0
 49
-1.27
 74
     0
 49
1.27
 74
     0
 49
-1.27
 74
     0
 49
1.27
 74
     0
 49
-1.27
 74
     0
  0
LTYPE
  5
70
330
5
100
AcDbSymbolTableRecord
100
AcDbLinetypeTableRecord
  2
CENTER
 70
     0
  3
Center ____ _ ____ _ ____ _ ____ _ ____ _ ____
 72
    65
 73
     4
 40
10.16
 49
6.35
 74
     0
 49
-1.27
 74
     0
 49
1.27
 74
     0
 49
-1.27
 74
     0
  0
LTYPE
  5
71
330
5
100
AcDbSymbolTableRecord
100
AcDbLinetypeTableRecord
  2
CENTERX2
 70
     0
  3
Center (2x) ________  __  ________  __  _____
 72
    65
 73
     4
 40
20.32
 49
12.7
 74
     0
 49
-2.54
 74
     0
 49
2.54
 74
     0
 49
-2.54
 74
     0
  0
LTYPE
  5
72
330
5
100
AcDbSymbolTableRecord
100
AcDbLinetypeTableRecord
  2
DOT2
 70
     0
  3
Dot (.5x) ........................................
 72
    65
 73
     2
 40
0.635
 49
0.0
 74
     0
 49
-0.635
 74
     0
  0
ENDTAB
  0
TABLE
  2
LAYER
  5
2
330
0
100
AcDbSymbolTable
 70
     1
  0
LAYER
  5
10
330
2
100
AcDbSymbolTableRecord
100
AcDbLayerTableRecord
  2
0
 70
     0
 62
     7
  6
Continuous
370
    -3
390
F
  0
ENDTAB
  0
TABLE
  2
STYLE
  5
3
330
0
100
AcDbSymbolTable
 70
     1
  0
STYLE
  5
11
330
3
100
AcDbSymbolTableRecord
100
AcDbTextStyleTableRecord
  2
Standard
 70
     0
 40
0.0
 41
1.0
 50
0.0
 71
     0
 42
3.5
  3
txt
  4

  0
ENDTAB
  0
TABLE
  2
VIEW
  5
6
330
0
100
AcDbSymbolTable
 70
     0
  0
ENDTAB
  0
TABLE
  2
UCS
  5
7
330
0
100
AcDbSymbolTable
 70
     0
  0
ENDTAB
  0
TABLE
  2
APPID
  5
9
330
0
100
AcDbSymbolTable
 70
     1
  0
APPID
  5
12
330
9
100
AcDbSymbolTableRecord
100
AcDbRegAppTableRecord
  2
ACAD
 70
     0
  0
ENDTAB
  0
TABLE
  2
DIMSTYLE
  5
A
330
0
100
AcDbSymbolTable
 70
     1
100
AcDbDimStyleTable
  0
DIMSTYLE
105
27
330
A
100
AcDbSymbolTableRecord
100
AcDbDimStyleTableRecord
  2
ISO-25
 70
     0
 41
2.5
 42
0.625
 43
3.75
 44
1.25
 73
     0
 74
     0
 77
     1
 78
     8
140
2.5
141
2.5
143
0.0393700787
147
0.625
171
     3
172
     1
178
     0
271
     2
272
     2
274
     3
278
    44
283
     0
284
     8
340
11
  0
ENDTAB
  0
TABLE
  2
BLOCK_RECORD
  5
1
330
0
100
AcDbSymbolTable
 70
     9
  0
BLOCK_RECORD
  5
1F
330
1
100
AcDbSymbolTableRecord
100
AcDbBlockTableRecord
  2
*Model_Space
340
22
  0
BLOCK_RECORD
  5
1B
330
1
100
AcDbSymbolTableRecord
100
AcDbBlockTableRecord
  2
*Paper_Space
340
1E
  0
BLOCK_RECORD
  5
23
330
1
100
AcDbSymbolTableRecord
100
AcDbBlockTableRecord
  2
*Paper_Space0
340
26
  0
BLOCK_RECORD
  5
93
330
1
100
AcDbSymbolTableRecord
100
AcDbBlockTableRecord
  2
*Paper_Space1
340
94
  0
BLOCK_RECORD
  5
9F
330
1
100
AcDbSymbolTableRecord
100
AcDbBlockTableRecord
  2
*Paper_Space2
340
A0
  0
BLOCK_RECORD
  5
AB
330
1
100
AcDbSymbolTableRecord
100
AcDbBlockTableRecord
  2
*Paper_Space3
340
AC
  0
BLOCK_RECORD
  5
B7
330
1
100
AcDbSymbolTableRecord
100
AcDbBlockTableRecord
  2
*Paper_Space4
340
B8
  0
BLOCK_RECORD
  5
C3
330
1
100
AcDbSymbolTableRecord
100
AcDbBlockTableRecord
  2
*Paper_Space5
340
C4
  0
BLOCK_RECORD
  5
D3
330
1
100
AcDbSymbolTableRecord
100
AcDbBlockTableRecord
  2
*Paper_Space6
340
D4
  0
BLOCK_RECORD
  5
F5
330
1
100
AcDbSymbolTableRecord
100
AcDbBlockTableRecord
  2
*Paper_Space7
340
F6
  0
BLOCK_RECORD
  5
117
330
1
100
AcDbSymbolTableRecord
100
AcDbBlockTableRecord
  2
*Paper_Space8
340
118
  0
ENDTAB
  0
ENDSEC
  0
SECTION
  2
BLOCKS
  0
BLOCK
  5
20
330
1F
100
AcDbEntity
  8
0
100
AcDbBlockBegin
  2
*Model_Space
 70
     0
 10
0.0
 20
0.0
 30
0.0
  3
*Model_Space
  1

  0
ENDBLK
  5
21
330
1F
100
AcDbEntity
  8
0
100
AcDbBlockEnd
  0
BLOCK
  5
1C
330
1B
100
AcDbEntity
 67
     1
  8
0
100
AcDbBlockBegin
  2
*Paper_Space
 70
     0
 10
0.0
 20
0.0
 30
0.0
  3
*Paper_Space
  1

  0
ENDBLK
  5
1D
330
1B
100
AcDbEntity
 67
     1
  8
0
100
AcDbBlockEnd
  0
BLOCK
  5
24
330
23
100
AcDbEntity
  8
0
100
AcDbBlockBegin
  2
*Paper_Space0
 70
     0
 10
0.0
 20
0.0
 30
0.0
  3
*Paper_Space0
  1

  0
CIRCLE
  5
87
330
23
100
AcDbEntity
  8
0
  6
Continuous
 62
     7
370
    25
100
AcDbCircle
 10
-30.0
 20
30.0
 30
0.0
 40
3.000000000000004
  0
CIRCLE
  5
88
330
23
100
AcDbEntity
  8
0
  6
Continuous
 62
     7
370
    25
100
AcDbCircle
 10
30.0
 20
-30.0
 30
0.0
 40
2.999999999999989
  0
CIRCLE
  5
89
330
23
100
AcDbEntity
  8
0
  6
Continuous
 62
     7
370
    25
100
AcDbCircle
 10
-30.0
 20
-30.0
 30
0.0
 40
3.000000000000011
  0
CIRCLE
  5
8A
330
23
100
AcDbEntity
  8
0
  6
Continuous
 62
     7
370
    25
100
AcDbCircle
 10
30.0
 20
30.0
 30
0.0
 40
2.999999999999993
  0
LINE
  5
8F
330
23
100
AcDbEntity
  8
0
  6
Continuous
 62
     7
370
    25
100
AcDbLine
 10
-35.0
 20
-35.0
 30
0.0
 11
35.0
 21
-35.0
 31
0.0
  0
LINE
  5
90
330
23
100
AcDbEntity
  8
0
  6
Continuous
 62
     7
370
    25
100
AcDbLine
 10
-35.0
 20
35.0
 30
0.0
 11
-35.0
 21
-35.0
 31
0.0
  0
LINE
  5
91
330
23
100
AcDbEntity
  8
0
  6
Continuous
 62
     7
370
    25
100
AcDbLine
 10
35.0
 20
35.0
 30
0.0
 11
-35.0
 21
35.0
 31
0.0
  0
LINE
  5
92
330
23
100
AcDbEntity
  8
0
  6
Continuous
 62
     7
370
    25
100
AcDbLine
 10
35.0
 20
-35.0
 30
0.0
 11
35.0
 21
35.0
 31
0.0
  0
VIEWPORT
  5
13B
330
23
100
AcDbEntity
  8
0
100
AcDbViewport
 10
0.0
 20
0.0
 30
0.0
 40
205.6
 41
156.0
 68
     1
 69
     1
 12
0.0
 22
0.0
 13
0.0
 23
0.0
 14
10.0
 24
10.0
 15
10.0
 25
10.0
 16
0.0
 26
0.0
 36
1.0
 17
0.0
 27
0.0
 37
0.0
 42
50.0
 43
0.0
 44
0.0
 45
71.4
 50
0.0
 51
0.0
 72
   100
 90
   557152
  1

281
     0
 71
     1
 74
     0
110
0.0
120
0.0
130
0.0
111
1.0
121
0.0
131
0.0
112
0.0
122
1.0
132
0.0
 79
     0
146
0.0
  0
ENDBLK
  5
25
330
23
100
AcDbEntity
  8
0
100
AcDbBlockEnd
  0
BLOCK
  5
95
330
93
100
AcDbEntity
  8
0
100
AcDbBlockBegin
  2
*Paper_Space1
 70
     0
 10
0.0
 20
0.0
 30
0.0
  3
*Paper_Space1
  1

  0
LINE
  5
9B
330
93
100
AcDbEntity
  8
0
  6
Continuous
 62
     7
370
    25
100
AcDbLine
 10
-35.0
 20
2.0
 30
0.0
 11
-35.0
 21
0.0
 31
0.0
  0
LINE
  5
9C
330
93
100
AcDbEntity
  8
0
  6
Continuous
 62
     7
370
    25
100
AcDbLine
 10
-35.0
 20
2.0
 30
0.0
 11
35.0
 21
2.0
 31
0.0
  0
LINE
  5
9D
330
93
100
AcDbEntity
  8
0
  6
Continuous
 62
     7
370
    25
100
AcDbLine
 10
-35.0
 20
0.0
 30
0.0
 11
35.0
 21
0.0
 31
0.0
  0
LINE
  5
9E
330
93
100
AcDbEntity
  8
0
  6
Continuous
 62
     7
370
    25
100
AcDbLine
 10
35.0
 20
2.0
 30
0.0
 11
35.0
 21
0.0
 31
0.0
  0
VIEWPORT
  5
13D
330
93
100
AcDbEntity
  8
0
100
AcDbViewport
 10
0.0
 20
0.0
 30
0.0
 40
205.6
 41
156.0
 68
     1
 69
     1
 12
0.0
 22
0.0
 13
0.0
 23
0.0
 14
10.0
 24
10.0
 15
10.0
 25
10.0
 16
0.0
 26
0.0
 36
1.0
 17
0.0
 27
0.0
 37
0.0
 42
50.0
 43
0.0
 44
0.0
 45
71.4
 50
0.0
 51
0.0
 72
   100
 90
   557152
  1

281
     0
 71
     1
 74
     0
110
0.0
120
0.0
130
0.0
111
1.0
121
0.0
131
0.0
112
0.0
122
1.0
132
0.0
 79
     0
146
0.0
  0
ENDBLK
  5
96
330
93
100
AcDbEntity
  8
0
100
AcDbBlockEnd
  0
BLOCK
  5
A1
330
9F
100
AcDbEntity
  8
0
100
AcDbBlockBegin
  2
*Paper_Space2
 70
     0
 10
0.0
 20
0.0
 30
0.0
  3
*Paper_Space2
  1

  0
LINE
  5
A7
330
9F
100
AcDbEntity
  8
0
  6
Continuous
 62
     7
370
    25
100
AcDbLine
 10
-35.0
 20
2.0
 30
0.0
 11
35.0
 21
2.0
 31
0.0
  0
LINE
  5
A8
330
9F
100
AcDbEntity
  8
0
  6
Continuous
 62
     7
370
    25
100
AcDbLine
 10
35.0
 20
2.0
 30
0.0
 11
35.0
 21
0.0
 31
0.0
  0
LINE
  5
A9
330
9F
100
AcDbEntity
  8
0
  6
Continuous
 62
     7
370
    25
100
AcDbLine
 10
-35.0
 20
0.0
 30
0.0
 11
35.0
 21
0.0
 31
0.0
  0
LINE
  5
AA
330
9F
100
AcDbEntity
  8
0
  6
Continuous
 62
     7
370
    25
100
AcDbLine
 10
-35.0
 20
2.0
 30
0.0
 11
-35.0
 21
0.0
 31
0.0
  0
VIEWPORT
  5
13F
330
9F
100
AcDbEntity
  8
0
100
AcDbViewport
 10
0.0
 20
0.0
 30
0.0
 40
205.6
 41
156.0
 68
     1
 69
     1
 12
0.0
 22
0.0
 13
0.0
 23
0.0
 14
10.0
 24
10.0
 15
10.0
 25
10.0
 16
0.0
 26
0.0
 36
1.0
 17
0.0
 27
0.0
 37
0.0
 42
50.0
 43
0.0
 44
0.0
 45
71.4
 50
0.0
 51
0.0
 72
   100
 90
   557152
  1

281
     0
 71
     1
 74
     0
110
0.0
120
0.0
130
0.0
111
1.0
121
0.0
131
0.0
112
0.0
122
1.0
132
0.0
 79
     0
146
0.0
  0
ENDBLK
  5
A2
330
9F
100
AcDbEntity
  8
0
100
AcDbBlockEnd
  0
BLOCK
  5
AD
330
AB
100
AcDbEntity
  8
0
100
AcDbBlockBegin
  2
*Paper_Space3
 70
     0
 10
0.0
 20
0.0
 30
0.0
  3
*Paper_Space3
  1

  0
LINE
  5
B3
330
AB
100
AcDbEntity
  8
0
  6
Continuous
 62
     7
370
    25
100
AcDbLine
 10
-35.0
 20
2.0
 30
0.0
 11
35.0
 21
2.0
 31
0.0
  0
LINE
  5
B4
330
AB
100
AcDbEntity
  8
0
  6
Continuous
 62
     7
370
    25
100
AcDbLine
 10
35.0
 20
2.0
 30
0.0
 11
35.0
 21
0.0
 31
0.0
  0
LINE
  5
B5
330
AB
100
AcDbEntity
  8
0
  6
Continuous
 62
     7
370
    25
100
AcDbLine
 10
-35.0
 20
2.0
 30
0.0
 11
-35.0
 21
0.0
 31
0.0
  0
LINE
  5
B6
330
AB
100
AcDbEntity
  8
0
  6
Continuous
 62
     7
370
    25
100
AcDbLine
 10
-35.0
 20
0.0
 30
0.0
 11
35.0
 21
0.0
 31
0.0
  0
VIEWPORT
  5
141
330
AB
100
AcDbEntity
  8
0
100
AcDbViewport
 10
0.0
 20
0.0
 30
0.0
 40
205.6
 41
156.0
 68
     1
 69
     1
 12
0.0
 22
0.0
 13
0.0
 23
0.0
 14
10.0
 24
10.0
 15
10.0
 25
10.0
 16
0.0
 26
0.0
 36
1.0
 17
0.0
 27
0.0
 37
0.0
 42
50.0
 43
0.0
 44
0.0
 45
71.4
 50
0.0
 51
0.0
 72
   100
 90
   557152
  1

281
     0
 71
     1
 74
     0
110
0.0
120
0.0
130
0.0
111
1.0
121
0.0
131
0.0
112
0.0
122
1.0
132
0.0
 79
     0
146
0.0
  0
ENDBLK
  5
AE
330
AB
100
AcDbEntity
  8
0
100
AcDbBlockEnd
  0
BLOCK
  5
B9
330
B7
100
AcDbEntity
  8
0
100
AcDbBlockBegin
  2
*Paper_Space4
 70
     0
 10
0.0
 20
0.0
 30
0.0
  3
*Paper_Space4
  1

  0
LINE
  5
BF
330
B7
100
AcDbEntity
  8
0
  6
Continuous
 62
     7
370
    25
100
AcDbLine
 10
-35.0
 20
2.0
 30
0.0
 11
-35.0
 21
0.0
 31
0.0
  0
LINE
  5
C0
330
B7
100
AcDbEntity
  8
0
  6
Continuous
 62
     7
370
    25
100
AcDbLine
 10
-35.0
 20
2.0
 30
0.0
 11
35.0
 21
2.0
 31
0.0
  0
LINE
  5
C1
330
B7
100
AcDbEntity
  8
0
  6
Continuous
 62
     7
370
    25
100
AcDbLine
 10
35.0
 20
2.0
 30
0.0
 11
35.0
 21
0.0
 31
0.0
  0
LINE
  5
C2
330
B7
100
AcDbEntity
  8
0
  6
Continuous
 62
     7
370
    25
100
AcDbLine
 10
-35.0
 20
0.0
 30
0.0
 11
35.0
 21
0.0
 31
0.0
  0
VIEWPORT
  5
143
330
B7
100
AcDbEntity
  8
0
100
AcDbViewport
 10
0.0
 20
0.0
 30
0.0
 40
205.6
 41
156.0
 68
     1
 69
     1
 12
0.0
 22
0.0
 13
0.0
 23
0.0
 14
10.0
 24
10.0
 15
10.0
 25
10.0
 16
0.0
 26
0.0
 36
1.0
 17
0.0
 27
0.0
 37
0.0
 42
50.0
 43
0.0
 44
0.0
 45
71.4
 50
0.0
 51
0.0
 72
   100
 90
   557152
  1

281
     0
 71
     1
 74
     0
110
0.0
120
0.0
130
0.0
111
1.0
121
0.0
131
0.0
112
0.0
122
1.0
132
0.0
 79
     0
146
0.0
  0
ENDBLK
  5
BA
330
B7
100
AcDbEntity
  8
0
100
AcDbBlockEnd
  0
BLOCK
  5
C5
330
C3
100
AcDbEntity
  8
0
100
AcDbBlockBegin
  2
*Paper_Space5
 70
     0
 10
0.0
 20
0.0
 30
0.0
  3
*Paper_Space5
  1

  0
CIRCLE
  5
C7
330
C3
100
AcDbEntity
  8
0
  6
Continuous
 62
     7
370
    25
100
AcDbCircle
 10
-30.0
 20
-30.0
 30
0.0
 40
3.000000000000004
  0
CIRCLE
  5
C8
330
C3
100
AcDbEntity
  8
0
  6
Continuous
 62
     7
370
    25
100
AcDbCircle
 10
30.0
 20
30.0
 30
0.0
 40
2.999999999999989
  0
CIRCLE
  5
C9
330
C3
100
AcDbEntity
  8
0
  6
Continuous
 62
     7
370
    25
100
AcDbCircle
 10
-30.0
 20
30.0
 30
0.0
 40
3.000000000000011
  0
CIRCLE
  5
CA
330
C3
100
AcDbEntity
  8
0
  6
Continuous
 62
     7
370
    25
100
AcDbCircle
 10
30.0
 20
-30.0
 30
0.0
 40
2.999999999999993
  0
LINE
  5
CF
330
C3
100
AcDbEntity
  8
0
  6
Continuous
 62
     7
370
    25
100
AcDbLine
 10
-35.0
 20
35.0
 30
0.0
 11
35.0
 21
35.0
 31
0.0
  0
LINE
  5
D0
330
C3
100
AcDbEntity
  8
0
  6
Continuous
 62
     7
370
    25
100
AcDbLine
 10
-35.0
 20
-35.0
 30
0.0
 11
-35.0
 21
35.0
 31
0.0
  0
LINE
  5
D1
330
C3
100
AcDbEntity
  8
0
  6
Continuous
 62
     7
370
    25
100
AcDbLine
 10
35.0
 20
-35.0
 30
0.0
 11
-35.0
 21
-35.0
 31
0.0
  0
LINE
  5
D2
330
C3
100
AcDbEntity
  8
0
  6
Continuous
 62
     7
370
    25
100
AcDbLine
 10
35.0
 20
35.0
 30
0.0
 11
35.0
 21
-35.0
 31
0.0
  0
VIEWPORT
  5
145
330
C3
100
AcDbEntity
  8
0
100
AcDbViewport
 10
0.0
 20
0.0
 30
0.0
 40
205.6
 41
156.0
 68
     1
 69
     1
 12
0.0
 22
0.0
 13
0.0
 23
0.0
 14
10.0
 24
10.0
 15
10.0
 25
10.0
 16
0.0
 26
0.0
 36
1.0
 17
0.0
 27
0.0
 37
0.0
 42
50.0
 43
0.0
 44
0.0
 45
71.4
 50
0.0
 51
0.0
 72
   100
 90
   557152
  1

281
     0
 71
     1
 74
     0
110
0.0
120
0.0
130
0.0
111
1.0
121
0.0
131
0.0
112
0.0
122
1.0
132
0.0
 79
     0
146
0.0
  0
ENDBLK
  5
C6
330
C3
100
AcDbEntity
  8
0
100
AcDbBlockEnd
  0
BLOCK
  5
D5
330
D3
100
AcDbEntity
  8
0
100
AcDbBlockBegin
  2
*Paper_Space6
 70
     0
 10
0.0
 20
0.0
 30
0.0
  3
*Paper_Space6
  1

  0
LWPOLYLINE
  5
E0
330
D3
100
AcDbEntity
  8
0
  6
Continuous
 62
     7
370
    25
100
AcDbPolyline
 90
       42
 70
   128
 43
0.0
 10
-2.1213203436
 20
24.9007128107
 10
-1.7726413361
 20
24.7281285755
 10
-1.3824131181
 20
24.5882934398
 10
-0.9597823083
 20
24.4844850206
 10
-0.5146550146
 20
24.4191364993
 10
-0.0574646437
 20
24.3937795898
 10
0.4010726499
 20
24.4090086367
 10
0.8502091404
 20
24.464466684
 10
1.2794174493
 20
24.558853842
 10
1.6786372975
 20
24.6899577557
 10
2.0385113103
 20
24.8547054606
 10
2.3506043457
 20
25.0492354101
 10
2.6076012075
 20
25.268987987
 10
2.8034781071
 20
25.5088123771
 10
2.9336438561
 20
25.7630873002
 10
2.9950474794
 20
26.0258527673
 10
2.9862497283
 20
26.2909497788
 10
2.9074568147
 20
26.5521646854
 10
2.7605155775
 20
26.803374831
 10
2.5488701949
 20
27.0386920627
 10
2.2774814552
 20
27.2526007442
 10
1.9527104806
 20
27.4400870371
 10
1.5821696273
 20
27.5967564217
 10
1.174544059
 20
27.7189367004
 10
0.7393881734
 20
27.803764071
 10
0.2869016556
 20
27.8492502518
 10
-0.1723095937
 20
27.8543290854
 10
-0.6274820522
 20
27.8188815282
 10
-1.0679468633
 20
27.7437384408
 10
-1.483379905
 20
27.6306611136
 10
-1.864043779
 20
27.4822999832
 10
-2.2010160467
 20
27.3021325088
 10
-2.4863983638
 20
27.0943816634
 10
-2.7135016106
 20
26.8639169506
 10
-2.8770026795
 20
26.6161402679
 10
-2.973069244
 20
26.3568592909
 10
-2.9994495853
 20
26.0921513458
 10
-2.9555253705
 20
25.8282209625
 10
-2.8423261461
 20
25.5712544456
 10
-2.6625052058
 20
25.3272748724
 10
-2.4202774002
 20
25.1020009172
 10
-2.1213203436
 20
24.9007128107
  0
LWPOLYLINE
  5
E1
330
D3
100
AcDbEntity
  8
0
  6
Continuous
 62
     7
370
    25
100
AcDbPolyline
 90
       42
 70
   128
 43
0.0
 10
-2.1213203436
 20
-24.0837738986
 10
-1.7726413361
 20
-24.2563581339
 10
-1.3824131181
 20
-24.3961932696
 10
-0.9597823083
 20
-24.5000016888
 10
-0.5146550146
 20
-24.5653502101
 10
-0.0574646437
 20
-24.5907071195
 10
0.4010726499
 20
-24.5754780726
 10
0.8502091404
 20
-24.5200200254
 10
1.2794174493
 20
-24.4256328674
 10
1.6786372975
 20
-24.2945289537
 10
2.0385113103
 20
-24.1297812488
 10
2.3506043457
 20
-23.9352512993
 10
2.6076012075
 20
-23.7154987224
 10
2.8034781071
 20
-23.4756743322
 10
2.9336438561
 20
-23.2213994092
 10
2.9950474794
 20
-22.958633942
 10
2.9862497283
 20
-22.6935369305
 10
2.9074568147
 20
-22.432322024
 10
2.7605155775
 20
-22.1811118784
 10
2.5488701949
 20
-21.9457946466
 10
2.2774814552
 20
-21.7318859652
 10
1.9527104806
 20
-21.5443996723
 10
1.5821696273
 20
-21.3877302877
 10
1.174544059
 20
-21.265550009
 10
0.7393881734
 20
-21.1807226384
 10
0.2869016556
 20
-21.1352364575
 10
-0.1723095937
 20
-21.1301576239
 10
-0.6274820522
 20
-21.1656051812
 10
-1.0679468633
 20
-21.2407482686
 10
-1.483379905
 20
-21.3538255958
 10
-1.864043779
 20
-21.5021867262
 10
-2.2010160467
 20
-21.6823542005
 10
-2.4863983638
 20
-21.890105046
 10
-2.7135016106
 20
-22.1205697588
 10
-2.8770026795
 20
-22.3683464415
 10
-2.973069244
 20
-22.6276274185
 10
-2.9994495853
 20
-22.8923353636
 10
-2.9555253705
 20
-23.1562657468
 10
-2.8423261461
 20
-23.4132322638
 10
-2.6625052058
 20
-23.657211837
 10
-2.4202774001
 20
-23.8824857922
 10
-2.1213203436
 20
-24.0837738986
  0
LWPOLYLINE
  5
E2
330
D3
100
AcDbEntity
  8
0
  6
Continuous
 62
     7
370
    25
100
AcDbPolyline
 90
       42
 70
   128
 43
0.0
 10
-44.5477272148
 20
0.408469456
 10
-44.1990482073
 20
0.2358852208
 10
-43.8088199893
 20
0.0960500851
 10
-43.3861891795
 20
-0.0077583341
 10
-42.9410618858
 20
-0.0731068554
 10
-42.4838715149
 20
-0.0984637648
 10
-42.0253342213
 20
-0.083234718
 10
-41.5761977308
 20
-0.0277766707
 10
-41.1469894219
 20
0.0666104873
 10
-40.7477695736
 20
0.197714401
 10
-40.3878955609
 20
0.3624621059
 10
-40.0758025255
 20
0.5569920554
 10
-39.8188056637
 20
0.7767446323
 10
-39.622928764
 20
1.0165690225
 10
-39.4927630151
 20
1.2708439455
 10
-39.4313593918
 20
1.5336094127
 10
-39.4401571429
 20
1.7987064242
 10
-39.5189500565
 20
2.0599213307
 10
-39.6658912937
 20
2.3111314763
 10
-39.8775366763
 20
2.5464487081
 10
-40.1489254159
 20
2.7603573895
 10
-40.4736963906
 20
2.9478436824
 10
-40.8442372439
 20
3.104513067
 10
-41.2518628122
 20
3.2266933457
 10
-41.6870186978
 20
3.3115207163
 10
-42.1395052155
 20
3.3570068972
 10
-42.5987164649
 20
3.3620857307
 10
-43.0538889234
 20
3.3266381735
 10
-43.4943537345
 20
3.2514950861
 10
-43.9097867762
 20
3.1384177589
 10
-44.2904506502
 20
2.9900566285
 10
-44.6274229179
 20
2.8098891542
 10
-44.9128052349
 20
2.6021383087
 10
-45.1399084817
 20
2.3716735959
 10
-45.3034095506
 20
2.1238969132
 10
-45.3994761152
 20
1.8646159362
 10
-45.4258564565
 20
1.5999079911
 10
-45.3819322417
 20
1.3359776079
 10
-45.2687330173
 20
1.0790110909
 10
-45.088912077
 20
0.8350315177
 10
-44.8466842713
 20
0.6097575625
 10
-44.5477272148
 20
0.408469456
  0
LWPOLYLINE
  5
E3
330
D3
100
AcDbEntity
  8
0
  6
Continuous
 62
     7
370
    25
100
AcDbPolyline
 90
       42
 70
   128
 43
0.0
 10
40.3050865276
 20
0.408469456
 10
40.6537655351
 20
0.2358852208
 10
41.0439937531
 20
0.0960500851
 10
41.4666245629
 20
-0.0077583341
 10
41.9117518566
 20
-0.0731068554
 10
42.3689422275
 20
-0.0984637648
 10
42.827479521
 20
-0.083234718
 10
43.2766160116
 20
-0.0277766707
 10
43.7058243205
 20
0.0666104873
 10
44.1050441687
 20
0.197714401
 10
44.4649181815
 20
0.3624621059
 10
44.7770112169
 20
0.5569920554
 10
45.0340080787
 20
0.7767446323
 10
45.2298849783
 20
1.0165690225
 10
45.3600507272
 20
1.2708439455
 10
45.4214543506
 20
1.5336094127
 10
45.4126565995
 20
1.7987064242
 10
45.3338636859
 20
2.0599213307
 10
45.1869224487
 20
2.3111314763
 10
44.9752770661
 20
2.5464487081
 10
44.7038883264
 20
2.7603573895
 10
44.3791173518
 20
2.9478436824
 10
44.0085764985
 20
3.104513067
 10
43.6009509302
 20
3.2266933457
 10
43.1657950446
 20
3.3115207163
 10
42.7133085268
 20
3.3570068972
 10
42.2540972775
 20
3.3620857307
 10
41.798924819
 20
3.3266381735
 10
41.3584600079
 20
3.2514950861
 10
40.9430269662
 20
3.1384177589
 10
40.5623630922
 20
2.9900566285
 10
40.2253908245
 20
2.8098891542
 10
39.9400085074
 20
2.6021383087
 10
39.7129052606
 20
2.3716735959
 10
39.5494041917
 20
2.1238969132
 10
39.4533376272
 20
1.8646159362
 10
39.4269572859
 20
1.5999079911
 10
39.4708815007
 20
1.3359776079
 10
39.5840807251
 20
1.0790110909
 10
39.7639016654
 20
0.8350315177
 10
40.006129471
 20
0.6097575625
 10
40.3050865276
 20
0.408469456
  0
LINE
  5
E8
330
D3
100
AcDbEntity
  8
0
  6
Continuous
 62
     7
370
    25
100
AcDbLine
 10
0.0
 20
-26.94120229
 30
0.0
 11
0.0
 21
-28.5742839138
 31
0.0
  0
LINE
  5
E9
330
D3
100
AcDbEntity
  8
0
  6
Continuous
 62
     7
370
    25
100
AcDbLine
 10
0.0
 20
-26.94120229
 30
0.0
 11
49.4974746831
 21
1.6330816238
 31
0.0
  0
LINE
  5
EA
330
D3
100
AcDbEntity
  8
0
  6
Continuous
 62
     7
370
    25
100
AcDbLine
 10
49.4974746831
 20
1.6330816238
 30
0.0
 11
49.4974746831
 21
0.0
 31
0.0
  0
LINE
  5
EB
330
D3
100
AcDbEntity
  8
0
  6
Continuous
 62
     7
370
    25
100
AcDbLine
 10
0.0
 20
-28.5742839138
 30
0.0
 11
49.4974746831
 21
0.0
 31
0.0
  0
LINE
  5
EC
330
D3
100
AcDbEntity
  8
0
  6
Continuous
 62
     7
370
    25
100
AcDbLine
 10
-49.4974746831
 20
1.6330816238
 30
0.0
 11
-49.4974746831
 21
0.0
 31
0.0
  0
LINE
  5
ED
330
D3
100
AcDbEntity
  8
0
  6
Continuous
 62
     7
370
    25
100
AcDbLine
 10
-49.4974746831
 20
1.6330816238
 30
0.0
 11
0.0
 21
-26.94120229
 31
0.0
  0
LINE
  5
EE
330
D3
100
AcDbEntity
  8
0
  6
Continuous
 62
     7
370
    25
100
AcDbLine
 10
-49.4974746831
 20
0.0
 30
0.0
 11
0.0
 21
-28.5742839138
 31
0.0
  0
LINE
  5
EF
330
D3
100
AcDbEntity
  8
0
  6
Continuous
 62
     7
370
    25
100
AcDbLine
 10
0.0
 20
30.2073655376
 30
0.0
 11
-49.4974746831
 21
1.6330816238
 31
0.0
  0
LINE
  5
F0
330
D3
100
AcDbEntity
  8
0
  6
Continuous
 62
     7
370
    25
100
AcDbLine
 10
49.4974746831
 20
1.6330816238
 30
0.0
 11
0.0
 21
30.2073655376
 31
0.0
  0
ARC
  5
F1
330
D3
100
AcDbEntity
  8
0
  6
Continuous
 62
     7
370
    25
100
AcDbCircle
 10
0.0
 20
-26.8286803682
 30
0.0
 40
4.115898316236968
100
AcDbArc
 50
50.000363656
 51
129.999636344
  0
ARC
  5
F2
330
D3
100
AcDbEntity
  8
0
  6
Continuous
 62
     7
370
    25
100
AcDbCircle
 10
-42.4264068712
 20
-2.3364370136
 30
0.0
 40
4.11589831623691
100
AcDbArc
 50
50.000363656
 51
129.999636344
  0
ARC
  5
F3
330
D3
100
AcDbEntity
  8
0
  6
Continuous
 62
     7
370
    25
100
AcDbCircle
 10
42.4264068712
 20
-2.3364370136
 30
0.0
 40
4.115898316236939
100
AcDbArc
 50
50.000363656
 51
129.999636344
  0
ARC
  5
F4
330
D3
100
AcDbEntity
  8
0
  6
Continuous
 62
     7
370
    25
100
AcDbCircle
 10
0.0
 20
22.1558063411
 30
0.0
 40
4.115898316236956
100
AcDbArc
 50
50.000363656
 51
129.999636344
  0
VIEWPORT
  5
147
330
D3
100
AcDbEntity
  8
0
100
AcDbViewport
 10
0.0
 20
0.0
 30
0.0
 40
205.6
 41
156.0
 68
     1
 69
     1
 12
0.0
 22
0.0
 13
0.0
 23
0.0
 14
10.0
 24
10.0
 15
10.0
 25
10.0
 16
0.0
 26
0.0
 36
1.0
 17
0.0
 27
0.0
 37
0.0
 42
50.0
 43
0.0
 44
0.0
 45
71.4
 50
0.0
 51
0.0
 72
   100
 90
   557152
  1

281
     0
 71
     1
 74
     0
110
0.0
120
0.0
130
0.0
111
1.0
121
0.0
131
0.0
112
0.0
122
1.0
132
0.0
 79
     0
146
0.0
  0
ENDBLK
  5
D6
330
D3
100
AcDbEntity
  8
0
100
AcDbBlockEnd
  0
BLOCK
  5
F7
330
F5
100
AcDbEntity
  8
0
100
AcDbBlockBegin
  2
*Paper_Space7
 70
     0
 10
0.0
 20
0.0
 30
0.0
  3
*Paper_Space7
  1

  0
LWPOLYLINE
  5
102
330
F5
100
AcDbEntity
  8
0
  6
Continuous
 62
     7
370
    25
100
AcDbPolyline
 90
       42
 70
   128
 43
0.0
 10
-13.9317681492
 20
21.2240546256
 10
-13.510342353
 20
21.1299946979
 10
-13.0659775872
 20
21.0701696903
 10
-12.6090893852
 20
21.0459818502
 10
-12.1503868193
 20
21.0579981203
 10
-11.7006214889
 20
21.1059368492
 10
-11.2703355121
 20
21.1886743939
 10
-10.8696144275
 20
21.3042714563
 10
-10.5078507976
 20
21.4500185394
 10
-10.1935240554
 20
21.622499455
 10
-9.9340017533
 20
21.8176713966
 10
-9.7353668741
 20
22.0309596994
 10
-9.6022752509
 20
22.2573650663
 10
-9.5378464387
 20
22.4915807474
 10
-9.5435905942
 20
22.7281169257
 10
-9.6193730792
 20
22.9614293936
 10
-9.7634176166
 20
23.1860495046
 10
-9.9723479244
 20
23.3967123537
 10
-10.2412668534
 20
23.5884801822
 10
-10.5638711717
 20
23.7568581149
 10
-10.9325993076
 20
23.8978995156
 10
-11.338808586
 20
24.0082984934
 10
-11.7729778059
 20
24.08546739
 10
-12.2249304086
 20
24.1275974317
 10
-12.6840730081
 20
24.1337011262
 10
-13.1396436912
 20
24.1036354079
 10
-13.5809642672
 20
24.0381049918
 10
-13.9976905557
 20
23.9386458554
 10
-14.3800548458
 20
23.8075892365
 10
-14.7190948425
 20
23.6480069911
 10
-15.0068637358
 20
23.4636395919
 10
-15.2366164667
 20
23.2588084544
 10
-15.4029678259
 20
23.0383146469
 10
-15.5020186784
 20
22.8073263573
 10
-15.5314473564
 20
22.5712577554
 10
-15.4905640765
 20
22.3356420891
 10
-15.3803271081
 20
22.10600199
 10
-15.2033203124
 20
21.8877200272
 10
-14.9636925785
 20
21.6859125452
 10
-14.6670605776
 20
21.50530974
 10
-14.3203771123
 20
21.3501447885
 10
-13.9317681492
 20
21.2240546256
  0
LWPOLYLINE
  5
103
330
F5
100
AcDbEntity
  8
0
  6
Continuous
 62
     7
370
    25
100
AcDbPolyline
 90
       42
 70
   128
 43
0.0
 10
11.1315958156
 20
-20.5284394637
 10
11.5530216118
 20
-20.6224993914
 10
11.9973863777
 20
-20.682324399
 10
12.4542745796
 20
-20.706512239
 10
12.9129771455
 20
-20.694495969
 10
13.3627424759
 20
-20.6465572401
 10
13.7930284528
 20
-20.5638196954
 10
14.1937495374
 20
-20.448222633
 10
14.5555131672
 20
-20.3024755499
 10
14.8698399094
 20
-20.1299946343
 10
15.1293622115
 20
-19.9348226927
 10
15.3279970908
 20
-19.7215343899
 10
15.4610887139
 20
-19.495129023
 10
15.5255175261
 20
-19.2609133419
 10
15.5197733706
 20
-19.0243771636
 10
15.4439908856
 20
-18.7910646957
 10
15.2999463482
 20
-18.5664445847
 10
15.0910160404
 20
-18.3557817356
 10
14.8220971115
 20
-18.1640139071
 10
14.4994927931
 20
-17.9956359744
 10
14.1307646573
 20
-17.8545945737
 10
13.7245553788
 20
-17.7441955959
 10
13.290386159
 20
-17.6670266993
 10
12.8384335563
 20
-17.6248966575
 10
12.3792909567
 20
-17.6187929631
 10
11.9237202736
 20
-17.6488586814
 10
11.4823996977
 20
-17.7143890975
 10
11.0656734092
 20
-17.8138482339
 10
10.6833091191
 20
-17.9449048528
 10
10.3442691223
 20
-18.1044870982
 10
10.056500229
 20
-18.2888544974
 10
9.8267474981
 20
-18.4936856349
 10
9.660396139
 20
-18.7141794424
 10
9.5613452864
 20
-18.945167732
 10
9.5319166085
 20
-19.1812363339
 10
9.5727998884
 20
-19.4168520002
 10
9.6830368568
 20
-19.6464920993
 10
9.8600436525
 20
-19.864774062
 10
10.0996713863
 20
-20.0665815441
 10
10.3963033872
 20
-20.2471843493
 10
10.7429868525
 20
-20.4023493008
 10
11.1315958156
 20
-20.5284394637
  0
LWPOLYLINE
  5
104
330
F5
100
AcDbEntity
  8
0
  6
Continuous
 62
     7
370
    25
100
AcDbPolyline
 90
       42
 70
   128
 43
0.0
 10
-41.933491485
 20
-6.1064857826
 10
-41.5120656888
 20
-6.2005457104
 10
-41.067700923
 20
-6.260370718
 10
-40.610812721
 20
-6.284558558
 10
-40.1521101551
 20
-6.272542288
 10
-39.7023448247
 20
-6.224603559
 10
-39.2720588479
 20
-6.1418660144
 10
-38.8713377633
 20
-6.0262689519
 10
-38.5095741334
 20
-5.8805218689
 10
-38.1952473912
 20
-5.7080409533
 10
-37.9357250891
 20
-5.5128690117
 10
-37.7370902099
 20
-5.2995807089
 10
-37.6039985867
 20
-5.073175342
 10
-37.5395697745
 20
-4.8389596608
 10
-37.54531393
 20
-4.6024234826
 10
-37.621096415
 20
-4.3691110147
 10
-37.7651409524
 20
-4.1444909037
 10
-37.9740712602
 20
-3.9338280546
 10
-38.2429901892
 20
-3.742060226
 10
-38.5655945075
 20
-3.5736822934
 10
-38.9343226434
 20
-3.4326408927
 10
-39.3405319218
 20
-3.3222419148
 10
-39.7747011417
 20
-3.2450730183
 10
-40.2266537444
 20
-3.2029429765
 10
-40.6857963439
 20
-3.1968392821
 10
-41.141367027
 20
-3.2269050004
 10
-41.582687603
 20
-3.2924354164
 10
-41.9994138915
 20
-3.3918945529
 10
-42.3817781816
 20
-3.5229511718
 10
-42.7208181784
 20
-3.6825334171
 10
-43.0085870717
 20
-3.8669008163
 10
-43.2383398025
 20
-4.0717319538
 10
-43.4046911617
 20
-4.2922257614
 10
-43.5037420142
 20
-4.5232140509
 10
-43.5331706922
 20
-4.7592826528
 10
-43.4922874123
 20
-4.9948983191
 10
-43.3820504439
 20
-5.2245384183
 10
-43.2050436482
 20
-5.442820381
 10
-42.9654159144
 20
-5.6446278631
 10
-42.6687839135
 20
-5.8252306682
 10
-42.3221004481
 20
-5.9803956197
 10
-41.933491485
 20
-6.1064857826
  0
LWPOLYLINE
  5
105
330
F5
100
AcDbEntity
  8
0
  6
Continuous
 62
     7
370
    25
100
AcDbPolyline
 90
       42
 70
   128
 43
0.0
 10
39.1333191514
 20
6.8021009446
 10
39.5547449477
 20
6.7080410169
 10
39.9991097135
 20
6.6482160092
 10
40.4559979154
 20
6.6240281692
 10
40.9147004813
 20
6.6360444393
 10
41.3644658117
 20
6.6839831682
 10
41.7947517886
 20
6.7667207128
 10
42.1954728732
 20
6.8823177753
 10
42.557236503
 20
7.0280648583
 10
42.8715632452
 20
7.2005457739
 10
43.1310855473
 20
7.3957177156
 10
43.3297204266
 20
7.6090060184
 10
43.4628120497
 20
7.8354113853
 10
43.5272408619
 20
8.0696270664
 10
43.5214967064
 20
8.3061632447
 10
43.4457142214
 20
8.5394757125
 10
43.301669684
 20
8.7640958235
 10
43.0927393762
 20
8.9747586726
 10
42.8238204473
 20
9.1665265012
 10
42.5012161289
 20
9.3349044338
 10
42.1324879931
 20
9.4759458345
 10
41.7262787146
 20
9.5863448124
 10
41.2921094948
 20
9.663513709
 10
40.8401568921
 20
9.7056437507
 10
40.3810142925
 20
9.7117474451
 10
39.9254436094
 20
9.6816817269
 10
39.4841230335
 20
9.6161513108
 10
39.067396745
 20
9.5166921744
 10
38.6850324549
 20
9.3856355554
 10
38.3459924581
 20
9.2260533101
 10
38.0582235648
 20
9.0416859109
 10
37.8284708339
 20
8.8368547734
 10
37.6621194748
 20
8.6163609659
 10
37.5630686222
 20
8.3853726763
 10
37.5336399443
 20
8.1493040744
 10
37.5745232242
 20
7.9136884081
 10
37.6847601926
 20
7.6840483089
 10
37.8617669883
 20
7.4657663462
 10
38.1013947221
 20
7.2639588641
 10
38.398026723
 20
7.083356059
 10
38.7447101883
 20
6.9281911075
 10
39.1333191514
 20
6.8021009446
  0
LINE
  5
10A
330
F5
100
AcDbEntity
  8
0
  6
Continuous
 62
     7
370
    25
100
AcDbLine
 10
14.6202956462
 20
-22.6412869507
 30
0.0
 11
14.6202956462
 21
-24.3556215521
 31
0.0
  0
LINE
  5
10B
330
F5
100
AcDbEntity
  8
0
  6
Continuous
 62
     7
370
    25
100
AcDbLine
 10
14.6202956462
 20
-22.6412869507
 30
0.0
 11
47.2889728713
 21
9.2443435256
 31
0.0
  0
LINE
  5
10C
330
F5
100
AcDbEntity
  8
0
  6
Continuous
 62
     7
370
    25
100
AcDbLine
 10
47.2889728713
 20
9.2443435256
 30
0.0
 11
47.2889728713
 21
7.5300089242
 31
0.0
  0
LINE
  5
10D
330
F5
100
AcDbEntity
  8
0
  6
Continuous
 62
     7
370
    25
100
AcDbLine
 10
14.6202956462
 20
-24.3556215521
 30
0.0
 11
47.2889728713
 21
7.5300089242
 31
0.0
  0
LINE
  5
10E
330
F5
100
AcDbEntity
  8
0
  6
Continuous
 62
     7
370
    25
100
AcDbLine
 10
-47.2889728713
 20
-5.8156743228
 30
0.0
 11
-47.2889728713
 21
-7.5300089242
 31
0.0
  0
LINE
  5
10F
330
F5
100
AcDbEntity
  8
0
  6
Continuous
 62
     7
370
    25
100
AcDbLine
 10
-47.2889728713
 20
-5.8156743228
 30
0.0
 11
14.6202956462
 21
-22.6412869507
 31
0.0
  0
LINE
  5
110
330
F5
100
AcDbEntity
  8
0
  6
Continuous
 62
     7
370
    25
100
AcDbLine
 10
-47.2889728713
 20
-7.5300089242
 30
0.0
 11
14.6202956462
 21
-24.3556215521
 31
0.0
  0
LINE
  5
111
330
F5
100
AcDbEntity
  8
0
  6
Continuous
 62
     7
370
    25
100
AcDbLine
 10
-14.6202956462
 20
26.0699561535
 30
0.0
 11
-47.2889728713
 21
-5.8156743228
 31
0.0
  0
LINE
  5
112
330
F5
100
AcDbEntity
  8
0
  6
Continuous
 62
     7
370
    25
100
AcDbLine
 10
47.2889728713
 20
9.2443435256
 30
0.0
 11
-14.6202956462
 21
26.0699561535
 31
0.0
  0
ARC
  5
113
330
F5
100
AcDbEntity
  8
0
  6
Continuous
 62
     7
370
    25
100
AcDbCircle
 10
12.5316819824
 20
-23.9410351902
 30
0.0
 40
4.64886097090643
100
AcDbArc
 50
57.526293693
 51
122.473706307
  0
ARC
  5
114
330
F5
100
AcDbEntity
  8
0
  6
Continuous
 62
     7
370
    25
100
AcDbCircle
 10
-40.5334053182
 20
-9.5190815091
 30
0.0
 40
4.648860970906341
100
AcDbArc
 50
57.526293693
 51
122.473706307
  0
ARC
  5
115
330
F5
100
AcDbEntity
  8
0
  6
Continuous
 62
     7
370
    25
100
AcDbCircle
 10
40.5334053182
 20
3.3895052181
 30
0.0
 40
4.648860970906354
100
AcDbArc
 50
57.526293693
 51
122.473706307
  0
ARC
  5
116
330
F5
100
AcDbEntity
  8
0
  6
Continuous
 62
     7
370
    25
100
AcDbCircle
 10
-12.5316819824
 20
17.8114588991
 30
0.0
 40
4.648860970906371
100
AcDbArc
 50
57.526293693
 51
122.473706307
  0
VIEWPORT
  5
149
330
F5
100
AcDbEntity
  8
0
100
AcDbViewport
 10
0.0
 20
0.0
 30
0.0
 40
205.6
 41
156.0
 68
     1
 69
     1
 12
0.0
 22
0.0
 13
0.0
 23
0.0
 14
10.0
 24
10.0
 15
10.0
 25
10.0
 16
0.0
 26
0.0
 36
1.0
 17
0.0
 27
0.0
 37
0.0
 42
50.0
 43
0.0
 44
0.0
 45
71.4
 50
0.0
 51
0.0
 72
   100
 90
   557152
  1

281
     0
 71
     1
 74
     0
110
0.0
120
0.0
130
0.0
111
1.0
121
0.0
131
0.0
112
0.0
122
1.0
132
0.0
 79
     0
146
0.0
  0
ENDBLK
  5
F8
330
F5
100
AcDbEntity
  8
0
100
AcDbBlockEnd
  0
BLOCK
  5
119
330
117
100
AcDbEntity
  8
0
100
AcDbBlockBegin
  2
*Paper_Space8
 70
     0
 10
0.0
 20
0.0
 30
0.0
  3
*Paper_Space8
  1

  0
LWPOLYLINE
  5
124
330
117
100
AcDbEntity
  8
0
  6
Continuous
 62
     7
370
    25
100
AcDbPolyline
 90
       42
 70
   128
 43
0.0
 10
-18.5164888579
 20
13.839881106
 10
-18.0756873787
 20
13.7968740938
 10
-17.6203569372
 20
13.7768004489
 10
-17.1611700929
 20
13.7801306806
 10
-16.7088897963
 20
13.8067867311
 10
-16.2741171142
 20
13.8561438052
 10
-15.8670427498
 20
13.9270450149
 10
-15.4972081812
 20
14.0178284958
 10
-15.1732820171
 20
14.1263663603
 10
-14.9028568124
 20
14.2501145726
 10
-14.6922711046
 20
14.3861725797
 10
-14.5464608442
 20
14.531351297
 10
-14.4688437002
 20
14.6822478587
 10
-14.4612389526
 20
14.835325377
 10
-14.5238248503
 20
14.9869958449
 10
-14.6551344328
 20
15.1337042349
 10
-14.8520899149
 20
15.2720118269
 10
-15.110074827
 20
15.398676808
 10
-15.4230422213
 20
15.5107302585
 10
-15.7836564075
 20
15.6055457405
 10
-16.1834648946
 20
15.6809008595
 10
-16.6130965106
 20
15.7350293552
 10
-17.0624810546
 20
15.7666625017
 10
-17.5210853336
 20
15.7750588448
 10
-17.9781600522
 20
15.7600215814
 10
-18.4229917662
 20
15.7219031721
 10
-18.8451539974
 20
15.6615970802
 10
-19.2347516208
 20
15.5805168293
 10
-19.5826527984
 20
15.4805628718
 10
-19.8807030214
 20
15.3640780438
 10
-20.1219162452
 20
15.2337926508
 10
-20.3006386363
 20
15.0927604722
 10
-20.4126810933
 20
14.9442871825
 10
-20.4554174361
 20
14.7918528699
 10
-20.4278459608
 20
14.6390304655
 10
-20.3306129197
 20
14.4894019969
 10
-20.1659973726
 20
14.3464746286
 10
-19.9378577686
 20
14.2135984569
 10
-19.6515415065
 20
14.0938879868
 10
-19.313759597
 20
13.9901491301
 10
-18.9324293616
 20
13.9048134377
 10
-18.5164888579
 20
13.839881106
  0
LWPOLYLINE
  5
125
330
117
100
AcDbEntity
  8
0
  6
Continuous
 62
     7
370
    25
100
AcDbPolyline
 90
       42
 70
   128
 43
0.0
 10
16.3951685148
 20
-11.9394736326
 10
16.835969994
 20
-11.9824806448
 10
17.2913004355
 20
-12.0025542897
 10
17.7504872798
 20
-11.999224058
 10
18.2027675764
 20
-11.9725680075
 10
18.6375402585
 20
-11.9232109334
 10
19.0446146229
 20
-11.8523097237
 10
19.4144491915
 20
-11.7615262428
 10
19.7383753556
 20
-11.6529883783
 10
20.0088005603
 20
-11.529240166
 10
20.2193862681
 20
-11.3931821589
 10
20.3651965285
 20
-11.2480034415
 10
20.4428136725
 20
-11.0971068799
 10
20.4504184201
 20
-10.9440293615
 10
20.3878325224
 20
-10.7923588937
 10
20.2565229399
 20
-10.6456505037
 10
20.0595674578
 20
-10.5073429117
 10
19.8015825458
 20
-10.3806779306
 10
19.4886151514
 20
-10.26862448
 10
19.1280009652
 20
-10.1738089981
 10
18.7281924781
 20
-10.0984538791
 10
18.2985608621
 20
-10.0443253834
 10
17.8491763181
 20
-10.0126922369
 10
17.3905720391
 20
-10.0042958938
 10
16.9334973206
 20
-10.0193331572
 10
16.4886656065
 20
-10.0574515665
 10
16.0665033754
 20
-10.1177576584
 10
15.6769057519
 20
-10.1988379093
 10
15.3290045744
 20
-10.2987918668
 10
15.0309543514
 20
-10.4152766948
 10
14.7897411275
 20
-10.5455620878
 10
14.6110187364
 20
-10.6865942664
 10
14.4989762794
 20
-10.8350675561
 10
14.4562399367
 20
-10.9875018687
 10
14.4838114119
 20
-11.1403242731
 10
14.5810444531
 20
-11.2899527417
 10
14.7456600001
 20
-11.43288011
 10
14.9737996041
 20
-11.5657562817
 10
15.2601158662
 20
-11.6854667518
 10
15.5978977757
 20
-11.7892056085
 10
15.9792280111
 20
-11.8745413009
 10
16.3951685148
 20
-11.9394736326
  0
LWPOLYLINE
  5
126
330
117
100
AcDbEntity
  8
0
  6
Continuous
 62
     7
370
    25
100
AcDbPolyline
 90
       42
 70
   128
 43
0.0
 10
-39.7296922886
 20
-4.868405824
 10
-39.2888908095
 20
-4.9114128363
 10
-38.8335603679
 20
-4.9314864811
 10
-38.3743735237
 20
-4.9281562494
 10
-37.9220932271
 20
-4.9015001989
 10
-37.487320545
 20
-4.8521431248
 10
-37.0802461806
 20
-4.7812419152
 10
-36.7104116119
 20
-4.6904584342
 10
-36.3864854479
 20
-4.5819205698
 10
-36.1160602431
 20
-4.4581723574
 10
-35.9054745353
 20
-4.3221143504
 10
-35.759664275
 20
-4.176935633
 10
-35.6820471309
 20
-4.0260390714
 10
-35.6744423833
 20
-3.872961553
 10
-35.737028281
 20
-3.7212910852
 10
-35.8683378636
 20
-3.5745826951
 10
-36.0652933456
 20
-3.4362751032
 10
-36.3232782577
 20
-3.309610122
 10
-36.6362456521
 20
-3.1975566715
 10
-36.9968598382
 20
-3.1027411895
 10
-37.3966683254
 20
-3.0273860706
 10
-37.8262999414
 20
-2.9732575748
 10
-38.2756844853
 20
-2.9416244283
 10
-38.7342887644
 20
-2.9332280852
 10
-39.1913634829
 20
-2.9482653486
 10
-39.6361951969
 20
-2.9863837579
 10
-40.0583574281
 20
-3.0466898498
 10
-40.4479550515
 20
-3.1277701007
 10
-40.7958562291
 20
-3.2277240582
 10
-41.0939064521
 20
-3.3442088863
 10
-41.3351196759
 20
-3.4744942792
 10
-41.513842067
 20
-3.6155264579
 10
-41.6258845241
 20
-3.7639997475
 10
-41.6686208668
 20
-3.9164340601
 10
-41.6410493916
 20
-4.0692564645
 10
-41.5438163504
 20
-4.2188849331
 10
-41.3792008033
 20
-4.3618123014
 10
-41.1510611993
 20
-4.4946884731
 10
-40.8647449373
 20
-4.6143989433
 10
-40.5269630277
 20
-4.7181378
 10
-40.1456327923
 20
-4.8034734923
 10
-39.7296922886
 20
-4.868405824
  0
LWPOLYLINE
  5
127
330
117
100
AcDbEntity
  8
0
  6
Continuous
 62
     7
370
    25
100
AcDbPolyline
 90
       42
 70
   128
 43
0.0
 10
37.6083719456
 20
6.7688132975
 10
38.0491734247
 20
6.7258062852
 10
38.5045038662
 20
6.7057326403
 10
38.9636907105
 20
6.7090628721
 10
39.4159710071
 20
6.7357189226
 10
39.8507436892
 20
6.7850759966
 10
40.2578180536
 20
6.8559772063
 10
40.6276526223
 20
6.9467606873
 10
40.9515787863
 20
7.0552985517
 10
41.2220039911
 20
7.1790467641
 10
41.4325896989
 20
7.3151047711
 10
41.5783999592
 20
7.4602834885
 10
41.6560171032
 20
7.6111800501
 10
41.6636218508
 20
7.7642575685
 10
41.6010359532
 20
7.9159280363
 10
41.4697263706
 20
8.0626364264
 10
41.2727708885
 20
8.2009440183
 10
41.0147859765
 20
8.3276089995
 10
40.7018185821
 20
8.43966245
 10
40.3412043959
 20
8.534477932
 10
39.9413959088
 20
8.6098330509
 10
39.5117642928
 20
8.6639615467
 10
39.0623797489
 20
8.6955946932
 10
38.6037754698
 20
8.7039910363
 10
38.1467007513
 20
8.6889537728
 10
37.7018690373
 20
8.6508353636
 10
37.2797068061
 20
8.5905292716
 10
36.8901091827
 20
8.5094490207
 10
36.5422080051
 20
8.4094950633
 10
36.2441577821
 20
8.2930102352
 10
36.0029445583
 20
8.1627248423
 10
35.8242221671
 20
8.0216926636
 10
35.7121797101
 20
7.8732193739
 10
35.6694433674
 20
7.7207850614
 10
35.6970148426
 20
7.567962657
 10
35.7942478838
 20
7.4183341883
 10
35.9588634308
 20
7.27540682
 10
36.1870030349
 20
7.1425306484
 10
36.4733192969
 20
7.0228201782
 10
36.8111012065
 20
6.9190813215
 10
37.1924314418
 20
6.8337456292
 10
37.6083719456
 20
6.7688132975
  0
LINE
  5
12C
330
117
100
AcDbEntity
  8
0
  6
Continuous
 62
     7
370
    25
100
AcDbLine
 10
20.3651334674
 20
-13.1523388476
 30
0.0
 11
20.3651334674
 21
-15.0379569308
 31
0.0
  0
LINE
  5
12D
330
117
100
AcDbEntity
  8
0
  6
Continuous
 62
     7
370
    25
100
AcDbLine
 10
20.3651334674
 20
-13.1523388476
 30
0.0
 11
45.1138708033
 21
8.6739959041
 31
0.0
  0
LINE
  5
12E
330
117
100
AcDbEntity
  8
0
  6
Continuous
 62
     7
370
    25
100
AcDbLine
 10
45.1138708033
 20
8.6739959041
 30
0.0
 11
45.1138708033
 21
6.7883778209
 31
0.0
  0
LINE
  5
12F
330
117
100
AcDbEntity
  8
0
  6
Continuous
 62
     7
370
    25
100
AcDbLine
 10
20.3651334674
 20
-15.0379569308
 30
0.0
 11
45.1138708033
 21
6.7883778209
 31
0.0
  0
LINE
  5
130
330
117
100
AcDbEntity
  8
0
  6
Continuous
 62
     7
370
    25
100
AcDbLine
 10
-45.1138708033
 20
-4.9027597376
 30
0.0
 11
-45.1138708033
 21
-6.7883778209
 31
0.0
  0
LINE
  5
131
330
117
100
AcDbEntity
  8
0
  6
Continuous
 62
     7
370
    25
100
AcDbLine
 10
-45.1138708033
 20
-4.9027597376
 30
0.0
 11
20.3651334674
 21
-13.1523388476
 31
0.0
  0
LINE
  5
132
330
117
100
AcDbEntity
  8
0
  6
Continuous
 62
     7
370
    25
100
AcDbLine
 10
-45.1138708033
 20
-6.7883778209
 30
0.0
 11
20.3651334674
 21
-15.0379569308
 31
0.0
  0
LINE
  5
133
330
117
100
AcDbEntity
  8
0
  6
Continuous
 62
     7
370
    25
100
AcDbLine
 10
-20.3651334674
 20
16.9235750141
 30
0.0
 11
-45.1138708033
 21
-4.9027597376
 31
0.0
  0
LINE
  5
134
330
117
100
AcDbEntity
  8
0
  6
Continuous
 62
     7
370
    25
100
AcDbLine
 10
45.1138708033
 20
8.6739959041
 30
0.0
 11
-20.3651334674
 21
16.9235750141
 31
0.0
  0
ARC
  5
135
330
117
100
AcDbEntity
  8
0
  6
Continuous
 62
     7
370
    25
100
AcDbCircle
 10
17.4558286864
 20
-20.535720226
 30
0.0
 40
8.64687093270694
100
AcDbArc
 50
83.3589534197
 51
96.6410465803
  0
ARC
  5
136
330
117
100
AcDbEntity
  8
0
  6
Continuous
 62
     7
370
    25
100
AcDbCircle
 10
-38.6690321171
 20
-13.4646524174
 30
0.0
 40
8.646870932706005
100
AcDbArc
 50
83.3589534197
 51
96.6410465803
  0
ARC
  5
137
330
117
100
AcDbEntity
  8
0
  6
Continuous
 62
     7
370
    25
100
AcDbCircle
 10
38.6690321171
 20
-1.827433296
 30
0.0
 40
8.646870932706259
100
AcDbArc
 50
83.3589534197
 51
96.6410465803
  0
ARC
  5
138
330
117
100
AcDbEntity
  8
0
  6
Continuous
 62
     7
370
    25
100
AcDbCircle
 10
-17.4558286864
 20
5.2436345126
 30
0.0
 40
8.646870932705763
100
AcDbArc
 50
83.3589534197
 51
96.6410465803
  0
VIEWPORT
  5
14B
330
117
100
AcDbEntity
  8
0
100
AcDbViewport
 10
0.0
 20
0.0
 30
0.0
 40
205.6
 41
156.0
 68
     1
 69
     1
 12
0.0
 22
0.0
 13
0.0
 23
0.0
 14
10.0
 24
10.0
 15
10.0
 25
10.0
 16
0.0
 26
0.0
 36
1.0
 17
0.0
 27
0.0
 37
0.0
 42
50.0
 43
0.0
 44
0.0
 45
71.4
 50
0.0
 51
0.0
 72
   100
 90
   557152
  1

281
     0
 71
     1
 74
     0
110
0.0
120
0.0
130
0.0
111
1.0
121
0.0
131
0.0
112
0.0
122
1.0
132
0.0
 79
     0
146
0.0
  0
ENDBLK
  5
11A
330
117
100
AcDbEntity
  8
0
100
AcDbBlockEnd
  0
ENDSEC
  0
SECTION
  2
ENTITIES
  0
CIRCLE
  5
73
330
1F
100
AcDbEntity
  8
0
  6
Continuous
 62
     7
370
    25
100
AcDbCircle
 10
30.0
 20
30.0
 30
0.0
 40
3.000000000000004
  0
CIRCLE
  5
74
330
1F
100
AcDbEntity
  8
0
  6
Continuous
 62
     7
370
    25
100
AcDbCircle
 10
-30.0
 20
-30.0
 30
0.0
 40
3.0
  0
CIRCLE
  5
75
330
1F
100
AcDbEntity
  8
0
  6
Continuous
 62
     7
370
    25
100
AcDbCircle
 10
-30.0
 20
30.0
 30
0.0
 40
3.0
  0
CIRCLE
  5
76
330
1F
100
AcDbEntity
  8
0
  6
Continuous
 62
     7
370
    25
100
AcDbCircle
 10
30.0
 20
-30.0
 30
0.0
 40
2.999999999999989
  0
LINE
  5
7B
330
1F
100
AcDbEntity
  8
0
  6
Continuous
 62
     7
370
    25
100
AcDbLine
 10
-35.0
 20
35.0
 30
0.0
 11
-35.0
 21
-35.0
 31
0.0
  0
LINE
  5
7C
330
1F
100
AcDbEntity
  8
0
  6
Continuous
 62
     7
370
    25
100
AcDbLine
 10
35.0
 20
35.0
 30
0.0
 11
-35.0
 21
35.0
 31
0.0
  0
LINE
  5
7D
330
1F
100
AcDbEntity
  8
0
  6
Continuous
 62
     7
370
    25
100
AcDbLine
 10
35.0
 20
-35.0
 30
0.0
 11
35.0
 21
35.0
 31
0.0
  0
LINE
  5
7E
330
1F
100
AcDbEntity
  8
0
  6
Continuous
 62
     7
370
    25
100
AcDbLine
 10
-35.0
 20
-35.0
 30
0.0
 11
35.0
 21
-35.0
 31
0.0
  0
LINE
  5
83
330
1B
100
AcDbEntity
 67
     1
  8
0
  6
Continuous
 62
     7
370
    25
100
AcDbLine
 10
-35.0
 20
2.0
 30
0.0
 11
-35.0
 21
0.0
 31
0.0
  0
LINE
  5
84
330
1B
100
AcDbEntity
 67
     1
  8
0
  6
Continuous
 62
     7
370
    25
100
AcDbLine
 10
-35.0
 20
2.0
 30
0.0
 11
35.0
 21
2.0
 31
0.0
  0
LINE
  5
85
330
1B
100
AcDbEntity
 67
     1
  8
0
  6
Continuous
 62
     7
370
    25
100
AcDbLine
 10
-35.0
 20
0.0
 30
0.0
 11
35.0
 21
0.0
 31
0.0
  0
LINE
  5
86
330
1B
100
AcDbEntity
 67
     1
  8
0
  6
Continuous
 62
     7
370
    25
100
AcDbLine
 10
35.0
 20
2.0
 30
0.0
 11
35.0
 21
0.0
 31
0.0
  0
VIEWPORT
  5
139
330
1B
100
AcDbEntity
 67
     1
  8
0
100
AcDbViewport
 10
0.0
 20
0.0
 30
0.0
 40
205.6
 41
156.0
 68
     1
 69
     1
 12
0.0
 22
0.0
 13
0.0
 23
0.0
 14
10.0
 24
10.0
 15
10.0
 25
10.0
 16
0.0
 26
0.0
 36
1.0
 17
0.0
 27
0.0
 37
0.0
 42
50.0
 43
0.0
 44
0.0
 45
71.4
 50
0.0
 51
0.0
 72
   100
 90
   557152
  1

281
     0
 71
     1
 74
     0
110
0.0
120
0.0
130
0.0
111
1.0
121
0.0
131
0.0
112
0.0
122
1.0
132
0.0
 79
     0
146
0.0
  0
ENDSEC
  0
SECTION
  2
OBJECTS
  0
DICTIONARY
  5
C
330
0
100
AcDbDictionary
281
     1
  3
ACAD_GROUP
350
D
  3
ACAD_LAYOUT
350
1A
  3
ACAD_MLINESTYLE
350
17
  3
ACAD_PLOTSETTINGS
350
19
  3
ACAD_PLOTSTYLENAME
350
E
  3
ACAD_SCALELIST
350
47
  0
DICTIONARY
  5
D
102
{ACAD_REACTORS
330
C
102
}
330
C
100
AcDbDictionary
281
     1
  0
DICTIONARY
  5
1A
102
{ACAD_REACTORS
330
C
102
}
330
C
100
AcDbDictionary
281
     1
  3
_
350
D4
  3
_
350
A0
  3
_
350
1E
  3
_
350
26
  3
_
350
F6
  3
_
350
C4
  3
_
350
B8
  3
_
350
94
  3
_
350
AC
  3
_
350
118
  3
Model
350
22
  0
DICTIONARY
  5
17
102
{ACAD_REACTORS
330
C
102
}
330
C
100
AcDbDictionary
281
     1
  3
Standard
350
18
  0
DICTIONARY
  5
19
102
{ACAD_REACTORS
330
C
102
}
330
C
100
AcDbDictionary
281
     1
  0
ACDBDICTIONARYWDFLT
  5
E
102
{ACAD_REACTORS
330
C
102
}
330
C
100
AcDbDictionary
281
     1
  3
Normal
350
F
100
AcDbDictionaryWithDefault
340
F
  0
DICTIONARY
  5
47
102
{ACAD_REACTORS
330
C
102
}
330
C
100
AcDbDictionary
281
     1
  3
A0
350
48
  3
A1
350
49
  3
A2
350
4A
  3
A3
350
4B
  3
A4
350
4C
  3
A5
350
4D
  3
A6
350
4E
  3
A7
350
4F
  3
A8
350
50
  3
A9
350
51
  3
B0
350
52
  3
B1
350
53
  3
B2
350
54
  3
B3
350
55
  3
B4
350
56
  3
B5
350
57
  3
B6
350
58
  3
B7
350
59
  3
B8
350
5A
  3
B9
350
5B
  3
C0
350
5C
  3
C1
350
5D
  3
C2
350
5E
  3
C3
350
5F
  3
C4
350
60
  3
C5
350
61
  3
C6
350
62
  3
C7
350
63
  3
C8
350
64
  3
C9
350
65
  3
D0
350
66
  3
D1
350
67
  3
D2
350
68
  0
LAYOUT
  5
D4
102
{ACAD_REACTORS
330
1A
102
}
330
1A
100
AcDbPlotSettings
  1

  2
none_device
  4
ISO_A4_(210.00_x_297.00_MM)
  6

 40
7.5
 41
20.0
 42
7.5
 43
20.0
 44
210.0
 45
297.0
 46
0.0
 47
0.0
 48
0.0
 49
0.0
140
0.0
141
0.0
142
1.0
143
0.2723735409
 70
   688
 72
     1
 73
     1
 74
     1
  7

 75
     0
147
3.6714285714
148
35.0
149
0.0
100
AcDbLayout
  1
_
 70
     1
 71
     8
 10
0.0
 20
0.0
 11
0.0
 21
0.0
 12
0.0
 22
0.0
 32
0.0
 14
0.0
 24
0.0
 34
0.0
 15
0.0
 25
0.0
 35
0.0
146
0.0
 13
0.0
 23
0.0
 33
0.0
 16
1.0
 26
0.0
 36
0.0
 17
0.0
 27
1.0
 37
0.0
 76
     0
330
D3
331
147
  0
LAYOUT
  5
A0
102
{ACAD_REACTORS
330
1A
102
}
330
1A
100
AcDbPlotSettings
  1

  2
none_device
  4
ISO_A4_(210.00_x_297.00_MM)
  6

 40
7.5
 41
20.0
 42
7.5
 43
20.0
 44
210.0
 45
297.0
 46
0.0
 47
0.0
 48
0.0
 49
0.0
140
0.0
141
0.0
142
1.0
143
0.2723735409
 70
   688
 72
     1
 73
     1
 74
     1
  7

 75
     0
147
3.6714285714
148
35.0
149
0.0
100
AcDbLayout
  1
_
 70
     1
 71
     4
 10
0.0
 20
0.0
 11
0.0
 21
0.0
 12
0.0
 22
0.0
 32
0.0
 14
0.0
 24
0.0
 34
0.0
 15
0.0
 25
0.0
 35
0.0
146
0.0
 13
0.0
 23
0.0
 33
0.0
 16
1.0
 26
0.0
 36
0.0
 17
0.0
 27
1.0
 37
0.0
 76
     0
330
9F
331
13F
  0
LAYOUT
  5
1E
102
{ACAD_REACTORS
330
1A
102
}
330
1A
100
AcDbPlotSettings
  1

  2
none_device
  4
ISO_A4_(210.00_x_297.00_MM)
  6

 40
7.5
 41
20.0
 42
7.5
 43
20.0
 44
210.0
 45
297.0
 46
0.0
 47
0.0
 48
0.0
 49
0.0
140
0.0
141
0.0
142
1.0
143
0.2723735409
 70
   688
 72
     1
 73
     1
 74
     1
  7

 75
     0
147
3.6714285714
148
35.0
149
0.0
100
AcDbLayout
  1
_
 70
     1
 71
     1
 10
-40.4474708171
 20
-2.0428015564
 11
40.4474708171
 21
55.1556420233
 12
0.0
 22
0.0
 32
0.0
 14
-35.0
 24
0.0
 34
0.0
 15
35.0
 25
2.0
 35
0.0
146
0.0
 13
0.0
 23
0.0
 33
0.0
 16
1.0
 26
0.0
 36
0.0
 17
0.0
 27
1.0
 37
0.0
 76
     0
330
1B
331
139
  0
LAYOUT
  5
26
102
{ACAD_REACTORS
330
1A
102
}
330
1A
100
AcDbPlotSettings
  1

  2
none_device
  4
ISO_A4_(210.00_x_297.00_MM)
  6

 40
7.5
 41
20.0
 42
7.5
 43
20.0
 44
210.0
 45
297.0
 46
0.0
 47
0.0
 48
0.0
 49
0.0
140
0.0
141
0.0
142
1.0
143
0.2723735409
 70
   688
 72
     1
 73
     1
 74
     1
  7

 75
     0
147
3.6714285714
148
35.0
149
0.0
100
AcDbLayout
  1
_
 70
     1
 71
     2
 10
0.0
 20
0.0
 11
0.0
 21
0.0
 12
0.0
 22
0.0
 32
0.0
 14
0.0
 24
0.0
 34
0.0
 15
0.0
 25
0.0
 35
0.0
146
0.0
 13
0.0
 23
0.0
 33
0.0
 16
1.0
 26
0.0
 36
0.0
 17
0.0
 27
1.0
 37
0.0
 76
     0
330
23
331
13B
  0
LAYOUT
  5
F6
102
{ACAD_REACTORS
330
1A
102
}
330
1A
100
AcDbPlotSettings
  1

  2
none_device
  4
ISO_A4_(210.00_x_297.00_MM)
  6

 40
7.5
 41
20.0
 42
7.5
 43
20.0
 44
210.0
 45
297.0
 46
0.0
 47
0.0
 48
0.0
 49
0.0
140
0.0
141
0.0
142
1.0
143
0.2723735409
 70
   688
 72
     1
 73
     1
 74
     1
  7

 75
     0
147
3.6714285714
148
35.0
149
0.0
100
AcDbLayout
  1
_
 70
     1
 71
     9
 10
0.0
 20
0.0
 11
0.0
 21
0.0
 12
0.0
 22
0.0
 32
0.0
 14
0.0
 24
0.0
 34
0.0
 15
0.0
 25
0.0
 35
0.0
146
0.0
 13
0.0
 23
0.0
 33
0.0
 16
1.0
 26
0.0
 36
0.0
 17
0.0
 27
1.0
 37
0.0
 76
     0
330
F5
331
149
  0
LAYOUT
  5
C4
102
{ACAD_REACTORS
330
1A
102
}
330
1A
100
AcDbPlotSettings
  1

  2
none_device
  4
ISO_A4_(210.00_x_297.00_MM)
  6

 40
7.5
 41
20.0
 42
7.5
 43
20.0
 44
210.0
 45
297.0
 46
0.0
 47
0.0
 48
0.0
 49
0.0
140
0.0
141
0.0
142
1.0
143
0.2723735409
 70
   688
 72
     1
 73
     1
 74
     1
  7

 75
     0
147
3.6714285714
148
35.0
149
0.0
100
AcDbLayout
  1
_
 70
     1
 71
     7
 10
0.0
 20
0.0
 11
0.0
 21
0.0
 12
0.0
 22
0.0
 32
0.0
 14
0.0
 24
0.0
 34
0.0
 15
0.0
 25
0.0
 35
0.0
146
0.0
 13
0.0
 23
0.0
 33
0.0
 16
1.0
 26
0.0
 36
0.0
 17
0.0
 27
1.0
 37
0.0
 76
     0
330
C3
331
145
  0
LAYOUT
  5
B8
102
{ACAD_REACTORS
330
1A
102
}
330
1A
100
AcDbPlotSettings
  1

  2
none_device
  4
ISO_A4_(210.00_x_297.00_MM)
  6

 40
7.5
 41
20.0
 42
7.5
 43
20.0
 44
210.0
 45
297.0
 46
0.0
 47
0.0
 48
0.0
 49
0.0
140
0.0
141
0.0
142
1.0
143
0.2723735409
 70
   688
 72
     1
 73
     1
 74
     1
  7

 75
     0
147
3.6714285714
148
35.0
149
0.0
100
AcDbLayout
  1
_
 70
     1
 71
     6
 10
0.0
 20
0.0
 11
0.0
 21
0.0
 12
0.0
 22
0.0
 32
0.0
 14
0.0
 24
0.0
 34
0.0
 15
0.0
 25
0.0
 35
0.0
146
0.0
 13
0.0
 23
0.0
 33
0.0
 16
1.0
 26
0.0
 36
0.0
 17
0.0
 27
1.0
 37
0.0
 76
     0
330
B7
331
143
  0
LAYOUT
  5
94
102
{ACAD_REACTORS
330
1A
102
}
330
1A
100
AcDbPlotSettings
  1

  2
none_device
  4
ISO_A4_(210.00_x_297.00_MM)
  6

 40
7.5
 41
20.0
 42
7.5
 43
20.0
 44
210.0
 45
297.0
 46
0.0
 47
0.0
 48
0.0
 49
0.0
140
0.0
141
0.0
142
1.0
143
0.2723735409
 70
   688
 72
     1
 73
     1
 74
     1
  7

 75
     0
147
3.6714285714
148
35.0
149
0.0
100
AcDbLayout
  1
_
 70
     1
 71
     3
 10
0.0
 20
0.0
 11
0.0
 21
0.0
 12
0.0
 22
0.0
 32
0.0
 14
0.0
 24
0.0
 34
0.0
 15
0.0
 25
0.0
 35
0.0
146
0.0
 13
0.0
 23
0.0
 33
0.0
 16
1.0
 26
0.0
 36
0.0
 17
0.0
 27
1.0
 37
0.0
 76
     0
330
93
331
13D
  0
LAYOUT
  5
AC
102
{ACAD_REACTORS
330
1A
102
}
330
1A
100
AcDbPlotSettings
  1

  2
none_device
  4
ISO_A4_(210.00_x_297.00_MM)
  6

 40
7.5
 41
20.0
 42
7.5
 43
20.0
 44
210.0
 45
297.0
 46
0.0
 47
0.0
 48
0.0
 49
0.0
140
0.0
141
0.0
142
1.0
143
0.2723735409
 70
   688
 72
     1
 73
     1
 74
     1
  7

 75
     0
147
3.6714285714
148
35.0
149
0.0
100
AcDbLayout
  1
_
 70
     1
 71
     5
 10
0.0
 20
0.0
 11
0.0
 21
0.0
 12
0.0
 22
0.0
 32
0.0
 14
0.0
 24
0.0
 34
0.0
 15
0.0
 25
0.0
 35
0.0
146
0.0
 13
0.0
 23
0.0
 33
0.0
 16
1.0
 26
0.0
 36
0.0
 17
0.0
 27
1.0
 37
0.0
 76
     0
330
AB
331
141
  0
LAYOUT
  5
118
102
{ACAD_REACTORS
330
1A
102
}
330
1A
100
AcDbPlotSettings
  1

  2
none_device
  4
ISO_A4_(210.00_x_297.00_MM)
  6

 40
7.5
 41
20.0
 42
7.5
 43
20.0
 44
210.0
 45
297.0
 46
0.0
 47
0.0
 48
0.0
 49
0.0
140
0.0
141
0.0
142
1.0
143
0.2723735409
 70
   688
 72
     1
 73
     1
 74
     1
  7

 75
     0
147
3.6714285714
148
35.0
149
0.0
100
AcDbLayout
  1
_
 70
     1
 71
    10
 10
0.0
 20
0.0
 11
0.0
 21
0.0
 12
0.0
 22
0.0
 32
0.0
 14
0.0
 24
0.0
 34
0.0
 15
0.0
 25
0.0
 35
0.0
146
0.0
 13
0.0
 23
0.0
 33
0.0
 16
1.0
 26
0.0
 36
0.0
 17
0.0
 27
1.0
 37
0.0
 76
     0
330
117
331
14B
  0
LAYOUT
  5
22
102
{ACAD_REACTORS
330
1A
102
}
330
1A
100
AcDbPlotSettings
  1

  2
none_device
  4
ANSI_A_(11.00_x_8.50_Inches)
  6

 40
6.35
 41
19.05
 42
6.35000508
 43
19.05000254
 44
279.4
 45
215.9
 46
133.34999746
 47
88.89999873
 48
0.0
 49
0.0
140
0.0
141
0.0
142
0.1202142857
143
1.0
 70
  1696
 72
     0
 73
     0
 74
     0
  7

 75
     0
147
0.0179189148
148
-1300.4909072572
149
0.0
100
AcDbLayout
  1
Model
 70
     1
 71
     0
 10
0.0
 20
0.0
 11
420.0
 21
297.0
 12
0.0
 22
0.0
 32
0.0
 14
-35.0
 24
-35.0
 34
0.0
 15
35.0
 25
35.0
 35
0.0
146
0.0
 13
0.0
 23
0.0
 33
0.0
 16
1.0
 26
0.0
 36
0.0
 17
0.0
 27
1.0
 37
0.0
 76
     0
330
1F
331
29
  0
MLINESTYLE
  5
18
102
{ACAD_REACTORS
330
17
102
}
330
17
100
AcDbMlineStyle
  2
Standard
 70
     0
  3

 62
   256
 51
90.0
 52
90.0
 71
     2
 49
0.5
 62
   256
  6
BYLAYER
 49
-0.5
 62
   256
  6
BYLAYER
  0
ACDBPLACEHOLDER
  5
F
102
{ACAD_REACTORS
330
E
102
}
330
E
  0
SCALE
  5
48
102
{ACAD_REACTORS
330
47
102
}
330
47
100
AcDbScale
 70
     0
300
1:1
140
1.0
141
1.0
290
     1
  0
SCALE
  5
49
102
{ACAD_REACTORS
330
47
102
}
330
47
100
AcDbScale
 70
     0
300
1:2
140
1.0
141
2.0
290
     0
  0
SCALE
  5
4A
102
{ACAD_REACTORS
330
47
102
}
330
47
100
AcDbScale
 70
     0
300
1:4
140
1.0
141
4.0
290
     0
  0
SCALE
  5
4B
102
{ACAD_REACTORS
330
47
102
}
330
47
100
AcDbScale
 70
     0
300
1:5
140
1.0
141
5.0
290
     0
  0
SCALE
  5
4C
102
{ACAD_REACTORS
330
47
102
}
330
47
100
AcDbScale
 70
     0
300
1:8
140
1.0
141
8.0
290
     0
  0
SCALE
  5
4D
102
{ACAD_REACTORS
330
47
102
}
330
47
100
AcDbScale
 70
     0
300
1:10
140
1.0
141
10.0
290
     0
  0
SCALE
  5
4E
102
{ACAD_REACTORS
330
47
102
}
330
47
100
AcDbScale
 70
     0
300
1:16
140
1.0
141
16.0
290
     0
  0
SCALE
  5
4F
102
{ACAD_REACTORS
330
47
102
}
330
47
100
AcDbScale
 70
     0
300
1:20
140
1.0
141
20.0
290
     0
  0
SCALE
  5
50
102
{ACAD_REACTORS
330
47
102
}
330
47
100
AcDbScale
 70
     0
300
1:30
140
1.0
141
30.0
290
     0
  0
SCALE
  5
51
102
{ACAD_REACTORS
330
47
102
}
330
47
100
AcDbScale
 70
     0
300
1:40
140
1.0
141
40.0
290
     0
  0
SCALE
  5
52
102
{ACAD_REACTORS
330
47
102
}
330
47
100
AcDbScale
 70
     0
300
1:50
140
1.0
141
50.0
290
     0
  0
SCALE
  5
53
102
{ACAD_REACTORS
330
47
102
}
330
47
100
AcDbScale
 70
     0
300
1:100
140
1.0
141
100.0
290
     0
  0
SCALE
  5
54
102
{ACAD_REACTORS
330
47
102
}
330
47
100
AcDbScale
 70
     0
300
2:1
140
2.0
141
1.0
290
     0
  0
SCALE
  5
55
102
{ACAD_REACTORS
330
47
102
}
330
47
100
AcDbScale
 70
     0
300
4:1
140
4.0
141
1.0
290
     0
  0
SCALE
  5
56
102
{ACAD_REACTORS
330
47
102
}
330
47
100
AcDbScale
 70
     0
300
8:1
140
8.0
141
1.0
290
     0
  0
SCALE
  5
57
102
{ACAD_REACTORS
330
47
102
}
330
47
100
AcDbScale
 70
     0
300
10:1
140
10.0
141
1.0
290
     0
  0
SCALE
  5
58
102
{ACAD_REACTORS
330
47
102
}
330
47
100
AcDbScale
 70
     0
300
100:1
140
100.0
141
1.0
290
     0
  0
SCALE
  5
59
102
{ACAD_REACTORS
330
47
102
}
330
47
100
AcDbScale
 70
     0
300
1/128" = 1'-0"
140
0.0078125
141
12.0
290
     0
  0
SCALE
  5
5A
102
{ACAD_REACTORS
330
47
102
}
330
47
100
AcDbScale
 70
     0
300
1/64" = 1'-0"
140
0.015625
141
12.0
290
     0
  0
SCALE
  5
5B
102
{ACAD_REACTORS
330
47
102
}
330
47
100
AcDbScale
 70
     0
300
1/32" = 1'-0"
140
0.03125
141
12.0
290
     0
  0
SCALE
  5
5C
102
{ACAD_REACTORS
330
47
102
}
330
47
100
AcDbScale
 70
     0
300
1/16" = 1'-0"
140
0.0625
141
12.0
290
     0
  0
SCALE
  5
5D
102
{ACAD_REACTORS
330
47
102
}
330
47
100
AcDbScale
 70
     0
300
3/32" = 1'-0"
140
0.09375
141
12.0
290
     0
  0
SCALE
  5
5E
102
{ACAD_REACTORS
330
47
102
}
330
47
100
AcDbScale
 70
     0
300
1/8" = 1'-0"
140
0.125
141
12.0
290
     0
  0
SCALE
  5
5F
102
{ACAD_REACTORS
330
47
102
}
330
47
100
AcDbScale
 70
     0
300
3/16" = 1'-0"
140
0.1875
141
12.0
290
     0
  0
SCALE
  5
60
102
{ACAD_REACTORS
330
47
102
}
330
47
100
AcDbScale
 70
     0
300
1/4" = 1'-0"
140
0.25
141
12.0
290
     0
  0
SCALE
  5
61
102
{ACAD_REACTORS
330
47
102
}
330
47
100
AcDbScale
 70
     0
300
3/8" = 1'-0"
140
0.375
141
12.0
290
     0
  0
SCALE
  5
62
102
{ACAD_REACTORS
330
47
102
}
330
47
100
AcDbScale
 70
     0
300
1/2" = 1'-0"
140
0.5
141
12.0
290
     0
  0
SCALE
  5
63
102
{ACAD_REACTORS
330
47
102
}
330
47
100
AcDbScale
 70
     0
300
3/4" = 1'-0"
140
0.75
141
12.0
290
     0
  0
SCALE
  5
64
102
{ACAD_REACTORS
330
47
102
}
330
47
100
AcDbScale
 70
     0
300
1" = 1'-0"
140
1.0
141
12.0
290
     0
  0
SCALE
  5
65
102
{ACAD_REACTORS
330
47
102
}
330
47
100
AcDbScale
 70
     0
300
1-1/2" = 1'-0"
140
1.5
141
12.0
290
     0
  0
SCALE
  5
66
102
{ACAD_REACTORS
330
47
102
}
330
47
100
AcDbScale
 70
     0
300
3" = 1'-0"
140
3.0
141
12.0
290
     0
  0
SCALE
  5
67
102
{ACAD_REACTORS
330
47
102
}
330
47
100
AcDbScale
 70
     0
300
6" = 1'-0"
140
6.0
141
12.0
290
     0
  0
SCALE
  5
68
102
{ACAD_REACTORS
330
47
102
}
330
47
100
AcDbScale
 70
     0
300
1'-0" = 1'-0"
140
12.0
141
12.0
290
     0
  0
ENDSEC
  0
EOF
