  0
SECTION
  2
HEADER
  9
$ACADVER
  1
AC1015
  9
$ACADMAINTVER
 70
     6
  9
$DWGCODEPAGE
  3
ANSI_936
  9
$INSBASE
 10
0.0
 20
0.0
 30
0.0
  9
$EXTMIN
 10
-30.0
 20
-21.2132034356
 30
0.0
  9
$EXTMAX
 10
30.0
 20
22.627416998
 30
0.0
  9
$LIMMIN
 10
0.0
 20
0.0
  9
$LIMMAX
 10
420.0
 20
297.0
  9
$ORTHOMODE
 70
     0
  9
$REGENMODE
 70
     1
  9
$FILLMODE
 70
     1
  9
$QTEXTMODE
 70
     0
  9
$MIRRTEXT
 70
     1
  9
$LTSCALE
 40
1.0
  9
$ATTMODE
 70
     1
  9
$TEXTSIZE
 40
3.5
  9
$TRACEWID
 40
1.0
  9
$TEXTSTYLE
  7
Standard
  9
$CLAYER
  8
0
  9
$CELTYPE
  6
ByLayer
  9
$CECOLOR
 62
   256
  9
$CELTSCALE
 40
1.0
  9
$DISPSILH
 70
     0
  9
$DIMSCALE
 40
1.0
  9
$DIMASZ
 40
3.556
  9
$DIMEXO
 40
1.0
  9
$DIMDLI
 40
3.75
  9
$DIMRND
 40
0.0
  9
$DIMDLE
 40
0.0
  9
$DIMEXE
 40
1.0
  9
$DIMTP
 40
0.0
  9
$DIMTM
 40
0.0
  9
$DIMTXT
 40
3.5
  9
$DIMCEN
 40
2.5
  9
$DIMTSZ
 40
0.0
  9
$DIMTOL
 70
     0
  9
$DIMLIM
 70
     0
  9
$DIMTIH
 70
     1
  9
$DIMTOH
 70
     1
  9
$DIMSE1
 70
     0
  9
$DIMSE2
 70
     0
  9
$DIMTAD
 70
     1
  9
$DIMZIN
 70
     1
  9
$DIMBLK
  1

  9
$DIMASO
 70
     1
  9
$DIMSHO
 70
     1
  9
$DIMPOST
  1

  9
$DIMAPOST
  1

  9
$DIMALT
 70
     0
  9
$DIMALTD
 70
     3
  9
$DIMALTF
 40
0.0393700787
  9
$DIMLFAC
 40
1.0
  9
$DIMTOFL
 70
     1
  9
$DIMTVP
 40
0.0
  9
$DIMTIX
 70
     0
  9
$DIMSOXD
 70
     0
  9
$DIMSAH
 70
     0
  9
$DIMBLK1
  1

  9
$DIMBLK2
  1

  9
$DIMSTYLE
  2
ISO-25
  9
$DIMCLRD
 70
     0
  9
$DIMCLRE
 70
     0
  9
$DIMCLRT
 70
     0
  9
$DIMTFAC
 40
1.0
  9
$DIMGAP
 40
1.524
  9
$DIMJUST
 70
     0
  9
$DIMSD1
 70
     0
  9
$DIMSD2
 70
     0
  9
$DIMTOLJ
 70
     0
  9
$DIMTZIN
 70
     1
  9
$DIMALTZ
 70
     0
  9
$DIMALTTZ
 70
     0
  9
$DIMUPT
 70
     0
  9
$DIMDEC
 70
     2
  9
$DIMTDEC
 70
     2
  9
$DIMALTU
 70
     2
  9
$DIMALTTD
 70
     3
  9
$DIMTXSTY
  7
Standard
  9
$DIMAUNIT
 70
     0
  9
$DIMADEC
 70
     2
  9
$DIMALTRND
 40
0.0
  9
$DIMAZIN
 70
     0
  9
$DIMDSEP
 70
    44
  9
$DIMATFIT
 70
     3
  9
$DIMFRAC
 70
     0
  9
$DIMLDRBLK
  1

  9
$DIMLUNIT
 70
     2
  9
$DIMLWD
 70
    -2
  9
$DIMLWE
 70
    -2
  9
$DIMTMOVE
 70
     0
  9
$LUNITS
 70
     2
  9
$LUPREC
 70
     2
  9
$SKETCHINC
 40
1.0
  9
$FILLETRAD
 40
10.0
  9
$AUNITS
 70
     0
  9
$AUPREC
 70
     2
  9
$MENU
  1
.
  9
$ELEVATION
 40
0.0
  9
$PELEVATION
 40
0.0
  9
$THICKNESS
 40
0.0
  9
$LIMCHECK
 70
     0
  9
$CHAMFERA
 40
0.0
  9
$CHAMFERB
 40
0.0
  9
$CHAMFERC
 40
0.0
  9
$CHAMFERD
 40
0.0
  9
$SKPOLY
 70
     0
  9
$TDCREATE
 40
2460156.527476134
  9
$TDUCREATE
 40
2460156.194142801
  9
$TDUPDATE
 40
2460156.52756294
  9
$TDUUPDATE
 40
2460156.194229607
  9
$TDINDWG
 40
0.0000000116
  9
$TDUSRTIMER
 40
0.0000000116
  9
$USRTIMER
 70
     1
  9
$ANGBASE
 50
0.0
  9
$ANGDIR
 70
     0
  9
$PDMODE
 70
     0
  9
$PDSIZE
 40
-1.0
  9
$PLINEWID
 40
0.0
  9
$SPLFRAME
 70
     0
  9
$SPLINETYPE
 70
     6
  9
$SPLINESEGS
 70
     8
  9
$HANDSEED
  5
159
  9
$SURFTAB1
 70
     6
  9
$SURFTAB2
 70
     6
  9
$SURFTYPE
 70
     6
  9
$SURFU
 70
     6
  9
$SURFV
 70
     6
  9
$UCSBASE
  2

  9
$UCSNAME
  2

  9
$UCSORG
 10
0.0
 20
0.0
 30
0.0
  9
$UCSXDIR
 10
1.0
 20
0.0
 30
0.0
  9
$UCSYDIR
 10
0.0
 20
1.0
 30
0.0
  9
$UCSORTHOREF
  2

  9
$UCSORTHOVIEW
 70
     0
  9
$UCSORGTOP
 10
0.0
 20
0.0
 30
0.0
  9
$UCSORGBOTTOM
 10
0.0
 20
0.0
 30
0.0
  9
$UCSORGLEFT
 10
0.0
 20
0.0
 30
0.0
  9
$UCSORGRIGHT
 10
0.0
 20
0.0
 30
0.0
  9
$UCSORGFRONT
 10
0.0
 20
0.0
 30
0.0
  9
$UCSORGBACK
 10
0.0
 20
0.0
 30
0.0
  9
$PUCSBASE
  2

  9
$PUCSNAME
  2

  9
$PUCSORG
 10
0.0
 20
0.0
 30
0.0
  9
$PUCSXDIR
 10
1.0
 20
0.0
 30
0.0
  9
$PUCSYDIR
 10
0.0
 20
1.0
 30
0.0
  9
$PUCSORTHOREF
  2

  9
$PUCSORTHOVIEW
 70
     0
  9
$PUCSORGTOP
 10
0.0
 20
0.0
 30
0.0
  9
$PUCSORGBOTTOM
 10
0.0
 20
0.0
 30
0.0
  9
$PUCSORGLEFT
 10
0.0
 20
0.0
 30
0.0
  9
$PUCSORGRIGHT
 10
0.0
 20
0.0
 30
0.0
  9
$PUCSORGFRONT
 10
0.0
 20
0.0
 30
0.0
  9
$PUCSORGBACK
 10
0.0
 20
0.0
 30
0.0
  9
$USERI1
 70
     0
  9
$USERI2
 70
     0
  9
$USERI3
 70
     0
  9
$USERI4
 70
     0
  9
$USERI5
 70
     0
  9
$USERR1
 40
0.0
  9
$USERR2
 40
0.0
  9
$USERR3
 40
0.0
  9
$USERR4
 40
0.0
  9
$USERR5
 40
0.0
  9
$WORLDVIEW
 70
     1
  9
$SHADEDGE
 70
     3
  9
$SHADEDIF
 70
    70
  9
$TILEMODE
 70
     1
  9
$MAXACTVP
 70
    64
  9
$PINSBASE
 10
0.0
 20
0.0
 30
0.0
  9
$PLIMCHECK
 70
     0
  9
$PEXTMIN
 10
-30.0
 20
0.0
 30
0.0
  9
$PEXTMAX
 10
30.0
 20
2.0
 30
0.0
  9
$PLIMMIN
 10
-34.6692607004
 20
-1.7509727626
  9
$PLIMMAX
 10
34.6692607004
 20
47.2762645914
  9
$UNITMODE
 70
     0
  9
$VISRETAIN
 70
     1
  9
$PLINEGEN
 70
     0
  9
$PSLTSCALE
 70
     1
  9
$TREEDEPTH
 70
  3020
  9
$CMLSTYLE
  2
Standard
  9
$CMLJUST
 70
     0
  9
$CMLSCALE
 40
20.0
  9
$PROXYGRAPHICS
 70
     1
  9
$MEASUREMENT
 70
     1
  9
$CELWEIGHT
370
    -1
  9
$ENDCAPS
280
     0
  9
$JOINSTYLE
280
     0
  9
$LWDISPLAY
290
     1
  9
$INSUNITS
 70
     4
  9
$HYPERLINKBASE
  1

  9
$STYLESHEET
  1

  9
$XEDIT
290
     1
  9
$CEPSNTYPE
380
     0
  9
$PSTYLEMODE
290
     1
  9
$FINGERPRINTGUID
  2
{bf46a2ba-d6be-41d3-a8a8-1bde57e6b30d}
  9
$VERSIONGUID
  2
{FAEB1C32-E019-11D5-929B-00C0DF256EC4}
  9
$EXTNAMES
290
     1
  9
$PSVPSCALE
 40
0.0
  9
$OLESTARTUP
290
     0
  0
ENDSEC
  0
SECTION
  2
CLASSES
  0
CLASS
  1
ACDBDICTIONARYWDFLT
  2
AcDbDictionaryWithDefault
  3
ObjectDBX Classes
 90
        0
280
     0
281
     0
  0
CLASS
  1
VISUALSTYLE
  2
AcDbVisualStyle
  3
ObjectDBX Classes
 90
     4095
280
     0
281
     0
  0
CLASS
  1
MATERIAL
  2
AcDbMaterial
  3
ObjectDBX Classes
 90
     1153
280
     0
281
     0
  0
CLASS
  1
SCALE
  2
AcDbScale
  3
ObjectDBX Classes
 90
     1153
280
     0
281
     0
  0
CLASS
  1
TABLESTYLE
  2
AcDbTableStyle
  3
ObjectDBX Classes
 90
     4095
280
     0
281
     0
  0
CLASS
  1
MLEADERSTYLE
  2
AcDbMLeaderStyle
  3
ACDB_MLEADERSTYLE_CLASS
 90
     4095
280
     0
281
     0
  0
CLASS
  1
SUN
  2
AcDbSun
  3
SCENEOE
 90
     1153
280
     0
281
     0
  0
CLASS
  1
ACDBPLACEHOLDER
  2
AcDbPlaceHolder
  3
ObjectDBX Classes
 90
        0
280
     0
281
     0
  0
CLASS
  1
LAYOUT
  2
AcDbLayout
  3
ObjectDBX Classes
 90
        0
280
     0
281
     0
  0
ENDSEC
  0
SECTION
  2
TABLES
  0
TABLE
  2
VPORT
  5
8
330
0
100
AcDbSymbolTable
 70
     1
  0
VPORT
  5
29
330
8
100
AcDbSymbolTableRecord
100
AcDbViewportTableRecord
  2
*Active
 70
     0
 10
0.0
 20
0.0
 11
1.0
 21
1.0
 12
0.0
 22
0.7071067812
 13
0.0
 23
0.0
 14
10.0
 24
10.0
 15
10.0
 25
10.0
 16
0.0
 26
0.0
 36
1.0
 17
0.0
 27
0.0
 37
0.0
 40
44.7174328422
 41
1.36859377
 42
50.0
 43
0.0
 44
0.0
 50
0.0
 51
0.0
 71
     0
 72
   100
 73
     1
 74
     3
 75
     0
 76
     0
 77
     0
 78
     0
281
     0
 65
     1
110
0.0
120
0.0
130
0.0
111
1.0
121
0.0
131
0.0
112
0.0
122
1.0
132
0.0
 79
     0
146
0.0
  0
ENDTAB
  0
TABLE
  2
LTYPE
  5
5
330
0
100
AcDbSymbolTable
 70
     6
  0
LTYPE
  5
14
330
5
100
AcDbSymbolTableRecord
100
AcDbLinetypeTableRecord
  2
ByBlock
 70
     0
  3

 72
    65
 73
     0
 40
0.0
  0
LTYPE
  5
15
330
5
100
AcDbSymbolTableRecord
100
AcDbLinetypeTableRecord
  2
ByLayer
 70
     0
  3

 72
    65
 73
     0
 40
0.0
  0
LTYPE
  5
16
330
5
100
AcDbSymbolTableRecord
100
AcDbLinetypeTableRecord
  2
Continuous
 70
     0
  3
Solid line
 72
    65
 73
     0
 40
0.0
  0
LTYPE
  5
6E
330
5
100
AcDbSymbolTableRecord
100
AcDbLinetypeTableRecord
  2
HIDDEN
 70
     0
  3
Hidden __ __ __ __ __ __ __ __ __ __ __ __ __ __
 72
    65
 73
     2
 40
1.905
 49
1.27
 74
     0
 49
-0.635
 74
     0
  0
LTYPE
  5
6F
330
5
100
AcDbSymbolTableRecord
100
AcDbLinetypeTableRecord
  2
PHANTOM
 70
     0
  3
Phantom ______  __  __  ______  __  __  ______
 72
    65
 73
     6
 40
12.7
 49
6.35
 74
     0
 49
-1.27
 74
     0
 49
1.27
 74
     0
 49
-1.27
 74
     0
 49
1.27
 74
     0
 49
-1.27
 74
     0
  0
LTYPE
  5
70
330
5
100
AcDbSymbolTableRecord
100
AcDbLinetypeTableRecord
  2
CENTER
 70
     0
  3
Center ____ _ ____ _ ____ _ ____ _ ____ _ ____
 72
    65
 73
     4
 40
10.16
 49
6.35
 74
     0
 49
-1.27
 74
     0
 49
1.27
 74
     0
 49
-1.27
 74
     0
  0
LTYPE
  5
71
330
5
100
AcDbSymbolTableRecord
100
AcDbLinetypeTableRecord
  2
CENTERX2
 70
     0
  3
Center (2x) ________  __  ________  __  _____
 72
    65
 73
     4
 40
20.32
 49
12.7
 74
     0
 49
-2.54
 74
     0
 49
2.54
 74
     0
 49
-2.54
 74
     0
  0
LTYPE
  5
72
330
5
100
AcDbSymbolTableRecord
100
AcDbLinetypeTableRecord
  2
DOT2
 70
     0
  3
Dot (.5x) ........................................
 72
    65
 73
     2
 40
0.635
 49
0.0
 74
     0
 49
-0.635
 74
     0
  0
ENDTAB
  0
TABLE
  2
LAYER
  5
2
330
0
100
AcDbSymbolTable
 70
     1
  0
LAYER
  5
10
330
2
100
AcDbSymbolTableRecord
100
AcDbLayerTableRecord
  2
0
 70
     0
 62
     7
  6
Continuous
370
    -3
390
F
  0
ENDTAB
  0
TABLE
  2
STYLE
  5
3
330
0
100
AcDbSymbolTable
 70
     1
  0
STYLE
  5
11
330
3
100
AcDbSymbolTableRecord
100
AcDbTextStyleTableRecord
  2
Standard
 70
     0
 40
0.0
 41
1.0
 50
0.0
 71
     0
 42
3.5
  3
txt
  4

  0
ENDTAB
  0
TABLE
  2
VIEW
  5
6
330
0
100
AcDbSymbolTable
 70
     0
  0
ENDTAB
  0
TABLE
  2
UCS
  5
7
330
0
100
AcDbSymbolTable
 70
     0
  0
ENDTAB
  0
TABLE
  2
APPID
  5
9
330
0
100
AcDbSymbolTable
 70
     1
  0
APPID
  5
12
330
9
100
AcDbSymbolTableRecord
100
AcDbRegAppTableRecord
  2
ACAD
 70
     0
  0
ENDTAB
  0
TABLE
  2
DIMSTYLE
  5
A
330
0
100
AcDbSymbolTable
 70
     1
100
AcDbDimStyleTable
  0
DIMSTYLE
105
27
330
A
100
AcDbSymbolTableRecord
100
AcDbDimStyleTableRecord
  2
ISO-25
 70
     0
 41
2.5
 42
0.625
 43
3.75
 44
1.25
 73
     0
 74
     0
 77
     1
 78
     8
140
2.5
141
2.5
143
0.0393700787
147
0.625
171
     3
172
     1
178
     0
271
     2
272
     2
274
     3
278
    44
283
     0
284
     8
340
11
  0
ENDTAB
  0
TABLE
  2
BLOCK_RECORD
  5
1
330
0
100
AcDbSymbolTable
 70
     9
  0
BLOCK_RECORD
  5
1F
330
1
100
AcDbSymbolTableRecord
100
AcDbBlockTableRecord
  2
*Model_Space
340
22
  0
BLOCK_RECORD
  5
1B
330
1
100
AcDbSymbolTableRecord
100
AcDbBlockTableRecord
  2
*Paper_Space
340
1E
  0
BLOCK_RECORD
  5
23
330
1
100
AcDbSymbolTableRecord
100
AcDbBlockTableRecord
  2
*Paper_Space0
340
26
  0
BLOCK_RECORD
  5
9F
330
1
100
AcDbSymbolTableRecord
100
AcDbBlockTableRecord
  2
*Paper_Space1
340
A0
  0
BLOCK_RECORD
  5
AB
330
1
100
AcDbSymbolTableRecord
100
AcDbBlockTableRecord
  2
*Paper_Space2
340
AC
  0
BLOCK_RECORD
  5
B7
330
1
100
AcDbSymbolTableRecord
100
AcDbBlockTableRecord
  2
*Paper_Space3
340
B8
  0
BLOCK_RECORD
  5
C3
330
1
100
AcDbSymbolTableRecord
100
AcDbBlockTableRecord
  2
*Paper_Space4
340
C4
  0
BLOCK_RECORD
  5
CF
330
1
100
AcDbSymbolTableRecord
100
AcDbBlockTableRecord
  2
*Paper_Space5
340
D0
  0
BLOCK_RECORD
  5
DF
330
1
100
AcDbSymbolTableRecord
100
AcDbBlockTableRecord
  2
*Paper_Space6
340
E0
  0
BLOCK_RECORD
  5
101
330
1
100
AcDbSymbolTableRecord
100
AcDbBlockTableRecord
  2
*Paper_Space7
340
102
  0
BLOCK_RECORD
  5
123
330
1
100
AcDbSymbolTableRecord
100
AcDbBlockTableRecord
  2
*Paper_Space8
340
124
  0
ENDTAB
  0
ENDSEC
  0
SECTION
  2
BLOCKS
  0
BLOCK
  5
20
330
1F
100
AcDbEntity
  8
0
100
AcDbBlockBegin
  2
*Model_Space
 70
     0
 10
0.0
 20
0.0
 30
0.0
  3
*Model_Space
  1

  0
ENDBLK
  5
21
330
1F
100
AcDbEntity
  8
0
100
AcDbBlockEnd
  0
BLOCK
  5
1C
330
1B
100
AcDbEntity
 67
     1
  8
0
100
AcDbBlockBegin
  2
*Paper_Space
 70
     0
 10
0.0
 20
0.0
 30
0.0
  3
*Paper_Space
  1

  0
ENDBLK
  5
1D
330
1B
100
AcDbEntity
 67
     1
  8
0
100
AcDbBlockEnd
  0
BLOCK
  5
24
330
23
100
AcDbEntity
  8
0
100
AcDbBlockBegin
  2
*Paper_Space0
 70
     0
 10
0.0
 20
0.0
 30
0.0
  3
*Paper_Space0
  1

  0
CIRCLE
  5
93
330
23
100
AcDbEntity
  8
0
  6
Continuous
 62
     7
370
    25
100
AcDbCircle
 10
-22.5
 20
22.5
 30
0.0
 40
3.000000000000007
  0
CIRCLE
  5
94
330
23
100
AcDbEntity
  8
0
  6
Continuous
 62
     7
370
    25
100
AcDbCircle
 10
22.5
 20
-22.5
 30
0.0
 40
3.0
  0
CIRCLE
  5
95
330
23
100
AcDbEntity
  8
0
  6
Continuous
 62
     7
370
    25
100
AcDbCircle
 10
-22.5
 20
-22.5
 30
0.0
 40
3.000000000000007
  0
CIRCLE
  5
96
330
23
100
AcDbEntity
  8
0
  6
Continuous
 62
     7
370
    25
100
AcDbCircle
 10
22.5
 20
22.5
 30
0.0
 40
3.000000000000007
  0
LINE
  5
9B
330
23
100
AcDbEntity
  8
0
  6
Continuous
 62
     7
370
    25
100
AcDbLine
 10
-30.0
 20
-30.0
 30
0.0
 11
30.0
 21
-30.0
 31
0.0
  0
LINE
  5
9C
330
23
100
AcDbEntity
  8
0
  6
Continuous
 62
     7
370
    25
100
AcDbLine
 10
-30.0
 20
30.0
 30
0.0
 11
-30.0
 21
-30.0
 31
0.0
  0
LINE
  5
9D
330
23
100
AcDbEntity
  8
0
  6
Continuous
 62
     7
370
    25
100
AcDbLine
 10
30.0
 20
30.0
 30
0.0
 11
-30.0
 21
30.0
 31
0.0
  0
LINE
  5
9E
330
23
100
AcDbEntity
  8
0
  6
Continuous
 62
     7
370
    25
100
AcDbLine
 10
30.0
 20
-30.0
 30
0.0
 11
30.0
 21
30.0
 31
0.0
  0
VIEWPORT
  5
147
330
23
100
AcDbEntity
  8
0
100
AcDbViewport
 10
0.0
 20
0.0
 30
0.0
 40
205.6
 41
156.0
 68
     1
 69
     1
 12
0.0
 22
0.7071067812
 13
0.0
 23
0.0
 14
10.0
 24
10.0
 15
10.0
 25
10.0
 16
0.0
 26
0.0
 36
1.0
 17
0.0
 27
0.0
 37
0.0
 42
50.0
 43
0.0
 44
0.0
 45
46.4357976654
 50
0.0
 51
0.0
 72
   100
 90
   557152
  1

281
     0
 71
     1
 74
     0
110
0.0
120
0.0
130
0.0
111
1.0
121
0.0
131
0.0
112
0.0
122
1.0
132
0.0
 79
     0
146
0.0
  0
ENDBLK
  5
25
330
23
100
AcDbEntity
  8
0
100
AcDbBlockEnd
  0
BLOCK
  5
A1
330
9F
100
AcDbEntity
  8
0
100
AcDbBlockBegin
  2
*Paper_Space1
 70
     0
 10
0.0
 20
0.0
 30
0.0
  3
*Paper_Space1
  1

  0
LINE
  5
A7
330
9F
100
AcDbEntity
  8
0
  6
Continuous
 62
     7
370
    25
100
AcDbLine
 10
-30.0
 20
2.0
 30
0.0
 11
-30.0
 21
0.0
 31
0.0
  0
LINE
  5
A8
330
9F
100
AcDbEntity
  8
0
  6
Continuous
 62
     7
370
    25
100
AcDbLine
 10
-30.0
 20
2.0
 30
0.0
 11
30.0
 21
2.0
 31
0.0
  0
LINE
  5
A9
330
9F
100
AcDbEntity
  8
0
  6
Continuous
 62
     7
370
    25
100
AcDbLine
 10
-30.0
 20
0.0
 30
0.0
 11
30.0
 21
0.0
 31
0.0
  0
LINE
  5
AA
330
9F
100
AcDbEntity
  8
0
  6
Continuous
 62
     7
370
    25
100
AcDbLine
 10
30.0
 20
2.0
 30
0.0
 11
30.0
 21
0.0
 31
0.0
  0
VIEWPORT
  5
149
330
9F
100
AcDbEntity
  8
0
100
AcDbViewport
 10
0.0
 20
0.0
 30
0.0
 40
205.6
 41
156.0
 68
     1
 69
     1
 12
0.0
 22
0.7071067812
 13
0.0
 23
0.0
 14
10.0
 24
10.0
 15
10.0
 25
10.0
 16
0.0
 26
0.0
 36
1.0
 17
0.0
 27
0.0
 37
0.0
 42
50.0
 43
0.0
 44
0.0
 45
46.4357976654
 50
0.0
 51
0.0
 72
   100
 90
   557152
  1

281
     0
 71
     1
 74
     0
110
0.0
120
0.0
130
0.0
111
1.0
121
0.0
131
0.0
112
0.0
122
1.0
132
0.0
 79
     0
146
0.0
  0
ENDBLK
  5
A2
330
9F
100
AcDbEntity
  8
0
100
AcDbBlockEnd
  0
BLOCK
  5
AD
330
AB
100
AcDbEntity
  8
0
100
AcDbBlockBegin
  2
*Paper_Space2
 70
     0
 10
0.0
 20
0.0
 30
0.0
  3
*Paper_Space2
  1

  0
LINE
  5
B3
330
AB
100
AcDbEntity
  8
0
  6
Continuous
 62
     7
370
    25
100
AcDbLine
 10
-30.0
 20
2.0
 30
0.0
 11
30.0
 21
2.0
 31
0.0
  0
LINE
  5
B4
330
AB
100
AcDbEntity
  8
0
  6
Continuous
 62
     7
370
    25
100
AcDbLine
 10
30.0
 20
2.0
 30
0.0
 11
30.0
 21
0.0
 31
0.0
  0
LINE
  5
B5
330
AB
100
AcDbEntity
  8
0
  6
Continuous
 62
     7
370
    25
100
AcDbLine
 10
-30.0
 20
0.0
 30
0.0
 11
30.0
 21
0.0
 31
0.0
  0
LINE
  5
B6
330
AB
100
AcDbEntity
  8
0
  6
Continuous
 62
     7
370
    25
100
AcDbLine
 10
-30.0
 20
2.0
 30
0.0
 11
-30.0
 21
0.0
 31
0.0
  0
VIEWPORT
  5
14B
330
AB
100
AcDbEntity
  8
0
100
AcDbViewport
 10
0.0
 20
0.0
 30
0.0
 40
205.6
 41
156.0
 68
     1
 69
     1
 12
0.0
 22
0.7071067812
 13
0.0
 23
0.0
 14
10.0
 24
10.0
 15
10.0
 25
10.0
 16
0.0
 26
0.0
 36
1.0
 17
0.0
 27
0.0
 37
0.0
 42
50.0
 43
0.0
 44
0.0
 45
46.4357976654
 50
0.0
 51
0.0
 72
   100
 90
   557152
  1

281
     0
 71
     1
 74
     0
110
0.0
120
0.0
130
0.0
111
1.0
121
0.0
131
0.0
112
0.0
122
1.0
132
0.0
 79
     0
146
0.0
  0
ENDBLK
  5
AE
330
AB
100
AcDbEntity
  8
0
100
AcDbBlockEnd
  0
BLOCK
  5
B9
330
B7
100
AcDbEntity
  8
0
100
AcDbBlockBegin
  2
*Paper_Space3
 70
     0
 10
0.0
 20
0.0
 30
0.0
  3
*Paper_Space3
  1

  0
LINE
  5
BF
330
B7
100
AcDbEntity
  8
0
  6
Continuous
 62
     7
370
    25
100
AcDbLine
 10
-30.0
 20
2.0
 30
0.0
 11
30.0
 21
2.0
 31
0.0
  0
LINE
  5
C0
330
B7
100
AcDbEntity
  8
0
  6
Continuous
 62
     7
370
    25
100
AcDbLine
 10
30.0
 20
2.0
 30
0.0
 11
30.0
 21
0.0
 31
0.0
  0
LINE
  5
C1
330
B7
100
AcDbEntity
  8
0
  6
Continuous
 62
     7
370
    25
100
AcDbLine
 10
-30.0
 20
2.0
 30
0.0
 11
-30.0
 21
0.0
 31
0.0
  0
LINE
  5
C2
330
B7
100
AcDbEntity
  8
0
  6
Continuous
 62
     7
370
    25
100
AcDbLine
 10
-30.0
 20
0.0
 30
0.0
 11
30.0
 21
0.0
 31
0.0
  0
VIEWPORT
  5
14D
330
B7
100
AcDbEntity
  8
0
100
AcDbViewport
 10
0.0
 20
0.0
 30
0.0
 40
205.6
 41
156.0
 68
     1
 69
     1
 12
0.0
 22
0.7071067812
 13
0.0
 23
0.0
 14
10.0
 24
10.0
 15
10.0
 25
10.0
 16
0.0
 26
0.0
 36
1.0
 17
0.0
 27
0.0
 37
0.0
 42
50.0
 43
0.0
 44
0.0
 45
46.4357976654
 50
0.0
 51
0.0
 72
   100
 90
   557152
  1

281
     0
 71
     1
 74
     0
110
0.0
120
0.0
130
0.0
111
1.0
121
0.0
131
0.0
112
0.0
122
1.0
132
0.0
 79
     0
146
0.0
  0
ENDBLK
  5
BA
330
B7
100
AcDbEntity
  8
0
100
AcDbBlockEnd
  0
BLOCK
  5
C5
330
C3
100
AcDbEntity
  8
0
100
AcDbBlockBegin
  2
*Paper_Space4
 70
     0
 10
0.0
 20
0.0
 30
0.0
  3
*Paper_Space4
  1

  0
LINE
  5
CB
330
C3
100
AcDbEntity
  8
0
  6
Continuous
 62
     7
370
    25
100
AcDbLine
 10
-30.0
 20
2.0
 30
0.0
 11
-30.0
 21
0.0
 31
0.0
  0
LINE
  5
CC
330
C3
100
AcDbEntity
  8
0
  6
Continuous
 62
     7
370
    25
100
AcDbLine
 10
-30.0
 20
2.0
 30
0.0
 11
30.0
 21
2.0
 31
0.0
  0
LINE
  5
CD
330
C3
100
AcDbEntity
  8
0
  6
Continuous
 62
     7
370
    25
100
AcDbLine
 10
30.0
 20
2.0
 30
0.0
 11
30.0
 21
0.0
 31
0.0
  0
LINE
  5
CE
330
C3
100
AcDbEntity
  8
0
  6
Continuous
 62
     7
370
    25
100
AcDbLine
 10
-30.0
 20
0.0
 30
0.0
 11
30.0
 21
0.0
 31
0.0
  0
VIEWPORT
  5
14F
330
C3
100
AcDbEntity
  8
0
100
AcDbViewport
 10
0.0
 20
0.0
 30
0.0
 40
205.6
 41
156.0
 68
     1
 69
     1
 12
0.0
 22
0.7071067812
 13
0.0
 23
0.0
 14
10.0
 24
10.0
 15
10.0
 25
10.0
 16
0.0
 26
0.0
 36
1.0
 17
0.0
 27
0.0
 37
0.0
 42
50.0
 43
0.0
 44
0.0
 45
46.4357976654
 50
0.0
 51
0.0
 72
   100
 90
   557152
  1

281
     0
 71
     1
 74
     0
110
0.0
120
0.0
130
0.0
111
1.0
121
0.0
131
0.0
112
0.0
122
1.0
132
0.0
 79
     0
146
0.0
  0
ENDBLK
  5
C6
330
C3
100
AcDbEntity
  8
0
100
AcDbBlockEnd
  0
BLOCK
  5
D1
330
CF
100
AcDbEntity
  8
0
100
AcDbBlockBegin
  2
*Paper_Space5
 70
     0
 10
0.0
 20
0.0
 30
0.0
  3
*Paper_Space5
  1

  0
CIRCLE
  5
D3
330
CF
100
AcDbEntity
  8
0
  6
Continuous
 62
     7
370
    25
100
AcDbCircle
 10
-22.5
 20
-22.5
 30
0.0
 40
3.000000000000007
  0
CIRCLE
  5
D4
330
CF
100
AcDbEntity
  8
0
  6
Continuous
 62
     7
370
    25
100
AcDbCircle
 10
22.5
 20
22.5
 30
0.0
 40
3.0
  0
CIRCLE
  5
D5
330
CF
100
AcDbEntity
  8
0
  6
Continuous
 62
     7
370
    25
100
AcDbCircle
 10
-22.5
 20
22.5
 30
0.0
 40
3.000000000000007
  0
CIRCLE
  5
D6
330
CF
100
AcDbEntity
  8
0
  6
Continuous
 62
     7
370
    25
100
AcDbCircle
 10
22.5
 20
-22.5
 30
0.0
 40
3.000000000000007
  0
LINE
  5
DB
330
CF
100
AcDbEntity
  8
0
  6
Continuous
 62
     7
370
    25
100
AcDbLine
 10
-30.0
 20
30.0
 30
0.0
 11
30.0
 21
30.0
 31
0.0
  0
LINE
  5
DC
330
CF
100
AcDbEntity
  8
0
  6
Continuous
 62
     7
370
    25
100
AcDbLine
 10
-30.0
 20
-30.0
 30
0.0
 11
-30.0
 21
30.0
 31
0.0
  0
LINE
  5
DD
330
CF
100
AcDbEntity
  8
0
  6
Continuous
 62
     7
370
    25
100
AcDbLine
 10
30.0
 20
-30.0
 30
0.0
 11
-30.0
 21
-30.0
 31
0.0
  0
LINE
  5
DE
330
CF
100
AcDbEntity
  8
0
  6
Continuous
 62
     7
370
    25
100
AcDbLine
 10
30.0
 20
30.0
 30
0.0
 11
30.0
 21
-30.0
 31
0.0
  0
VIEWPORT
  5
151
330
CF
100
AcDbEntity
  8
0
100
AcDbViewport
 10
0.0
 20
0.0
 30
0.0
 40
205.6
 41
156.0
 68
     1
 69
     1
 12
0.0
 22
0.7071067812
 13
0.0
 23
0.0
 14
10.0
 24
10.0
 15
10.0
 25
10.0
 16
0.0
 26
0.0
 36
1.0
 17
0.0
 27
0.0
 37
0.0
 42
50.0
 43
0.0
 44
0.0
 45
46.4357976654
 50
0.0
 51
0.0
 72
   100
 90
   557152
  1

281
     0
 71
     1
 74
     0
110
0.0
120
0.0
130
0.0
111
1.0
121
0.0
131
0.0
112
0.0
122
1.0
132
0.0
 79
     0
146
0.0
  0
ENDBLK
  5
D2
330
CF
100
AcDbEntity
  8
0
100
AcDbBlockEnd
  0
BLOCK
  5
E1
330
DF
100
AcDbEntity
  8
0
100
AcDbBlockBegin
  2
*Paper_Space6
 70
     0
 10
0.0
 20
0.0
 30
0.0
  3
*Paper_Space6
  1

  0
LWPOLYLINE
  5
EC
330
DF
100
AcDbEntity
  8
0
  6
Continuous
 62
     7
370
    25
100
AcDbPolyline
 90
       46
 70
   128
 43
0.0
 10
-2.1213203436
 20
18.777651972
 10
-1.8054450695
 20
18.6191367406
 10
-1.4544288607
 20
18.4875425107
 10
-1.0751038486
 20
18.3854306144
 10
-0.674853163
 20
18.3147885435
 10
-0.2614672282
 20
18.2769912656
 10
0.1570078687
 20
18.2727744618
 10
0.5724269861
 20
18.3022202072
 10
0.9767044634
 20
18.3647553741
 10
1.3619714992
 20
18.4591627864
 10
1.7207293091
 20
18.5836049113
 10
2.0459950802
 20
18.7356596244
 10
2.3314378844
 20
18.9123673536
 10
2.5715019021
 20
19.1102886841
 10
2.7615145604
 20
19.3255713022
 10
2.8977774789
 20
19.5540249766
 10
2.9776384549
 20
19.7912031165
 10
2.9995430855
 20
20.0324893191
 10
2.9630650218
 20
20.273187223
 10
2.8689142679
 20
20.5086119173
 10
2.7189233611
 20
20.734181128
 10
2.5160117038
 20
20.9455044071
 10
2.2641287407
 20
21.1384685873
 10
1.968177087
 20
21.3093178403
 10
1.633917105
 20
21.4547267799
 10
1.2678547852
 20
21.5718651863
 10
0.8771151142
 20
21.6584530937
 10
0.4693033951
 20
21.712805167
 10
0.0523572193
 20
21.7338635049
 10
-0.3656080302
 20
21.7212182308
 10
-0.7764571353
 20
21.6751154707
 10
-1.1721933855
 20
21.5964525622
 10
-1.5451142247
 20
21.4867605895
 10
-1.8879611731
 20
21.3481745819
 10
-2.1940611049
 20
21.1833919586
 10
-2.4574561329
 20
20.9956200257
 10
-2.6730195726
 20
20.7885135505
 10
-2.8365557268
 20
20.5661036248
 10
-2.9448815503
 20
20.3327192049
 10
-2.9958886043
 20
20.0929028531
 10
-2.9885840943
 20
19.8513223218
 10
-2.9231101944
 20
19.6126797013
 10
-2.8007412795
 20
19.3816198987
 10
-2.6238591214
 20
19.1626402304
 10
-2.3959065301
 20
18.9600028863
 10
-2.1213203436
 20
18.777651972
  0
LWPOLYLINE
  5
ED
330
DF
100
AcDbEntity
  8
0
  6
Continuous
 62
     7
370
    25
100
AcDbPolyline
 90
       46
 70
   128
 43
0.0
 10
-2.1213203436
 20
-17.96071306
 10
-1.8054450695
 20
-18.1192282914
 10
-1.4544288607
 20
-18.2508225213
 10
-1.0751038486
 20
-18.3529344176
 10
-0.674853163
 20
-18.4235764885
 10
-0.2614672282
 20
-18.4613737664
 10
0.1570078687
 20
-18.4655905703
 10
0.5724269861
 20
-18.4361448248
 10
0.9767044634
 20
-18.373609658
 10
1.3619714992
 20
-18.2792022456
 10
1.7207293091
 20
-18.1547601207
 10
2.0459950802
 20
-18.0027054076
 10
2.3314378844
 20
-17.8259976784
 10
2.5715019021
 20
-17.6280763479
 10
2.7615145604
 20
-17.4127937299
 10
2.8977774789
 20
-17.1843400554
 10
2.9776384549
 20
-16.9471619155
 10
2.9995430855
 20
-16.7058757129
 10
2.9630650218
 20
-16.465177809
 10
2.8689142679
 20
-16.2297531147
 10
2.7189233611
 20
-16.004183904
 10
2.5160117038
 20
-15.7928606249
 10
2.2641287407
 20
-15.5998964447
 10
1.968177087
 20
-15.4290471917
 10
1.633917105
 20
-15.2836382522
 10
1.2678547852
 20
-15.1664998458
 10
0.8771151142
 20
-15.0799119384
 10
0.4693033951
 20
-15.0255598651
 10
0.0523572193
 20
-15.0045015271
 10
-0.3656080302
 20
-15.0171468012
 10
-0.7764571353
 20
-15.0632495613
 10
-1.1721933855
 20
-15.1419124698
 10
-1.5451142247
 20
-15.2516044425
 10
-1.8879611731
 20
-15.3901904501
 10
-2.1940611049
 20
-15.5549730735
 10
-2.4574561329
 20
-15.7427450063
 10
-2.6730195726
 20
-15.9498514815
 10
-2.8365557268
 20
-16.1722614072
 10
-2.9448815503
 20
-16.4056458271
 10
-2.9958886043
 20
-16.6454621789
 10
-2.9885840943
 20
-16.8870427102
 10
-2.9231101944
 20
-17.1256853307
 10
-2.8007412795
 20
-17.3567451333
 10
-2.6238591214
 20
-17.5757248016
 10
-2.3959065301
 20
-17.7783621457
 10
-2.1213203436
 20
-17.96071306
  0
LWPOLYLINE
  5
EE
330
DF
100
AcDbEntity
  8
0
  6
Continuous
 62
     7
370
    25
100
AcDbPolyline
 90
       46
 70
   128
 43
0.0
 10
-33.941125497
 20
0.408469456
 10
-33.6252502229
 20
0.2499542246
 10
-33.2742340141
 20
0.1183599947
 10
-32.894909002
 20
0.0162480984
 10
-32.4946583164
 20
-0.0543939725
 10
-32.0812723816
 20
-0.0921912504
 10
-31.6627972847
 20
-0.0964080542
 10
-31.2473781673
 20
-0.0669623088
 10
-30.84310069
 20
-0.004427142
 10
-30.4578336542
 20
0.0899802704
 10
-30.0990758443
 20
0.2144223953
 10
-29.7738100732
 20
0.3664771084
 10
-29.488367269
 20
0.5431848376
 10
-29.2483032513
 20
0.7411061681
 10
-29.058290593
 20
0.9563887862
 10
-28.9220276745
 20
1.1848424606
 10
-28.8421666985
 20
1.4220206005
 10
-28.8202620679
 20
1.6633068031
 10
-28.8567401316
 20
1.904004707
 10
-28.9508908855
 20
2.1394294013
 10
-29.1008817923
 20
2.364998612
 10
-29.3037934496
 20
2.5763218911
 10
-29.5556764127
 20
2.7692860713
 10
-29.8516280664
 20
2.9401353243
 10
-30.1858880483
 20
3.0855442639
 10
-30.5519503682
 20
3.2026826702
 10
-30.9426900392
 20
3.2892705777
 10
-31.3505017583
 20
3.343622651
 10
-31.7674479341
 20
3.3646809889
 10
-32.1854131836
 20
3.3520357148
 10
-32.5962622887
 20
3.3059329547
 10
-32.9919985389
 20
3.2272700462
 10
-33.3649193781
 20
3.1175780735
 10
-33.7077663265
 20
2.9789920659
 10
-34.0138662583
 20
2.8142094426
 10
-34.2772612863
 20
2.6264375097
 10
-34.492824726
 20
2.4193310345
 10
-34.6563608802
 20
2.1969211088
 10
-34.7646867037
 20
1.9635366889
 10
-34.8156937577
 20
1.7237203371
 10
-34.8083892477
 20
1.4821398058
 10
-34.7429153478
 20
1.2434971853
 10
-34.6205464329
 20
1.0124373827
 10
-34.4436642748
 20
0.7934577144
 10
-34.2157116835
 20
0.5908203703
 10
-33.941125497
 20
0.408469456
  0
LWPOLYLINE
  5
EF
330
DF
100
AcDbEntity
  8
0
  6
Continuous
 62
     7
370
    25
100
AcDbPolyline
 90
       46
 70
   128
 43
0.0
 10
29.6984848098
 20
0.408469456
 10
30.0143600839
 20
0.2499542246
 10
30.3653762927
 20
0.1183599947
 10
30.7447013048
 20
0.0162480984
 10
31.1449519904
 20
-0.0543939725
 10
31.5583379252
 20
-0.0921912504
 10
31.9768130221
 20
-0.0964080542
 10
32.3922321395
 20
-0.0669623088
 10
32.7965096168
 20
-0.004427142
 10
33.1817766526
 20
0.0899802704
 10
33.5405344624
 20
0.2144223953
 10
33.8658002336
 20
0.3664771084
 10
34.1512430378
 20
0.5431848376
 10
34.3913070555
 20
0.7411061681
 10
34.5813197138
 20
0.9563887862
 10
34.7175826323
 20
1.1848424606
 10
34.7974436083
 20
1.4220206005
 10
34.8193482389
 20
1.6633068031
 10
34.7828701752
 20
1.904004707
 10
34.6887194213
 20
2.1394294013
 10
34.5387285145
 20
2.364998612
 10
34.3358168572
 20
2.5763218911
 10
34.0839338941
 20
2.7692860713
 10
33.7879822404
 20
2.9401353243
 10
33.4537222584
 20
3.0855442639
 10
33.0876599386
 20
3.2026826702
 10
32.6969202676
 20
3.2892705777
 10
32.2891085485
 20
3.343622651
 10
31.8721623727
 20
3.3646809889
 10
31.4541971232
 20
3.3520357148
 10
31.0433480181
 20
3.3059329547
 10
30.6476117679
 20
3.2272700462
 10
30.2746909287
 20
3.1175780735
 10
29.9318439802
 20
2.9789920659
 10
29.6257440485
 20
2.8142094426
 10
29.3623490205
 20
2.6264375097
 10
29.1467855808
 20
2.4193310345
 10
28.9832494266
 20
2.1969211088
 10
28.8749236031
 20
1.9635366889
 10
28.8239165491
 20
1.7237203371
 10
28.8312210591
 20
1.4821398058
 10
28.896694959
 20
1.2434971853
 10
29.0190638739
 20
1.0124373827
 10
29.195946032
 20
0.7934577144
 10
29.4238986233
 20
0.5908203703
 10
29.6984848098
 20
0.408469456
  0
LINE
  5
F4
330
DF
100
AcDbEntity
  8
0
  6
Continuous
 62
     7
370
    25
100
AcDbLine
 10
0.0
 20
-22.8591617309
 30
0.0
 11
0.0
 21
-24.4922433547
 31
0.0
  0
LINE
  5
F5
330
DF
100
AcDbEntity
  8
0
  6
Continuous
 62
     7
370
    25
100
AcDbLine
 10
0.0
 20
-22.8591617309
 30
0.0
 11
42.4264068712
 21
1.6330816238
 31
0.0
  0
LINE
  5
F6
330
DF
100
AcDbEntity
  8
0
  6
Continuous
 62
     7
370
    25
100
AcDbLine
 10
42.4264068712
 20
1.6330816238
 30
0.0
 11
42.4264068712
 21
0.0
 31
0.0
  0
LINE
  5
F7
330
DF
100
AcDbEntity
  8
0
  6
Continuous
 62
     7
370
    25
100
AcDbLine
 10
0.0
 20
-24.4922433547
 30
0.0
 11
42.4264068712
 21
0.0
 31
0.0
  0
LINE
  5
F8
330
DF
100
AcDbEntity
  8
0
  6
Continuous
 62
     7
370
    25
100
AcDbLine
 10
-42.4264068712
 20
1.6330816238
 30
0.0
 11
-42.4264068712
 21
0.0
 31
0.0
  0
LINE
  5
F9
330
DF
100
AcDbEntity
  8
0
  6
Continuous
 62
     7
370
    25
100
AcDbLine
 10
-42.4264068712
 20
1.6330816238
 30
0.0
 11
0.0
 21
-22.8591617309
 31
0.0
  0
LINE
  5
FA
330
DF
100
AcDbEntity
  8
0
  6
Continuous
 62
     7
370
    25
100
AcDbLine
 10
-42.4264068712
 20
0.0
 30
0.0
 11
0.0
 21
-24.4922433547
 31
0.0
  0
LINE
  5
FB
330
DF
100
AcDbEntity
  8
0
  6
Continuous
 62
     7
370
    25
100
AcDbLine
 10
0.0
 20
26.1253249785
 30
0.0
 11
-42.4264068712
 21
1.6330816238
 31
0.0
  0
LINE
  5
FC
330
DF
100
AcDbEntity
  8
0
  6
Continuous
 62
     7
370
    25
100
AcDbLine
 10
42.4264068712
 20
1.6330816238
 30
0.0
 11
0.0
 21
26.1253249785
 31
0.0
  0
ARC
  5
FD
330
DF
100
AcDbEntity
  8
0
  6
Continuous
 62
     7
370
    25
100
AcDbCircle
 10
0.0
 20
-20.7426808746
 30
0.0
 40
4.144357572789044
100
AcDbArc
 50
50.329710263
 51
129.670289737
  0
ARC
  5
FE
330
DF
100
AcDbEntity
  8
0
  6
Continuous
 62
     7
370
    25
100
AcDbCircle
 10
-31.8198051534
 20
-2.3734983586
 30
0.0
 40
4.144357572789018
100
AcDbArc
 50
50.329710263
 51
129.670289737
  0
ARC
  5
FF
330
DF
100
AcDbEntity
  8
0
  6
Continuous
 62
     7
370
    25
100
AcDbCircle
 10
31.8198051534
 20
-2.3734983586
 30
0.0
 40
4.144357572789021
100
AcDbArc
 50
50.329710263
 51
129.670289737
  0
ARC
  5
100
330
DF
100
AcDbEntity
  8
0
  6
Continuous
 62
     7
370
    25
100
AcDbCircle
 10
0.0
 20
15.9956841574
 30
0.0
 40
4.144357572789007
100
AcDbArc
 50
50.329710263
 51
129.670289737
  0
VIEWPORT
  5
153
330
DF
100
AcDbEntity
  8
0
100
AcDbViewport
 10
0.0
 20
0.0
 30
0.0
 40
205.6
 41
156.0
 68
     1
 69
     1
 12
0.0
 22
0.7071067812
 13
0.0
 23
0.0
 14
10.0
 24
10.0
 15
10.0
 25
10.0
 16
0.0
 26
0.0
 36
1.0
 17
0.0
 27
0.0
 37
0.0
 42
50.0
 43
0.0
 44
0.0
 45
46.4357976654
 50
0.0
 51
0.0
 72
   100
 90
   557152
  1

281
     0
 71
     1
 74
     0
110
0.0
120
0.0
130
0.0
111
1.0
121
0.0
131
0.0
112
0.0
122
1.0
132
0.0
 79
     0
146
0.0
  0
ENDBLK
  5
E2
330
DF
100
AcDbEntity
  8
0
100
AcDbBlockEnd
  0
BLOCK
  5
103
330
101
100
AcDbEntity
  8
0
100
AcDbBlockBegin
  2
*Paper_Space7
 70
     0
 10
0.0
 20
0.0
 30
0.0
  3
*Paper_Space7
  1

  0
LWPOLYLINE
  5
10E
330
101
100
AcDbEntity
  8
0
  6
Continuous
 62
     7
370
    25
100
AcDbPolyline
 90
       46
 70
   128
 43
0.0
 10
-10.7988476536
 20
16.0049928645
 10
-10.4159604737
 20
15.9179344107
 10
-10.0132746725
 20
15.8591683448
 10
-9.5986280711
 20
15.8298384813
 10
-9.1800912941
 20
15.8305156927
 10
-8.7658106836
 20
15.8611867978
 10
-8.3638497405
 20
15.9212548185
 10
-7.9820321774
 20
16.0095505991
 10
-7.6277896387
 20
16.1243555626
 10
-7.3080170527
 20
16.263435161
 10
-7.0289384289
 20
16.4240823681
 10
-6.7959857152
 20
16.6031703688
 10
-6.6136930714
 20
16.7972134189
 10
-6.4856086162
 20
17.002434691
 10
-6.4142253681
 20
17.2148397866
 10
-6.4009327206
 20
17.4302944821
 10
-6.4459894001
 20
17.6446051969
 10
-6.5485184295
 20
17.8536006168
 10
-6.7065241979
 20
18.0532128835
 10
-6.9169313028
 20
18.2395567715
 10
-7.1756444092
 20
18.4090053088
 10
-7.4776279607
 20
18.5582603725
 10
-7.8170041911
 20
18.6844168825
 10
-8.187167528
 20
18.7850193458
 10
-8.5809131632
 20
18.85810965
 10
-8.9905772856
 20
18.9022651753
 10
-9.4081862493
 20
18.9166264848
 10
-9.8256117706
 20
18.9009140518
 10
-10.2347291368
 20
18.8554337011
 10
-10.6275753435
 20
18.7810706558
 10
-10.9965040862
 20
18.6792723081
 10
-11.3343345867
 20
18.552020047
 10
-11.6344913585
 20
18.4017906931
 10
-11.8911321914
 20
18.2315082898
 10
-12.0992618635
 20
18.0444871905
 10
-12.2548293677
 20
17.844367548
 10
-12.3548067592
 20
17.6350444636
 10
-12.397248092
 20
17.4205921731
 10
-12.3813272937
 20
17.2051847462
 10
-12.3073542446
 20
16.9930148437
 10
-12.176768746
 20
16.7882121112
 10
-11.992112496
 20
16.5947628011
 10
-11.7569796185
 20
16.416432184
 10
-11.4759467075
 20
16.2566912626
 10
-11.1544837489
 20
16.1186492123
 10
-10.7988476536
 20
16.0049928645
  0
LWPOLYLINE
  5
10F
330
101
100
AcDbEntity
  8
0
  6
Continuous
 62
     7
370
    25
100
AcDbPolyline
 90
       46
 70
   128
 43
0.0
 10
7.99867532
 20
-15.3093777025
 10
8.3815625
 20
-15.3964361563
 10
8.7842483012
 20
-15.4552022222
 10
9.1988949025
 20
-15.4845320857
 10
9.6174316796
 20
-15.4838548743
 10
10.03171229
 20
-15.4531837691
 10
10.4336732331
 20
-15.3931157484
 10
10.8154907963
 20
-15.3048199679
 10
11.1697333349
 20
-15.1900150044
 10
11.4895059209
 20
-15.050935406
 10
11.7685845448
 20
-14.8902881988
 10
12.0015372584
 20
-14.7112001981
 10
12.1838299023
 20
-14.5171571481
 10
12.3119143574
 20
-14.311935876
 10
12.3832976056
 20
-14.0995307804
 10
12.396590253
 20
-13.8840760849
 10
12.3515335735
 20
-13.6697653701
 10
12.2490045441
 20
-13.4607699502
 10
12.0909987757
 20
-13.2611576834
 10
11.8805916708
 20
-13.0748137955
 10
11.6218785644
 20
-12.9053652581
 10
11.3198950129
 20
-12.7561101945
 10
10.9805187825
 20
-12.6299536845
 10
10.6103554456
 20
-12.5293512211
 10
10.2166098105
 20
-12.456260917
 10
9.806945688
 20
-12.4121053916
 10
9.3893367244
 20
-12.3977440822
 10
8.971911203
 20
-12.4134565151
 10
8.5627938369
 20
-12.4589368659
 10
8.1699476301
 20
-12.5332999112
 10
7.8010188874
 20
-12.6350982589
 10
7.4631883869
 20
-12.7623505199
 10
7.1630316152
 20
-12.9125798739
 10
6.9063907823
 20
-13.0828622771
 10
6.6982611101
 20
-13.2698833765
 10
6.542693606
 20
-13.470003019
 10
6.4427162144
 20
-13.6793261034
 10
6.4002748817
 20
-13.8937783939
 10
6.4161956799
 20
-14.1091858207
 10
6.490168729
 20
-14.3213557233
 10
6.6207542277
 20
-14.5261584558
 10
6.8054104777
 20
-14.7196077659
 10
7.0405433552
 20
-14.897938383
 10
7.3215762662
 20
-15.0576793044
 10
7.6430392247
 20
-15.1957213547
 10
7.99867532
 20
-15.3093777025
  0
LWPOLYLINE
  5
110
330
101
100
AcDbEntity
  8
0
  6
Continuous
 62
     7
370
    25
100
AcDbPolyline
 90
       46
 70
   128
 43
0.0
 10
-31.8001401555
 20
-4.4929124417
 10
-31.4172529755
 20
-4.5799708955
 10
-31.0145671743
 20
-4.6387369614
 10
-30.599920573
 20
-4.6680668249
 10
-30.1813837959
 20
-4.6673896135
 10
-29.7671031854
 20
-4.6367185083
 10
-29.3651422424
 20
-4.5766504876
 10
-28.9833246792
 20
-4.4883547071
 10
-28.6290821406
 20
-4.3735497436
 10
-28.3093095545
 20
-4.2344701452
 10
-28.0302309307
 20
-4.0738229381
 10
-27.7972782171
 20
-3.8947349374
 10
-27.6149855732
 20
-3.7006918873
 10
-27.4869011181
 20
-3.4954706152
 10
-27.4155178699
 20
-3.2830655196
 10
-27.4022252225
 20
-3.0676108241
 10
-27.4472819019
 20
-2.8533001093
 10
-27.5498109314
 20
-2.6443046894
 10
-27.7078166998
 20
-2.4446924227
 10
-27.9182238047
 20
-2.2583485347
 10
-28.1769369111
 20
-2.0888999974
 10
-28.4789204626
 20
-1.9396449337
 10
-28.818296693
 20
-1.8134884237
 10
-29.1884600299
 20
-1.7128859604
 10
-29.582205665
 20
-1.6397956562
 10
-29.9918697875
 20
-1.5956401309
 10
-30.4094787511
 20
-1.5812788214
 10
-30.8269042725
 20
-1.5969912544
 10
-31.2360216386
 20
-1.6424716051
 10
-31.6288678453
 20
-1.7168346504
 10
-31.9977965881
 20
-1.8186329981
 10
-32.3356270886
 20
-1.9458852592
 10
-32.6357838603
 20
-2.0961146131
 10
-32.8924246932
 20
-2.2663970164
 10
-33.1005543654
 20
-2.4534181157
 10
-33.2561218695
 20
-2.6535377582
 10
-33.356099261
 20
-2.8628608426
 10
-33.3985405938
 20
-3.0773131331
 10
-33.3826197955
 20
-3.29272056
 10
-33.3086467465
 20
-3.5048904625
 10
-33.1780612478
 20
-3.709693195
 10
-32.9934049978
 20
-3.9031425051
 10
-32.7582721203
 20
-4.0814731222
 10
-32.4772392093
 20
-4.2412140436
 10
-32.1557762507
 20
-4.3792560939
 10
-31.8001401555
 20
-4.4929124417
  0
LWPOLYLINE
  5
111
330
101
100
AcDbEntity
  8
0
  6
Continuous
 62
     7
370
    25
100
AcDbPolyline
 90
       46
 70
   128
 43
0.0
 10
28.9999678219
 20
5.1885276037
 10
29.3828550018
 20
5.1014691499
 10
29.785540803
 20
5.042703084
 10
30.2001874043
 20
5.0133732205
 10
30.6187241814
 20
5.0140504319
 10
31.0330047919
 20
5.0447215371
 10
31.434965735
 20
5.1047895578
 10
31.8167832981
 20
5.1930853383
 10
32.1710258367
 20
5.3078903018
 10
32.4907984228
 20
5.4469699002
 10
32.7698770466
 20
5.6076171074
 10
33.0028297603
 20
5.786705108
 10
33.1851224041
 20
5.9807481581
 10
33.3132068593
 20
6.1859694302
 10
33.3845901074
 20
6.3983745258
 10
33.3978827549
 20
6.6138292213
 10
33.3528260754
 20
6.8281399361
 10
33.250297046
 20
7.037135356
 10
33.0922912775
 20
7.2367476228
 10
32.8818841727
 20
7.4230915107
 10
32.6231710663
 20
7.592540048
 10
32.3211875147
 20
7.7417951117
 10
31.9818112844
 20
7.8679516217
 10
31.6116479475
 20
7.968554085
 10
31.2179023123
 20
8.0416443892
 10
30.8082381899
 20
8.0857999145
 10
30.3906292262
 20
8.100161224
 10
29.9732037048
 20
8.084448791
 10
29.5640863387
 20
8.0389684403
 10
29.171240132
 20
7.964605395
 10
28.8023113892
 20
7.8628070473
 10
28.4644808888
 20
7.7355547863
 10
28.164324117
 20
7.5853254323
 10
27.9076832841
 20
7.4150430291
 10
27.6995536119
 20
7.2280219297
 10
27.5439861078
 20
7.0279022872
 10
27.4440087163
 20
6.8185792028
 10
27.4015673835
 20
6.6041269123
 10
27.4174881818
 20
6.3887194855
 10
27.4914612309
 20
6.1765495829
 10
27.6220467295
 20
5.9717468504
 10
27.8067029795
 20
5.7782975403
 10
28.041835857
 20
5.5999669232
 10
28.322868768
 20
5.4402260018
 10
28.6443317266
 20
5.3021839515
 10
28.9999678219
 20
5.1885276037
  0
LINE
  5
116
330
101
100
AcDbEntity
  8
0
  6
Continuous
 62
     7
370
    25
100
AcDbLine
 10
12.5316819824
 20
-19.1619124432
 30
0.0
 11
12.5316819824
 21
-20.8762470446
 31
0.0
  0
LINE
  5
117
330
101
100
AcDbEntity
  8
0
  6
Continuous
 62
     7
370
    25
100
AcDbLine
 10
12.5316819824
 20
-19.1619124432
 30
0.0
 11
40.5334053182
 21
8.168627965
 31
0.0
  0
LINE
  5
118
330
101
100
AcDbEntity
  8
0
  6
Continuous
 62
     7
370
    25
100
AcDbLine
 10
40.5334053182
 20
8.168627965
 30
0.0
 11
40.5334053182
 21
6.4542933636
 31
0.0
  0
LINE
  5
119
330
101
100
AcDbEntity
  8
0
  6
Continuous
 62
     7
370
    25
100
AcDbLine
 10
12.5316819824
 20
-20.8762470446
 30
0.0
 11
40.5334053182
 21
6.4542933636
 31
0.0
  0
LINE
  5
11A
330
101
100
AcDbEntity
  8
0
  6
Continuous
 62
     7
370
    25
100
AcDbLine
 10
-40.5334053182
 20
-4.7399587622
 30
0.0
 11
-40.5334053182
 21
-6.4542933636
 31
0.0
  0
LINE
  5
11B
330
101
100
AcDbEntity
  8
0
  6
Continuous
 62
     7
370
    25
100
AcDbLine
 10
-40.5334053182
 20
-4.7399587622
 30
0.0
 11
12.5316819824
 21
-19.1619124432
 31
0.0
  0
LINE
  5
11C
330
101
100
AcDbEntity
  8
0
  6
Continuous
 62
     7
370
    25
100
AcDbLine
 10
-40.5334053182
 20
-6.4542933636
 30
0.0
 11
12.5316819824
 21
-20.8762470446
 31
0.0
  0
LINE
  5
11D
330
101
100
AcDbEntity
  8
0
  6
Continuous
 62
     7
370
    25
100
AcDbLine
 10
-12.5316819824
 20
22.5905816461
 30
0.0
 11
-40.5334053182
 21
-4.7399587622
 31
0.0
  0
LINE
  5
11E
330
101
100
AcDbEntity
  8
0
  6
Continuous
 62
     7
370
    25
100
AcDbLine
 10
40.5334053182
 20
8.168627965
 30
0.0
 11
-12.5316819824
 21
22.5905816461
 31
0.0
  0
ARC
  5
11F
330
101
100
AcDbEntity
  8
0
  6
Continuous
 62
     7
370
    25
100
AcDbCircle
 10
9.3987614868
 20
-18.7673575301
 30
0.0
 40
4.687212059235617
100
AcDbArc
 50
57.8241571647
 51
122.1758428353
  0
ARC
  5
120
330
101
100
AcDbEntity
  8
0
  6
Continuous
 62
     7
370
    25
100
AcDbCircle
 10
-30.4000539887
 20
-7.9508922693
 30
0.0
 40
4.687212059235617
100
AcDbArc
 50
57.8241571647
 51
122.1758428353
  0
ARC
  5
121
330
101
100
AcDbEntity
  8
0
  6
Continuous
 62
     7
370
    25
100
AcDbCircle
 10
30.4000539887
 20
1.7305477761
 30
0.0
 40
4.68721205923562
100
AcDbArc
 50
57.8241571647
 51
122.1758428353
  0
ARC
  5
122
330
101
100
AcDbEntity
  8
0
  6
Continuous
 62
     7
370
    25
100
AcDbCircle
 10
-9.3987614868
 20
12.5470130369
 30
0.0
 40
4.687212059235661
100
AcDbArc
 50
57.8241571647
 51
122.1758428353
  0
VIEWPORT
  5
155
330
101
100
AcDbEntity
  8
0
100
AcDbViewport
 10
0.0
 20
0.0
 30
0.0
 40
205.6
 41
156.0
 68
     1
 69
     1
 12
0.0
 22
0.7071067812
 13
0.0
 23
0.0
 14
10.0
 24
10.0
 15
10.0
 25
10.0
 16
0.0
 26
0.0
 36
1.0
 17
0.0
 27
0.0
 37
0.0
 42
50.0
 43
0.0
 44
0.0
 45
46.4357976654
 50
0.0
 51
0.0
 72
   100
 90
   557152
  1

281
     0
 71
     1
 74
     0
110
0.0
120
0.0
130
0.0
111
1.0
121
0.0
131
0.0
112
0.0
122
1.0
132
0.0
 79
     0
146
0.0
  0
ENDBLK
  5
104
330
101
100
AcDbEntity
  8
0
100
AcDbBlockEnd
  0
BLOCK
  5
125
330
123
100
AcDbEntity
  8
0
100
AcDbBlockBegin
  2
*Paper_Space8
 70
     0
 10
0.0
 20
0.0
 30
0.0
  3
*Paper_Space8
  1

  0
LWPOLYLINE
  5
130
330
123
100
AcDbEntity
  8
0
  6
Continuous
 62
     7
370
    25
100
AcDbPolyline
 90
       46
 70
   128
 43
0.0
 10
-14.1525316863
 20
10.6174617637
 10
-13.7516558685
 20
10.5773600301
 10
-13.3379380987
 20
10.5562456074
 10
-12.9194309228
 20
10.5545294638
 10
-12.5042801068
 20
10.572245002
 10
-12.1005660892
 20
10.6090474093
 10
-11.7161467042
 20
10.6642203687
 10
-11.3585042377
 20
10.7366900013
 10
-11.0345997935
 20
10.825045768
 10
-10.7507378034
 20
10.9275679245
 10
-10.5124433179
 20
11.0422609936
 10
-10.3243544682
 20
11.166892605
 10
-10.1901321898
 20
11.2990369464
 10
-10.1123889667
 20
11.4361219783
 10
-10.0926379823
 20
11.5754794966
 10
-10.131263667
 20
11.7143970657
 10
-10.2275142159
 20
11.8501708132
 10
-10.3795162214
 20
11.9801580574
 10
-10.5843111374
 20
12.1018287445
 10
-10.8379128638
 20
12.212814693
 10
-11.1353853316
 20
12.3109556877
 10
-11.4709385775
 20
12.3943415257
 10
-11.8380414392
 20
12.4613491966
 10
-12.2295486771
 20
12.5106744722
 10
-12.6378400481
 20
12.5413572921
 10
-13.0549686252
 20
12.5528004502
 10
-13.4728154751
 20
12.5447812185
 10
-13.8832476841
 20
12.5174556821
 10
-14.2782766561
 20
12.4713557015
 10
-14.6502136016
 20
12.4073785604
 10
-14.991819191
 20
12.3267695011
 10
-15.29644446
 20
12.2310974873
 10
-15.5581602243
 20
12.1222246658
 10
-15.7718724842
 20
12.0022701223
 10
-15.9334215737
 20
11.8735686355
 10
-16.0396631235
 20
11.7386252336
 10
-16.0885292627
 20
11.6000664362
 10
-16.0790688675
 20
11.4605891328
 10
-16.0114660737
 20
11.3229080904
 10
-15.8870366928
 20
11.1897031139
 10
-15.7082026012
 20
11.0635668868
 10
-15.478444601
 20
10.946954507
 10
-15.2022346704
 20
10.8421357021
 10
-14.8849489214
 20
10.7511506507
 10
-14.5327629604
 20
10.6757702735
 10
-14.1525316863
 20
10.6174617637
  0
LWPOLYLINE
  5
131
330
123
100
AcDbEntity
  8
0
  6
Continuous
 62
     7
370
    25
100
AcDbPolyline
 90
       46
 70
   128
 43
0.0
 10
12.0312113432
 20
-8.7170542903
 10
12.4320871611
 20
-8.7571560238
 10
12.8458049308
 20
-8.7782704466
 10
13.2643121068
 20
-8.7799865902
 10
13.6794629227
 20
-8.7622710519
 10
14.0831769403
 20
-8.7254686446
 10
14.4675963254
 20
-8.6702956852
 10
14.8252387919
 20
-8.5978260527
 10
15.149143236
 20
-8.5094702859
 10
15.4330052262
 20
-8.4069481294
 10
15.6712997117
 20
-8.2922550604
 10
15.8593885613
 20
-8.1676234489
 10
15.9936108397
 20
-8.0354791076
 10
16.0713540628
 20
-7.8983940756
 10
16.0911050472
 20
-7.7590365573
 10
16.0524793625
 20
-7.6201189882
 10
15.9562288137
 20
-7.4843452408
 10
15.8042268082
 20
-7.3543579966
 10
15.5994318922
 20
-7.2326873094
 10
15.3458301657
 20
-7.1217013609
 10
15.0483576979
 20
-7.0235603662
 10
14.7128044521
 20
-6.9401745282
 10
14.3457015904
 20
-6.8731668574
 10
13.9541943525
 20
-6.8238415818
 10
13.5459029814
 20
-6.7931587618
 10
13.1287744043
 20
-6.7817156037
 10
12.7109275544
 20
-6.7897348355
 10
12.3004953454
 20
-6.8170603719
 10
11.9054663734
 20
-6.8631603524
 10
11.5335294279
 20
-6.9271374935
 10
11.1919238386
 20
-7.0077465528
 10
10.8872985696
 20
-7.1034185666
 10
10.6255828053
 20
-7.2122913881
 10
10.4118705454
 20
-7.3322459316
 10
10.2503214559
 20
-7.4609474184
 10
10.1440799061
 20
-7.5958908204
 10
10.0952137668
 20
-7.7344496178
 10
10.104674162
 20
-7.8739269212
 10
10.1722769558
 20
-8.0116079636
 10
10.2967063367
 20
-8.14481294
 10
10.4755404283
 20
-8.2709491672
 10
10.7052984285
 20
-8.3875615469
 10
10.9815083591
 20
-8.4923803518
 10
11.2987941081
 20
-8.5833654032
 10
11.6509800692
 20
-8.6587457804
 10
12.0312113432
 20
-8.7170542903
  0
LWPOLYLINE
  5
132
330
123
100
AcDbEntity
  8
0
  6
Continuous
 62
     7
370
    25
100
AcDbPolyline
 90
       46
 70
   128
 43
0.0
 10
-30.0624342594
 20
-3.4137534338
 10
-29.6615584415
 20
-3.4538551674
 10
-29.2478406717
 20
-3.4749695901
 10
-28.8293334958
 20
-3.4766857338
 10
-28.4141826798
 20
-3.4589701955
 10
-28.0104686623
 20
-3.4221677882
 10
-27.6260492772
 20
-3.3669948288
 10
-27.2684068107
 20
-3.2945251963
 10
-26.9445023666
 20
-3.2061694295
 10
-26.6606403764
 20
-3.103647273
 10
-26.4223458909
 20
-2.988954204
 10
-26.2342570412
 20
-2.8643225925
 10
-26.1000347629
 20
-2.7321782511
 10
-26.0222915398
 20
-2.5950932192
 10
-26.0025405553
 20
-2.4557357009
 10
-26.0411662401
 20
-2.3168181318
 10
-26.1374167889
 20
-2.1810443844
 10
-26.2894187944
 20
-2.0510571401
 10
-26.4942137104
 20
-1.929386453
 10
-26.7478154369
 20
-1.8184005045
 10
-27.0452879047
 20
-1.7202595098
 10
-27.3808411505
 20
-1.6368736718
 10
-27.7479440122
 20
-1.569866001
 10
-28.1394512501
 20
-1.5205407254
 10
-28.5477426212
 20
-1.4898579054
 10
-28.9648711983
 20
-1.4784147473
 10
-29.3827180481
 20
-1.486433979
 10
-29.7931502571
 20
-1.5137595154
 10
-30.1881792292
 20
-1.559859496
 10
-30.5601161747
 20
-1.6238366371
 10
-30.901721764
 20
-1.7044456964
 10
-31.206347033
 20
-1.8001177102
 10
-31.4680627973
 20
-1.9089905317
 10
-31.6817750572
 20
-2.0289450752
 10
-31.8433241467
 20
-2.157646562
 10
-31.9495656965
 20
-2.292589964
 10
-31.9984318357
 20
-2.4311487614
 10
-31.9889714405
 20
-2.5706260648
 10
-31.9213686468
 20
-2.7083071071
 10
-31.7969392659
 20
-2.8415120836
 10
-31.6181051743
 20
-2.9676483108
 10
-31.3883471741
 20
-3.0842606905
 10
-31.1121372434
 20
-3.1890794954
 10
-30.7948514945
 20
-3.2800645468
 10
-30.4426655334
 20
-3.355444924
 10
-30.0624342594
 20
-3.4137534338
  0
LWPOLYLINE
  5
133
330
123
100
AcDbEntity
  8
0
  6
Continuous
 62
     7
370
    25
100
AcDbPolyline
 90
       46
 70
   128
 43
0.0
 10
27.9411139163
 20
5.3141609073
 10
28.3419897341
 20
5.2740591737
 10
28.7557075039
 20
5.252944751
 10
29.1742146798
 20
5.2512286073
 10
29.5893654958
 20
5.2689441456
 10
29.9930795134
 20
5.3057465529
 10
30.3774988984
 20
5.3609195123
 10
30.7351413649
 20
5.4333891448
 10
31.059045809
 20
5.5217449116
 10
31.3429077992
 20
5.6242670681
 10
31.5812022847
 20
5.7389601371
 10
31.7692911344
 20
5.8635917486
 10
31.9035134128
 20
5.99573609
 10
31.9812566359
 20
6.1328211219
 10
32.0010076203
 20
6.2721786402
 10
31.9623819356
 20
6.4110962093
 10
31.8661313867
 20
6.5468699567
 10
31.7141293812
 20
6.676857201
 10
31.5093344652
 20
6.7985278881
 10
31.2557327387
 20
6.9095138366
 10
30.958260271
 20
7.0076548313
 10
30.6227070251
 20
7.0910406693
 10
30.2556041634
 20
7.1580483401
 10
29.8640969255
 20
7.2073736157
 10
29.4558055545
 20
7.2380564357
 10
29.0386769774
 20
7.2494995938
 10
28.6208301275
 20
7.2414803621
 10
28.2103979185
 20
7.2141548257
 10
27.8153689464
 20
7.1680548451
 10
27.443432001
 20
7.104077704
 10
27.1018264116
 20
7.0234686447
 10
26.7972011426
 20
6.9277966309
 10
26.5354853783
 20
6.8189238094
 10
26.3217731184
 20
6.6989692659
 10
26.1602240289
 20
6.5702677791
 10
26.0539824791
 20
6.4353243771
 10
26.0051163399
 20
6.2967655797
 10
26.0145767351
 20
6.1572882763
 10
26.0821795289
 20
6.019607234
 10
26.2066089098
 20
5.8864022575
 10
26.3854430014
 20
5.7602660304
 10
26.6152010016
 20
5.6436536506
 10
26.8914109322
 20
5.5388348457
 10
27.2086966811
 20
5.4478497943
 10
27.5608826422
 20
5.3724694171
 10
27.9411139163
 20
5.3141609073
  0
LINE
  5
138
330
123
100
AcDbEntity
  8
0
  6
Continuous
 62
     7
370
    25
100
AcDbLine
 10
17.4558286864
 20
-11.0040592861
 30
0.0
 11
17.4558286864
 21
-12.8896773693
 31
0.0
  0
LINE
  5
139
330
123
100
AcDbEntity
  8
0
  6
Continuous
 62
     7
370
    25
100
AcDbLine
 10
17.4558286864
 20
-11.0040592861
 30
0.0
 11
38.6690321171
 21
7.704227644
 31
0.0
  0
LINE
  5
13A
330
123
100
AcDbEntity
  8
0
  6
Continuous
 62
     7
370
    25
100
AcDbLine
 10
38.6690321171
 20
7.704227644
 30
0.0
 11
38.6690321171
 21
5.8186095607
 31
0.0
  0
LINE
  5
13B
330
123
100
AcDbEntity
  8
0
  6
Continuous
 62
     7
370
    25
100
AcDbLine
 10
17.4558286864
 20
-12.8896773693
 30
0.0
 11
38.6690321171
 21
5.8186095607
 31
0.0
  0
LINE
  5
13C
330
123
100
AcDbEntity
  8
0
  6
Continuous
 62
     7
370
    25
100
AcDbLine
 10
-38.6690321171
 20
-3.9329914775
 30
0.0
 11
-38.6690321171
 21
-5.8186095607
 31
0.0
  0
LINE
  5
13D
330
123
100
AcDbEntity
  8
0
  6
Continuous
 62
     7
370
    25
100
AcDbLine
 10
-38.6690321171
 20
-3.9329914775
 30
0.0
 11
17.4558286864
 21
-11.0040592861
 31
0.0
  0
LINE
  5
13E
330
123
100
AcDbEntity
  8
0
  6
Continuous
 62
     7
370
    25
100
AcDbLine
 10
-38.6690321171
 20
-5.8186095607
 30
0.0
 11
17.4558286864
 21
-12.8896773693
 31
0.0
  0
LINE
  5
13F
330
123
100
AcDbEntity
  8
0
  6
Continuous
 62
     7
370
    25
100
AcDbLine
 10
-17.4558286864
 20
14.7752954525
 30
0.0
 11
-38.6690321171
 21
-3.9329914775
 31
0.0
  0
LINE
  5
140
330
123
100
AcDbEntity
  8
0
  6
Continuous
 62
     7
370
    25
100
AcDbLine
 10
38.6690321171
 20
7.704227644
 30
0.0
 11
-17.4558286864
 21
14.7752954525
 31
0.0
  0
ARC
  5
141
330
123
100
AcDbEntity
  8
0
  6
Continuous
 62
     7
370
    25
100
AcDbCircle
 10
13.0918715148
 20
-17.3348972294
 30
0.0
 40
8.668322730431356
100
AcDbArc
 50
83.3754619671
 51
96.6245380329
  0
ARC
  5
142
330
123
100
AcDbEntity
  8
0
  6
Continuous
 62
     7
370
    25
100
AcDbCircle
 10
-29.0017740878
 20
-12.031596373
 30
0.0
 40
8.668322730431516
100
AcDbArc
 50
83.3754619671
 51
96.6245380329
  0
ARC
  5
143
330
123
100
AcDbEntity
  8
0
  6
Continuous
 62
     7
370
    25
100
AcDbCircle
 10
29.0017740878
 20
-3.3036820319
 30
0.0
 40
8.668322730431502
100
AcDbArc
 50
83.3754619671
 51
96.6245380329
  0
ARC
  5
144
330
123
100
AcDbEntity
  8
0
  6
Continuous
 62
     7
370
    25
100
AcDbCircle
 10
-13.0918715148
 20
1.9996188245
 30
0.0
 40
8.668322730431093
100
AcDbArc
 50
83.3754619671
 51
96.6245380329
  0
VIEWPORT
  5
157
330
123
100
AcDbEntity
  8
0
100
AcDbViewport
 10
0.0
 20
0.0
 30
0.0
 40
205.6
 41
156.0
 68
     1
 69
     1
 12
0.0
 22
0.7071067812
 13
0.0
 23
0.0
 14
10.0
 24
10.0
 15
10.0
 25
10.0
 16
0.0
 26
0.0
 36
1.0
 17
0.0
 27
0.0
 37
0.0
 42
50.0
 43
0.0
 44
0.0
 45
46.4357976654
 50
0.0
 51
0.0
 72
   100
 90
   557152
  1

281
     0
 71
     1
 74
     0
110
0.0
120
0.0
130
0.0
111
1.0
121
0.0
131
0.0
112
0.0
122
1.0
132
0.0
 79
     0
146
0.0
  0
ENDBLK
  5
126
330
123
100
AcDbEntity
  8
0
100
AcDbBlockEnd
  0
ENDSEC
  0
SECTION
  2
ENTITIES
  0
LWPOLYLINE
  5
78
330
1F
100
AcDbEntity
  8
0
  6
Continuous
 62
     7
370
    25
100
AcDbPolyline
 90
       46
 70
   128
 43
0.0
 10
-22.5
 20
15.2027957955
 10
-22.0824806971
 20
15.2234403393
 10
-21.6730879325
 20
15.284972148
 10
-21.2797900708
 20
15.386193575
 10
-20.9102422073
 20
15.5251344604
 10
-20.5716371709
 20
15.6990904778
 10
-20.2705655236
 20
15.9046757713
 10
-20.0128872823
 20
16.137888857
 10
-19.8036178611
 20
16.3941905074
 10
-19.6468304511
 20
16.6685921024
 10
-19.545576741
 20
16.9557527272
 10
-19.5018275189
 20
17.2500831267
 10
-19.5164343139
 20
17.5458544947
 10
-19.5891128212
 20
17.8373099778
 10
-19.7184484363
 20
18.1187767265
 10
-19.9019237886
 20
18.3847763109
 10
-20.1359677392
 20
18.6301313514
 10
-20.4160248886
 20
18.8500662915
 10
-20.7366442431
 20
19.0403003475
 10
-21.0915853116
 20
19.1971308301
 10
-21.47393957
 20
19.3175052122
 10
-21.8762649275
 20
19.3990805435
 10
-22.2907305788
 20
19.4402690529
 10
-22.7092694212
 20
19.4402690529
 10
-23.1237350725
 20
19.3990805435
 10
-23.52606043
 20
19.3175052122
 10
-23.9084146884
 20
19.1971308301
 10
-24.2633557569
 20
19.0403003475
 10
-24.5839751114
 20
18.8500662915
 10
-24.8640322608
 20
18.6301313514
 10
-25.0980762114
 20
18.3847763109
 10
-25.2815515637
 20
18.1187767265
 10
-25.4108871788
 20
17.8373099778
 10
-25.4835656861
 20
17.5458544947
 10
-25.4981724811
 20
17.2500831267
 10
-25.454423259
 20
16.9557527272
 10
-25.3531695489
 20
16.6685921024
 10
-25.1963821389
 20
16.3941905074
 10
-24.9871127177
 20
16.137888857
 10
-24.7294344764
 20
15.9046757713
 10
-24.4283628291
 20
15.6990904778
 10
-24.0897577927
 20
15.5251344604
 10
-23.7202099292
 20
15.386193575
 10
-23.3269120675
 20
15.284972148
 10
-22.9175193029
 20
15.2234403393
 10
-22.5
 20
15.2027957955
  0
LWPOLYLINE
  5
79
330
1F
100
AcDbEntity
  8
0
  6
Continuous
 62
     7
370
    25
100
AcDbPolyline
 90
       46
 70
   128
 43
0.0
 10
22.5
 20
-16.6170093579
 10
22.9175193029
 20
-16.5963648141
 10
23.3269120675
 20
-16.5348330054
 10
23.7202099292
 20
-16.4336115784
 10
24.0897577927
 20
-16.294670693
 10
24.4283628291
 20
-16.1207146756
 10
24.7294344764
 20
-15.9151293821
 10
24.9871127177
 20
-15.6819162964
 10
25.1963821389
 20
-15.425614646
 10
25.3531695489
 20
-15.151213051
 10
25.454423259
 20
-14.8640524262
 10
25.4981724811
 20
-14.5697220267
 10
25.4835656861
 20
-14.2739506587
 10
25.4108871788
 20
-13.9824951756
 10
25.2815515637
 20
-13.7010284269
 10
25.0980762114
 20
-13.4350288425
 10
24.8640322608
 20
-13.189673802
 10
24.5839751114
 20
-12.9697388619
 10
24.2633557569
 20
-12.7795048059
 10
23.9084146884
 20
-12.6226743233
 10
23.52606043
 20
-12.5022999412
 10
23.1237350725
 20
-12.4207246099
 10
22.7092694212
 20
-12.3795361005
 10
22.2907305788
 20
-12.3795361005
 10
21.8762649275
 20
-12.4207246099
 10
21.47393957
 20
-12.5022999412
 10
21.0915853116
 20
-12.6226743233
 10
20.7366442431
 20
-12.7795048059
 10
20.4160248886
 20
-12.9697388619
 10
20.1359677392
 20
-13.189673802
 10
19.9019237886
 20
-13.4350288425
 10
19.7184484363
 20
-13.7010284269
 10
19.5891128212
 20
-13.9824951756
 10
19.5164343139
 20
-14.2739506587
 10
19.5018275189
 20
-14.5697220267
 10
19.545576741
 20
-14.8640524262
 10
19.6468304511
 20
-15.151213051
 10
19.8036178611
 20
-15.425614646
 10
20.0128872823
 20
-15.6819162964
 10
20.2705655236
 20
-15.9151293821
 10
20.5716371709
 20
-16.1207146756
 10
20.9102422073
 20
-16.294670693
 10
21.2797900708
 20
-16.4336115784
 10
21.6730879325
 20
-16.5348330054
 10
22.0824806971
 20
-16.5963648141
 10
22.5
 20
-16.6170093579
  0
LWPOLYLINE
  5
7A
330
1F
100
AcDbEntity
  8
0
  6
Continuous
 62
     7
370
    25
100
AcDbPolyline
 90
       46
 70
   128
 43
0.0
 10
-22.5
 20
-16.6170093579
 10
-22.0824806971
 20
-16.5963648141
 10
-21.6730879325
 20
-16.5348330054
 10
-21.2797900708
 20
-16.4336115784
 10
-20.9102422073
 20
-16.294670693
 10
-20.5716371709
 20
-16.1207146756
 10
-20.2705655236
 20
-15.9151293821
 10
-20.0128872823
 20
-15.6819162964
 10
-19.8036178611
 20
-15.425614646
 10
-19.6468304511
 20
-15.151213051
 10
-19.545576741
 20
-14.8640524262
 10
-19.5018275189
 20
-14.5697220267
 10
-19.5164343139
 20
-14.2739506587
 10
-19.5891128212
 20
-13.9824951756
 10
-19.7184484363
 20
-13.7010284269
 10
-19.9019237886
 20
-13.4350288425
 10
-20.1359677392
 20
-13.189673802
 10
-20.4160248886
 20
-12.9697388619
 10
-20.7366442431
 20
-12.7795048059
 10
-21.0915853116
 20
-12.6226743233
 10
-21.47393957
 20
-12.5022999412
 10
-21.8762649275
 20
-12.4207246099
 10
-22.2907305788
 20
-12.3795361005
 10
-22.7092694212
 20
-12.3795361005
 10
-23.1237350725
 20
-12.4207246099
 10
-23.52606043
 20
-12.5022999412
 10
-23.9084146884
 20
-12.6226743233
 10
-24.2633557569
 20
-12.7795048059
 10
-24.5839751114
 20
-12.9697388619
 10
-24.8640322608
 20
-13.189673802
 10
-25.0980762114
 20
-13.4350288425
 10
-25.2815515637
 20
-13.7010284269
 10
-25.4108871788
 20
-13.9824951756
 10
-25.4835656861
 20
-14.2739506587
 10
-25.4981724811
 20
-14.5697220267
 10
-25.454423259
 20
-14.8640524262
 10
-25.3531695489
 20
-15.151213051
 10
-25.1963821389
 20
-15.425614646
 10
-24.9871127177
 20
-15.6819162964
 10
-24.7294344764
 20
-15.9151293821
 10
-24.4283628291
 20
-16.1207146756
 10
-24.0897577927
 20
-16.294670693
 10
-23.7202099292
 20
-16.4336115784
 10
-23.3269120675
 20
-16.5348330054
 10
-22.9175193029
 20
-16.5963648141
 10
-22.5
 20
-16.6170093579
  0
LWPOLYLINE
  5
7B
330
1F
100
AcDbEntity
  8
0
  6
Continuous
 62
     7
370
    25
100
AcDbPolyline
 90
       46
 70
   128
 43
0.0
 10
22.5
 20
15.2027957955
 10
22.9175193029
 20
15.2234403393
 10
23.3269120675
 20
15.284972148
 10
23.7202099292
 20
15.386193575
 10
24.0897577927
 20
15.5251344604
 10
24.4283628291
 20
15.6990904778
 10
24.7294344764
 20
15.9046757713
 10
24.9871127177
 20
16.137888857
 10
25.1963821389
 20
16.3941905074
 10
25.3531695489
 20
16.6685921024
 10
25.454423259
 20
16.9557527272
 10
25.4981724811
 20
17.2500831267
 10
25.4835656861
 20
17.5458544947
 10
25.4108871788
 20
17.8373099778
 10
25.2815515637
 20
18.1187767265
 10
25.0980762114
 20
18.3847763109
 10
24.8640322608
 20
18.6301313514
 10
24.5839751114
 20
18.8500662915
 10
24.2633557569
 20
19.0403003475
 10
23.9084146884
 20
19.1971308301
 10
23.52606043
 20
19.3175052122
 10
23.1237350725
 20
19.3990805435
 10
22.7092694212
 20
19.4402690529
 10
22.2907305788
 20
19.4402690529
 10
21.8762649275
 20
19.3990805435
 10
21.47393957
 20
19.3175052122
 10
21.0915853116
 20
19.1971308301
 10
20.7366442431
 20
19.0403003475
 10
20.4160248886
 20
18.8500662915
 10
20.1359677392
 20
18.6301313514
 10
19.9019237886
 20
18.3847763109
 10
19.7184484363
 20
18.1187767265
 10
19.5891128212
 20
17.8373099778
 10
19.5164343139
 20
17.5458544947
 10
19.5018275189
 20
17.2500831267
 10
19.545576741
 20
16.9557527272
 10
19.6468304511
 20
16.6685921024
 10
19.8036178611
 20
16.3941905074
 10
20.0128872823
 20
16.137888857
 10
20.2705655236
 20
15.9046757713
 10
20.5716371709
 20
15.6990904778
 10
20.9102422073
 20
15.5251344604
 10
21.2797900708
 20
15.386193575
 10
21.6730879325
 20
15.284972148
 10
22.0824806971
 20
15.2234403393
 10
22.5
 20
15.2027957955
  0
LINE
  5
82
330
1F
100
AcDbEntity
  8
0
  6
Continuous
 62
     7
370
    25
100
AcDbLine
 10
-30.0
 20
22.627416998
 30
0.0
 11
-30.0
 21
-21.2132034356
 31
0.0
  0
LINE
  5
83
330
1F
100
AcDbEntity
  8
0
  6
Continuous
 62
     7
370
    25
100
AcDbLine
 10
-30.0
 20
-19.7989898732
 30
0.0
 11
30.0
 21
-19.7989898732
 31
0.0
  0
LINE
  5
84
330
1F
100
AcDbEntity
  8
0
  6
Continuous
 62
     7
370
    25
100
AcDbLine
 10
-30.0
 20
-21.2132034356
 30
0.0
 11
30.0
 21
-21.2132034356
 31
0.0
  0
LINE
  5
85
330
1F
100
AcDbEntity
  8
0
  6
Continuous
 62
     7
370
    25
100
AcDbLine
 10
30.0
 20
-21.2132034356
 30
0.0
 11
30.0
 21
22.627416998
 31
0.0
  0
LINE
  5
86
330
1F
100
AcDbEntity
  8
0
  6
Continuous
 62
     7
370
    25
100
AcDbLine
 10
30.0
 20
22.627416998
 30
0.0
 11
-30.0
 21
22.627416998
 31
0.0
  0
ARC
  5
87
330
1F
100
AcDbEntity
  8
0
  6
Continuous
 62
     7
370
    25
100
AcDbCircle
 10
22.5
 20
-17.1565038464
 30
0.0
 40
3.437582747820595
100
AcDbArc
 50
34.6343932941
 51
145.3656067059
  0
ARC
  5
88
330
1F
100
AcDbEntity
  8
0
  6
Continuous
 62
     7
370
    25
100
AcDbCircle
 10
-22.5
 20
-17.1565038464
 30
0.0
 40
3.437582747820647
100
AcDbArc
 50
34.6343932941
 51
145.3656067059
  0
ARC
  5
89
330
1F
100
AcDbEntity
  8
0
  6
Continuous
 62
     7
370
    25
100
AcDbCircle
 10
-22.5
 20
14.663301307
 30
0.0
 40
3.437582747820594
100
AcDbArc
 50
34.6343932941
 51
145.3656067059
  0
ARC
  5
8A
330
1F
100
AcDbEntity
  8
0
  6
Continuous
 62
     7
370
    25
100
AcDbCircle
 10
22.5
 20
14.663301307
 30
0.0
 40
3.437582747820597
100
AcDbArc
 50
34.6343932941
 51
145.3656067059
  0
LINE
  5
8F
330
1B
100
AcDbEntity
 67
     1
  8
0
  6
Continuous
 62
     7
370
    25
100
AcDbLine
 10
-30.0
 20
2.0
 30
0.0
 11
-30.0
 21
0.0
 31
0.0
  0
LINE
  5
90
330
1B
100
AcDbEntity
 67
     1
  8
0
  6
Continuous
 62
     7
370
    25
100
AcDbLine
 10
-30.0
 20
2.0
 30
0.0
 11
30.0
 21
2.0
 31
0.0
  0
LINE
  5
91
330
1B
100
AcDbEntity
 67
     1
  8
0
  6
Continuous
 62
     7
370
    25
100
AcDbLine
 10
-30.0
 20
0.0
 30
0.0
 11
30.0
 21
0.0
 31
0.0
  0
LINE
  5
92
330
1B
100
AcDbEntity
 67
     1
  8
0
  6
Continuous
 62
     7
370
    25
100
AcDbLine
 10
30.0
 20
2.0
 30
0.0
 11
30.0
 21
0.0
 31
0.0
  0
VIEWPORT
  5
145
330
1B
100
AcDbEntity
 67
     1
  8
0
100
AcDbViewport
 10
0.0
 20
0.0
 30
0.0
 40
205.6
 41
156.0
 68
     1
 69
     1
 12
0.0
 22
0.7071067812
 13
0.0
 23
0.0
 14
10.0
 24
10.0
 15
10.0
 25
10.0
 16
0.0
 26
0.0
 36
1.0
 17
0.0
 27
0.0
 37
0.0
 42
50.0
 43
0.0
 44
0.0
 45
46.4357976654
 50
0.0
 51
0.0
 72
   100
 90
   557152
  1

281
     0
 71
     1
 74
     0
110
0.0
120
0.0
130
0.0
111
1.0
121
0.0
131
0.0
112
0.0
122
1.0
132
0.0
 79
     0
146
0.0
  0
ENDSEC
  0
SECTION
  2
OBJECTS
  0
DICTIONARY
  5
C
330
0
100
AcDbDictionary
281
     1
  3
ACAD_GROUP
350
D
  3
ACAD_LAYOUT
350
1A
  3
ACAD_MLINESTYLE
350
17
  3
ACAD_PLOTSETTINGS
350
19
  3
ACAD_PLOTSTYLENAME
350
E
  3
ACAD_SCALELIST
350
47
  0
DICTIONARY
  5
D
102
{ACAD_REACTORS
330
C
102
}
330
C
100
AcDbDictionary
281
     1
  0
DICTIONARY
  5
1A
102
{ACAD_REACTORS
330
C
102
}
330
C
100
AcDbDictionary
281
     1
  3
_
350
E0
  3
_
350
AC
  3
_
350
1E
  3
_
350
26
  3
_
350
102
  3
_
350
D0
  3
_
350
C4
  3
_
350
A0
  3
_
350
B8
  3
_
350
124
  3
Model
350
22
  0
DICTIONARY
  5
17
102
{ACAD_REACTORS
330
C
102
}
330
C
100
AcDbDictionary
281
     1
  3
Standard
350
18
  0
DICTIONARY
  5
19
102
{ACAD_REACTORS
330
C
102
}
330
C
100
AcDbDictionary
281
     1
  0
ACDBDICTIONARYWDFLT
  5
E
102
{ACAD_REACTORS
330
C
102
}
330
C
100
AcDbDictionary
281
     1
  3
Normal
350
F
100
AcDbDictionaryWithDefault
340
F
  0
DICTIONARY
  5
47
102
{ACAD_REACTORS
330
C
102
}
330
C
100
AcDbDictionary
281
     1
  3
A0
350
48
  3
A1
350
49
  3
A2
350
4A
  3
A3
350
4B
  3
A4
350
4C
  3
A5
350
4D
  3
A6
350
4E
  3
A7
350
4F
  3
A8
350
50
  3
A9
350
51
  3
B0
350
52
  3
B1
350
53
  3
B2
350
54
  3
B3
350
55
  3
B4
350
56
  3
B5
350
57
  3
B6
350
58
  3
B7
350
59
  3
B8
350
5A
  3
B9
350
5B
  3
C0
350
5C
  3
C1
350
5D
  3
C2
350
5E
  3
C3
350
5F
  3
C4
350
60
  3
C5
350
61
  3
C6
350
62
  3
C7
350
63
  3
C8
350
64
  3
C9
350
65
  3
D0
350
66
  3
D1
350
67
  3
D2
350
68
  0
LAYOUT
  5
E0
102
{ACAD_REACTORS
330
1A
102
}
330
1A
100
AcDbPlotSettings
  1

  2
none_device
  4
ISO_A4_(210.00_x_297.00_MM)
  6

 40
7.5
 41
20.0
 42
7.5
 43
20.0
 44
210.0
 45
297.0
 46
0.0
 47
0.0
 48
0.0
 49
0.0
140
0.0
141
0.0
142
1.0
143
0.233463035
 70
   688
 72
     1
 73
     1
 74
     1
  7

 75
     0
147
4.2833333333
148
30.0
149
0.0
100
AcDbLayout
  1
_
 70
     1
 71
     8
 10
0.0
 20
0.0
 11
0.0
 21
0.0
 12
0.0
 22
0.0
 32
0.0
 14
0.0
 24
0.0
 34
0.0
 15
0.0
 25
0.0
 35
0.0
146
0.0
 13
0.0
 23
0.0
 33
0.0
 16
1.0
 26
0.0
 36
0.0
 17
0.0
 27
1.0
 37
0.0
 76
     0
330
DF
331
153
  0
LAYOUT
  5
AC
102
{ACAD_REACTORS
330
1A
102
}
330
1A
100
AcDbPlotSettings
  1

  2
none_device
  4
ISO_A4_(210.00_x_297.00_MM)
  6

 40
7.5
 41
20.0
 42
7.5
 43
20.0
 44
210.0
 45
297.0
 46
0.0
 47
0.0
 48
0.0
 49
0.0
140
0.0
141
0.0
142
1.0
143
0.233463035
 70
   688
 72
     1
 73
     1
 74
     1
  7

 75
     0
147
4.2833333333
148
30.0
149
0.0
100
AcDbLayout
  1
_
 70
     1
 71
     4
 10
0.0
 20
0.0
 11
0.0
 21
0.0
 12
0.0
 22
0.0
 32
0.0
 14
0.0
 24
0.0
 34
0.0
 15
0.0
 25
0.0
 35
0.0
146
0.0
 13
0.0
 23
0.0
 33
0.0
 16
1.0
 26
0.0
 36
0.0
 17
0.0
 27
1.0
 37
0.0
 76
     0
330
AB
331
14B
  0
LAYOUT
  5
1E
102
{ACAD_REACTORS
330
1A
102
}
330
1A
100
AcDbPlotSettings
  1

  2
none_device
  4
ISO_A4_(210.00_x_297.00_MM)
  6

 40
7.5
 41
20.0
 42
7.5
 43
20.0
 44
210.0
 45
297.0
 46
0.0
 47
0.0
 48
0.0
 49
0.0
140
0.0
141
0.0
142
1.0
143
0.233463035
 70
   688
 72
     1
 73
     1
 74
     1
  7

 75
     0
147
4.2833333333
148
30.0
149
0.0
100
AcDbLayout
  1
_
 70
     1
 71
     1
 10
-34.6692607004
 20
-1.7509727626
 11
34.6692607004
 21
47.2762645914
 12
0.0
 22
0.0
 32
0.0
 14
-30.0
 24
0.0
 34
0.0
 15
30.0
 25
2.0
 35
0.0
146
0.0
 13
0.0
 23
0.0
 33
0.0
 16
1.0
 26
0.0
 36
0.0
 17
0.0
 27
1.0
 37
0.0
 76
     0
330
1B
331
145
  0
LAYOUT
  5
26
102
{ACAD_REACTORS
330
1A
102
}
330
1A
100
AcDbPlotSettings
  1

  2
none_device
  4
ISO_A4_(210.00_x_297.00_MM)
  6

 40
7.5
 41
20.0
 42
7.5
 43
20.0
 44
210.0
 45
297.0
 46
0.0
 47
0.0
 48
0.0
 49
0.0
140
0.0
141
0.0
142
1.0
143
0.233463035
 70
   688
 72
     1
 73
     1
 74
     1
  7

 75
     0
147
4.2833333333
148
30.0
149
0.0
100
AcDbLayout
  1
_
 70
     1
 71
     2
 10
0.0
 20
0.0
 11
0.0
 21
0.0
 12
0.0
 22
0.0
 32
0.0
 14
0.0
 24
0.0
 34
0.0
 15
0.0
 25
0.0
 35
0.0
146
0.0
 13
0.0
 23
0.0
 33
0.0
 16
1.0
 26
0.0
 36
0.0
 17
0.0
 27
1.0
 37
0.0
 76
     0
330
23
331
147
  0
LAYOUT
  5
102
102
{ACAD_REACTORS
330
1A
102
}
330
1A
100
AcDbPlotSettings
  1

  2
none_device
  4
ISO_A4_(210.00_x_297.00_MM)
  6

 40
7.5
 41
20.0
 42
7.5
 43
20.0
 44
210.0
 45
297.0
 46
0.0
 47
0.0
 48
0.0
 49
0.0
140
0.0
141
0.0
142
1.0
143
0.233463035
 70
   688
 72
     1
 73
     1
 74
     1
  7

 75
     0
147
4.2833333333
148
30.0
149
0.0
100
AcDbLayout
  1
_
 70
     1
 71
     9
 10
0.0
 20
0.0
 11
0.0
 21
0.0
 12
0.0
 22
0.0
 32
0.0
 14
0.0
 24
0.0
 34
0.0
 15
0.0
 25
0.0
 35
0.0
146
0.0
 13
0.0
 23
0.0
 33
0.0
 16
1.0
 26
0.0
 36
0.0
 17
0.0
 27
1.0
 37
0.0
 76
     0
330
101
331
155
  0
LAYOUT
  5
D0
102
{ACAD_REACTORS
330
1A
102
}
330
1A
100
AcDbPlotSettings
  1

  2
none_device
  4
ISO_A4_(210.00_x_297.00_MM)
  6

 40
7.5
 41
20.0
 42
7.5
 43
20.0
 44
210.0
 45
297.0
 46
0.0
 47
0.0
 48
0.0
 49
0.0
140
0.0
141
0.0
142
1.0
143
0.233463035
 70
   688
 72
     1
 73
     1
 74
     1
  7

 75
     0
147
4.2833333333
148
30.0
149
0.0
100
AcDbLayout
  1
_
 70
     1
 71
     7
 10
0.0
 20
0.0
 11
0.0
 21
0.0
 12
0.0
 22
0.0
 32
0.0
 14
0.0
 24
0.0
 34
0.0
 15
0.0
 25
0.0
 35
0.0
146
0.0
 13
0.0
 23
0.0
 33
0.0
 16
1.0
 26
0.0
 36
0.0
 17
0.0
 27
1.0
 37
0.0
 76
     0
330
CF
331
151
  0
LAYOUT
  5
C4
102
{ACAD_REACTORS
330
1A
102
}
330
1A
100
AcDbPlotSettings
  1

  2
none_device
  4
ISO_A4_(210.00_x_297.00_MM)
  6

 40
7.5
 41
20.0
 42
7.5
 43
20.0
 44
210.0
 45
297.0
 46
0.0
 47
0.0
 48
0.0
 49
0.0
140
0.0
141
0.0
142
1.0
143
0.233463035
 70
   688
 72
     1
 73
     1
 74
     1
  7

 75
     0
147
4.2833333333
148
30.0
149
0.0
100
AcDbLayout
  1
_
 70
     1
 71
     6
 10
0.0
 20
0.0
 11
0.0
 21
0.0
 12
0.0
 22
0.0
 32
0.0
 14
0.0
 24
0.0
 34
0.0
 15
0.0
 25
0.0
 35
0.0
146
0.0
 13
0.0
 23
0.0
 33
0.0
 16
1.0
 26
0.0
 36
0.0
 17
0.0
 27
1.0
 37
0.0
 76
     0
330
C3
331
14F
  0
LAYOUT
  5
A0
102
{ACAD_REACTORS
330
1A
102
}
330
1A
100
AcDbPlotSettings
  1

  2
none_device
  4
ISO_A4_(210.00_x_297.00_MM)
  6

 40
7.5
 41
20.0
 42
7.5
 43
20.0
 44
210.0
 45
297.0
 46
0.0
 47
0.0
 48
0.0
 49
0.0
140
0.0
141
0.0
142
1.0
143
0.233463035
 70
   688
 72
     1
 73
     1
 74
     1
  7

 75
     0
147
4.2833333333
148
30.0
149
0.0
100
AcDbLayout
  1
_
 70
     1
 71
     3
 10
0.0
 20
0.0
 11
0.0
 21
0.0
 12
0.0
 22
0.0
 32
0.0
 14
0.0
 24
0.0
 34
0.0
 15
0.0
 25
0.0
 35
0.0
146
0.0
 13
0.0
 23
0.0
 33
0.0
 16
1.0
 26
0.0
 36
0.0
 17
0.0
 27
1.0
 37
0.0
 76
     0
330
9F
331
149
  0
LAYOUT
  5
B8
102
{ACAD_REACTORS
330
1A
102
}
330
1A
100
AcDbPlotSettings
  1

  2
none_device
  4
ISO_A4_(210.00_x_297.00_MM)
  6

 40
7.5
 41
20.0
 42
7.5
 43
20.0
 44
210.0
 45
297.0
 46
0.0
 47
0.0
 48
0.0
 49
0.0
140
0.0
141
0.0
142
1.0
143
0.233463035
 70
   688
 72
     1
 73
     1
 74
     1
  7

 75
     0
147
4.2833333333
148
30.0
149
0.0
100
AcDbLayout
  1
_
 70
     1
 71
     5
 10
0.0
 20
0.0
 11
0.0
 21
0.0
 12
0.0
 22
0.0
 32
0.0
 14
0.0
 24
0.0
 34
0.0
 15
0.0
 25
0.0
 35
0.0
146
0.0
 13
0.0
 23
0.0
 33
0.0
 16
1.0
 26
0.0
 36
0.0
 17
0.0
 27
1.0
 37
0.0
 76
     0
330
B7
331
14D
  0
LAYOUT
  5
124
102
{ACAD_REACTORS
330
1A
102
}
330
1A
100
AcDbPlotSettings
  1

  2
none_device
  4
ISO_A4_(210.00_x_297.00_MM)
  6

 40
7.5
 41
20.0
 42
7.5
 43
20.0
 44
210.0
 45
297.0
 46
0.0
 47
0.0
 48
0.0
 49
0.0
140
0.0
141
0.0
142
1.0
143
0.233463035
 70
   688
 72
     1
 73
     1
 74
     1
  7

 75
     0
147
4.2833333333
148
30.0
149
0.0
100
AcDbLayout
  1
_
 70
     1
 71
    10
 10
0.0
 20
0.0
 11
0.0
 21
0.0
 12
0.0
 22
0.0
 32
0.0
 14
0.0
 24
0.0
 34
0.0
 15
0.0
 25
0.0
 35
0.0
146
0.0
 13
0.0
 23
0.0
 33
0.0
 16
1.0
 26
0.0
 36
0.0
 17
0.0
 27
1.0
 37
0.0
 76
     0
330
123
331
157
  0
LAYOUT
  5
22
102
{ACAD_REACTORS
330
1A
102
}
330
1A
100
AcDbPlotSettings
  1

  2
none_device
  4
ANSI_A_(11.00_x_8.50_Inches)
  6

 40
6.35
 41
19.05
 42
6.35000508
 43
19.05000254
 44
279.4
 45
215.9
 46
133.34999746
 47
85.6401657581
 48
0.0
 49
0.0
140
0.0
141
0.0
142
0.1815
143
1.0
 70
  1696
 72
     0
 73
     0
 74
     0
  7

 75
     0
147
0.0179189148
148
-1300.4909072572
149
0.0
100
AcDbLayout
  1
Model
 70
     1
 71
     0
 10
0.0
 20
0.0
 11
420.0
 21
297.0
 12
0.0
 22
0.0
 32
0.0
 14
-30.0
 24
-21.2132034356
 34
0.0
 15
30.0
 25
22.627416998
 35
0.0
146
0.0
 13
0.0
 23
0.0
 33
0.0
 16
1.0
 26
0.0
 36
0.0
 17
0.0
 27
1.0
 37
0.0
 76
     0
330
1F
331
29
  0
MLINESTYLE
  5
18
102
{ACAD_REACTORS
330
17
102
}
330
17
100
AcDbMlineStyle
  2
Standard
 70
     0
  3

 62
   256
 51
90.0
 52
90.0
 71
     2
 49
0.5
 62
   256
  6
BYLAYER
 49
-0.5
 62
   256
  6
BYLAYER
  0
ACDBPLACEHOLDER
  5
F
102
{ACAD_REACTORS
330
E
102
}
330
E
  0
SCALE
  5
48
102
{ACAD_REACTORS
330
47
102
}
330
47
100
AcDbScale
 70
     0
300
1:1
140
1.0
141
1.0
290
     1
  0
SCALE
  5
49
102
{ACAD_REACTORS
330
47
102
}
330
47
100
AcDbScale
 70
     0
300
1:2
140
1.0
141
2.0
290
     0
  0
SCALE
  5
4A
102
{ACAD_REACTORS
330
47
102
}
330
47
100
AcDbScale
 70
     0
300
1:4
140
1.0
141
4.0
290
     0
  0
SCALE
  5
4B
102
{ACAD_REACTORS
330
47
102
}
330
47
100
AcDbScale
 70
     0
300
1:5
140
1.0
141
5.0
290
     0
  0
SCALE
  5
4C
102
{ACAD_REACTORS
330
47
102
}
330
47
100
AcDbScale
 70
     0
300
1:8
140
1.0
141
8.0
290
     0
  0
SCALE
  5
4D
102
{ACAD_REACTORS
330
47
102
}
330
47
100
AcDbScale
 70
     0
300
1:10
140
1.0
141
10.0
290
     0
  0
SCALE
  5
4E
102
{ACAD_REACTORS
330
47
102
}
330
47
100
AcDbScale
 70
     0
300
1:16
140
1.0
141
16.0
290
     0
  0
SCALE
  5
4F
102
{ACAD_REACTORS
330
47
102
}
330
47
100
AcDbScale
 70
     0
300
1:20
140
1.0
141
20.0
290
     0
  0
SCALE
  5
50
102
{ACAD_REACTORS
330
47
102
}
330
47
100
AcDbScale
 70
     0
300
1:30
140
1.0
141
30.0
290
     0
  0
SCALE
  5
51
102
{ACAD_REACTORS
330
47
102
}
330
47
100
AcDbScale
 70
     0
300
1:40
140
1.0
141
40.0
290
     0
  0
SCALE
  5
52
102
{ACAD_REACTORS
330
47
102
}
330
47
100
AcDbScale
 70
     0
300
1:50
140
1.0
141
50.0
290
     0
  0
SCALE
  5
53
102
{ACAD_REACTORS
330
47
102
}
330
47
100
AcDbScale
 70
     0
300
1:100
140
1.0
141
100.0
290
     0
  0
SCALE
  5
54
102
{ACAD_REACTORS
330
47
102
}
330
47
100
AcDbScale
 70
     0
300
2:1
140
2.0
141
1.0
290
     0
  0
SCALE
  5
55
102
{ACAD_REACTORS
330
47
102
}
330
47
100
AcDbScale
 70
     0
300
4:1
140
4.0
141
1.0
290
     0
  0
SCALE
  5
56
102
{ACAD_REACTORS
330
47
102
}
330
47
100
AcDbScale
 70
     0
300
8:1
140
8.0
141
1.0
290
     0
  0
SCALE
  5
57
102
{ACAD_REACTORS
330
47
102
}
330
47
100
AcDbScale
 70
     0
300
10:1
140
10.0
141
1.0
290
     0
  0
SCALE
  5
58
102
{ACAD_REACTORS
330
47
102
}
330
47
100
AcDbScale
 70
     0
300
100:1
140
100.0
141
1.0
290
     0
  0
SCALE
  5
59
102
{ACAD_REACTORS
330
47
102
}
330
47
100
AcDbScale
 70
     0
300
1/128" = 1'-0"
140
0.0078125
141
12.0
290
     0
  0
SCALE
  5
5A
102
{ACAD_REACTORS
330
47
102
}
330
47
100
AcDbScale
 70
     0
300
1/64" = 1'-0"
140
0.015625
141
12.0
290
     0
  0
SCALE
  5
5B
102
{ACAD_REACTORS
330
47
102
}
330
47
100
AcDbScale
 70
     0
300
1/32" = 1'-0"
140
0.03125
141
12.0
290
     0
  0
SCALE
  5
5C
102
{ACAD_REACTORS
330
47
102
}
330
47
100
AcDbScale
 70
     0
300
1/16" = 1'-0"
140
0.0625
141
12.0
290
     0
  0
SCALE
  5
5D
102
{ACAD_REACTORS
330
47
102
}
330
47
100
AcDbScale
 70
     0
300
3/32" = 1'-0"
140
0.09375
141
12.0
290
     0
  0
SCALE
  5
5E
102
{ACAD_REACTORS
330
47
102
}
330
47
100
AcDbScale
 70
     0
300
1/8" = 1'-0"
140
0.125
141
12.0
290
     0
  0
SCALE
  5
5F
102
{ACAD_REACTORS
330
47
102
}
330
47
100
AcDbScale
 70
     0
300
3/16" = 1'-0"
140
0.1875
141
12.0
290
     0
  0
SCALE
  5
60
102
{ACAD_REACTORS
330
47
102
}
330
47
100
AcDbScale
 70
     0
300
1/4" = 1'-0"
140
0.25
141
12.0
290
     0
  0
SCALE
  5
61
102
{ACAD_REACTORS
330
47
102
}
330
47
100
AcDbScale
 70
     0
300
3/8" = 1'-0"
140
0.375
141
12.0
290
     0
  0
SCALE
  5
62
102
{ACAD_REACTORS
330
47
102
}
330
47
100
AcDbScale
 70
     0
300
1/2" = 1'-0"
140
0.5
141
12.0
290
     0
  0
SCALE
  5
63
102
{ACAD_REACTORS
330
47
102
}
330
47
100
AcDbScale
 70
     0
300
3/4" = 1'-0"
140
0.75
141
12.0
290
     0
  0
SCALE
  5
64
102
{ACAD_REACTORS
330
47
102
}
330
47
100
AcDbScale
 70
     0
300
1" = 1'-0"
140
1.0
141
12.0
290
     0
  0
SCALE
  5
65
102
{ACAD_REACTORS
330
47
102
}
330
47
100
AcDbScale
 70
     0
300
1-1/2" = 1'-0"
140
1.5
141
12.0
290
     0
  0
SCALE
  5
66
102
{ACAD_REACTORS
330
47
102
}
330
47
100
AcDbScale
 70
     0
300
3" = 1'-0"
140
3.0
141
12.0
290
     0
  0
SCALE
  5
67
102
{ACAD_REACTORS
330
47
102
}
330
47
100
AcDbScale
 70
     0
300
6" = 1'-0"
140
6.0
141
12.0
290
     0
  0
SCALE
  5
68
102
{ACAD_REACTORS
330
47
102
}
330
47
100
AcDbScale
 70
     0
300
1'-0" = 1'-0"
140
12.0
141
12.0
290
     0
  0
ENDSEC
  0
EOF
